u2194_noise 200 - 60.ufo
<glyph name="exclam" format="1">
  <advance width="410"/>
  <unicode hex="0021"/>
  <outline>
    <contour>
      <point x="145" y="142" type="curve" smooth="yes"/>
      <point x="177" y="149"/>
      <point x="198" y="182"/>
      <point x="192" y="213" type="curve" smooth="yes"/>
      <point x="180" y="269" type="line"/>
      <point x="327" y="348" type="line" smooth="yes"/>
      <point x="363" y="367"/>
      <point x="371" y="410"/>
      <point x="344" y="441" type="curve" smooth="yes"/>
      <point x="280" y="513" type="line"/>
      <point x="306" y="579" type="line" smooth="yes"/>
      <point x="313" y="596"/>
      <point x="309" y="622"/>
      <point x="298" y="637" type="curve" smooth="yes"/>
      <point x="226" y="734" type="line"/>
      <point x="160" y="834" type="line" smooth="yes"/>
      <point x="142" y="861"/>
      <point x="104" y="869"/>
      <point x="77" y="851" type="curve" smooth="yes"/>
      <point x="50" y="833"/>
      <point x="42" y="795"/>
      <point x="60" y="768" type="curve" smooth="yes"/>
      <point x="126" y="668" type="line"/>
      <point x="182" y="592" type="line"/>
      <point x="155" y="523" type="line" smooth="yes"/>
      <point x="148" y="504"/>
      <point x="153" y="477"/>
      <point x="166" y="461" type="curve" smooth="yes"/>
      <point x="204" y="418" type="line"/>
      <point x="84" y="354" type="line" smooth="yes"/>
      <point x="62" y="342"/>
      <point x="48" y="313"/>
      <point x="53" y="289" type="curve" smooth="yes"/>
      <point x="74" y="189" type="line" smooth="yes"/>
      <point x="81" y="157"/>
      <point x="114" y="136"/>
    </contour>
    <contour>
      <point x="346" y="26" type="curve" smooth="yes"/>
      <point x="342" y="58"/>
      <point x="311" y="82"/>
      <point x="279" y="77" type="curve" smooth="yes"/>
      <point x="157" y="60" type="line" smooth="yes"/>
      <point x="125" y="56"/>
      <point x="101" y="25"/>
      <point x="106" y="-7" type="curve" smooth="yes"/>
      <point x="110" y="-39"/>
      <point x="141" y="-63"/>
      <point x="173" y="-58" type="curve" smooth="yes"/>
      <point x="295" y="-41" type="line" smooth="yes"/>
      <point x="327" y="-37"/>
      <point x="351" y="-6"/>
    </contour>
  </outline>
</glyph>
<glyph name="numbersign" format="1">
  <advance width="933"/>
  <unicode hex="0023"/>
  <outline>
    <contour>
      <point x="520" y="690" type="curve" smooth="yes"/>
      <point x="530" y="750" type="line"/>
      <point x="596" y="698" type="line"/>
      <point x="550" y="659" type="line"/>
      <point x="506" y="659" type="line"/>
      <point x="511" y="665"/>
      <point x="519" y="679"/>
    </contour>
    <contour>
      <point x="459" y="329" type="curve" smooth="yes"/>
      <point x="418" y="259" type="line"/>
      <point x="380" y="259" type="line"/>
      <point x="348" y="296" type="line"/>
      <point x="409" y="356" type="line" smooth="yes"/>
      <point x="433" y="379"/>
      <point x="433" y="417"/>
      <point x="410" y="441" type="curve" smooth="yes"/>
      <point x="353" y="499" type="line"/>
      <point x="391" y="539" type="line"/>
      <point x="537" y="539" type="line"/>
      <point x="568" y="486" type="line"/>
      <point x="562" y="428" type="line"/>
      <point x="470" y="343" type="line" smooth="yes"/>
      <point x="467" y="340"/>
      <point x="462" y="334"/>
    </contour>
    <contour>
      <point x="350" y="-31" type="curve" smooth="yes"/>
      <point x="408" y="69" type="line" smooth="yes"/>
      <point x="413" y="77"/>
      <point x="416" y="91"/>
      <point x="416" y="101" type="curve" smooth="yes"/>
      <point x="415" y="139" type="line"/>
      <point x="418" y="139" type="line"/>
      <point x="440" y="102" type="line"/>
      <point x="390" y="35" type="line" smooth="yes"/>
      <point x="370" y="9"/>
      <point x="376" y="-30"/>
      <point x="402" y="-49" type="curve" smooth="yes"/>
      <point x="428" y="-69"/>
      <point x="467" y="-63"/>
      <point x="486" y="-37" type="curve" smooth="yes"/>
      <point x="560" y="63" type="line" smooth="yes"/>
      <point x="573" y="81"/>
      <point x="575" y="111"/>
      <point x="563" y="130" type="curve" smooth="yes"/>
      <point x="558" y="139" type="line"/>
      <point x="679" y="139" type="line" smooth="yes"/>
      <point x="711" y="139"/>
      <point x="739" y="167"/>
      <point x="739" y="199" type="curve" smooth="yes"/>
      <point x="739" y="231"/>
      <point x="711" y="259"/>
      <point x="679" y="259" type="curve" smooth="yes"/>
      <point x="557" y="259" type="line"/>
      <point x="558" y="261" type="line"/>
      <point x="661" y="355" type="line" smooth="yes"/>
      <point x="670" y="363"/>
      <point x="679" y="381"/>
      <point x="680" y="394" type="curve" smooth="yes"/>
      <point x="689" y="494" type="line" smooth="yes"/>
      <point x="690" y="504"/>
      <point x="686" y="520"/>
      <point x="681" y="529" type="curve" smooth="yes"/>
      <point x="675" y="539" type="line"/>
      <point x="823" y="539" type="line" smooth="yes"/>
      <point x="855" y="539"/>
      <point x="883" y="567"/>
      <point x="883" y="599" type="curve" smooth="yes"/>
      <point x="883" y="631"/>
      <point x="855" y="659"/>
      <point x="823" y="659" type="curve" smooth="yes"/>
      <point x="735" y="659" type="line"/>
      <point x="759" y="685"/>
      <point x="756" y="723"/>
      <point x="727" y="746" type="curve" smooth="yes"/>
      <point x="602" y="846" type="line" smooth="yes"/>
      <point x="578" y="865"/>
      <point x="542" y="862"/>
      <point x="521" y="839" type="curve"/>
      <point x="512" y="849"/>
      <point x="500" y="856"/>
      <point x="486" y="858" type="curve" smooth="yes"/>
      <point x="454" y="863"/>
      <point x="423" y="840"/>
      <point x="418" y="808" type="curve" smooth="yes"/>
      <point x="405" y="727" type="line"/>
      <point x="339" y="659" type="line"/>
      <point x="305" y="659" type="line" smooth="yes"/>
      <point x="273" y="659"/>
      <point x="245" y="631"/>
      <point x="245" y="599" type="curve" smooth="yes"/>
      <point x="245" y="588"/>
      <point x="248" y="578"/>
      <point x="254" y="569" type="curve"/>
      <point x="227" y="540" type="line" smooth="yes"/>
      <point x="205" y="517"/>
      <point x="205" y="480"/>
      <point x="227" y="457" type="curve" smooth="yes"/>
      <point x="282" y="400" type="line"/>
      <point x="223" y="342" type="line" smooth="yes"/>
      <point x="201" y="320"/>
      <point x="199" y="283"/>
      <point x="220" y="259" type="curve" smooth="yes"/>
      <point x="220" y="259" type="line"/>
      <point x="110" y="259" type="line" smooth="yes"/>
      <point x="78" y="259"/>
      <point x="50" y="231"/>
      <point x="50" y="199" type="curve" smooth="yes"/>
      <point x="50" y="167"/>
      <point x="78" y="139"/>
      <point x="110" y="139" type="curve" smooth="yes"/>
      <point x="295" y="139" type="line"/>
      <point x="296" y="114" type="line"/>
      <point x="246" y="29" type="line" smooth="yes"/>
      <point x="230" y="1"/>
      <point x="240" y="-37"/>
      <point x="268" y="-53" type="curve" smooth="yes"/>
      <point x="296" y="-69"/>
      <point x="334" y="-59"/>
    </contour>
  </outline>
</glyph>
<glyph name="dollar" format="1">
  <advance width="941"/>
  <unicode hex="0024"/>
  <outline>
    <contour>
      <point x="331" y="459" type="line"/>
      <point x="211" y="464" type="line"/>
      <point x="208" y="466" type="line"/>
      <point x="297" y="554" type="line" smooth="yes"/>
      <point x="338" y="595"/>
      <point x="314" y="656"/>
      <point x="256" y="657" type="curve" smooth="yes"/>
      <point x="216" y="658" type="line"/>
      <point x="269" y="706" type="line"/>
      <point x="462" y="738" type="line"/>
      <point x="476" y="711" type="line"/>
      <point x="405" y="642" type="line" smooth="yes"/>
      <point x="386" y="623"/>
      <point x="382" y="590"/>
      <point x="396" y="567" type="curve" smooth="yes"/>
      <point x="436" y="503" type="line"/>
      <point x="401" y="459" type="line"/>
    </contour>
    <contour>
      <point x="620" y="167" type="line" smooth="yes"/>
      <point x="628" y="180"/>
      <point x="631" y="202"/>
      <point x="626" y="216" type="curve" smooth="yes"/>
      <point x="596" y="316" type="line" smooth="yes"/>
      <point x="595" y="323"/>
      <point x="590" y="331"/>
      <point x="585" y="337" type="curve"/>
      <point x="679" y="333" type="line"/>
      <point x="727" y="311" type="line"/>
      <point x="698" y="224" type="line"/>
      <point x="659" y="144" type="line" smooth="yes"/>
      <point x="653" y="131"/>
      <point x="652" y="110"/>
      <point x="657" y="97" type="curve" smooth="yes"/>
      <point x="666" y="72" type="line"/>
      <point x="629" y="59" type="line"/>
      <point x="553" y="59" type="line"/>
      <point x="559" y="70" type="line"/>
    </contour>
    <contour>
      <point x="442" y="-61" type="curve" smooth="yes"/>
      <point x="639" y="-61" type="line" smooth="yes"/>
      <point x="645" y="-61"/>
      <point x="654" y="-59"/>
      <point x="659" y="-58" type="curve" smooth="yes"/>
      <point x="763" y="-21" type="line" smooth="yes"/>
      <point x="795" y="-10"/>
      <point x="811" y="25"/>
      <point x="799" y="56" type="curve" smooth="yes"/>
      <point x="778" y="114" type="line"/>
      <point x="808" y="175" type="line" smooth="yes"/>
      <point x="809" y="177"/>
      <point x="810" y="180"/>
      <point x="811" y="182" type="curve" smooth="yes"/>
      <point x="858" y="324" type="line" smooth="yes"/>
      <point x="867" y="352"/>
      <point x="853" y="384"/>
      <point x="826" y="397" type="curve" smooth="yes"/>
      <point x="719" y="447" type="line" smooth="yes"/>
      <point x="713" y="450"/>
      <point x="702" y="452"/>
      <point x="696" y="453" type="curve" smooth="yes"/>
      <point x="554" y="458" type="line"/>
      <point x="557" y="462" type="line" smooth="yes"/>
      <point x="572" y="480"/>
      <point x="573" y="511"/>
      <point x="561" y="531" type="curve" smooth="yes"/>
      <point x="524" y="590" type="line"/>
      <point x="591" y="656" type="line" smooth="yes"/>
      <point x="608" y="673"/>
      <point x="614" y="705"/>
      <point x="602" y="726" type="curve" smooth="yes"/>
      <point x="598" y="735" type="line"/>
      <point x="732" y="708" type="line"/>
      <point x="759" y="676" type="line"/>
      <point x="732" y="629" type="line" smooth="yes"/>
      <point x="716" y="601"/>
      <point x="726" y="563"/>
      <point x="754" y="547" type="curve" smooth="yes"/>
      <point x="782" y="531"/>
      <point x="820" y="541"/>
      <point x="836" y="569" type="curve" smooth="yes"/>
      <point x="884" y="653" type="line" smooth="yes"/>
      <point x="895" y="673"/>
      <point x="892" y="703"/>
      <point x="878" y="721" type="curve" smooth="yes"/>
      <point x="811" y="801" type="line" smooth="yes"/>
      <point x="804" y="810"/>
      <point x="788" y="819"/>
      <point x="777" y="822" type="curve" smooth="yes"/>
      <point x="597" y="858" type="line" smooth="yes"/>
      <point x="594" y="858"/>
      <point x="588" y="859"/>
      <point x="585" y="859" type="curve" smooth="yes"/>
      <point x="464" y="859" type="line" smooth="yes"/>
      <point x="461" y="859"/>
      <point x="457" y="859"/>
      <point x="454" y="858" type="curve" smooth="yes"/>
      <point x="232" y="822" type="line" smooth="yes"/>
      <point x="222" y="820"/>
      <point x="208" y="814"/>
      <point x="201" y="807" type="curve" smooth="yes"/>
      <point x="113" y="726" type="line" smooth="yes"/>
      <point x="107" y="720"/>
      <point x="99" y="707"/>
      <point x="96" y="698" type="curve" smooth="yes"/>
      <point x="73" y="615" type="line" smooth="yes"/>
      <point x="64" y="581"/>
      <point x="82" y="550"/>
      <point x="113" y="541" type="curve"/>
      <point x="69" y="498" type="line" smooth="yes"/>
      <point x="40" y="469"/>
      <point x="45" y="426"/>
      <point x="80" y="404" type="curve" smooth="yes"/>
      <point x="161" y="354" type="line" smooth="yes"/>
      <point x="168" y="350"/>
      <point x="181" y="346"/>
      <point x="190" y="345" type="curve" smooth="yes"/>
      <point x="331" y="339" type="line"/>
      <point x="407" y="339" type="line"/>
      <point x="486" y="266" type="line"/>
      <point x="504" y="208" type="line"/>
      <point x="455" y="131" type="line" smooth="yes"/>
      <point x="454" y="129"/>
      <point x="453" y="127"/>
      <point x="452" y="125" type="curve" smooth="yes"/>
      <point x="421" y="60" type="line"/>
      <point x="316" y="63" type="line"/>
      <point x="316" y="69"/>
      <point x="315" y="75"/>
      <point x="313" y="79" type="curve" smooth="yes"/>
      <point x="257" y="221" type="line" smooth="yes"/>
      <point x="245" y="251"/>
      <point x="209" y="267"/>
      <point x="179" y="255" type="curve" smooth="yes"/>
      <point x="149" y="243"/>
      <point x="133" y="207"/>
      <point x="145" y="177" type="curve" smooth="yes"/>
      <point x="190" y="64" type="line"/>
      <point x="173" y="39" type="line" smooth="yes"/>
      <point x="146" y="-4"/>
      <point x="171" y="-52"/>
      <point x="222" y="-54" type="curve" smooth="yes"/>
      <point x="440" y="-61" type="line" smooth="yes"/>
      <point x="441" y="-61"/>
      <point x="441" y="-61"/>
    </contour>
  </outline>
</glyph>
<glyph name="percent" format="1">
  <advance width="935"/>
  <unicode hex="0025"/>
  <outline>
    <contour>
      <point x="248" y="-41" type="curve" smooth="yes"/>
      <point x="269" y="-16"/>
      <point x="267" y="23"/>
      <point x="243" y="44" type="curve" smooth="yes"/>
      <point x="225" y="60" type="line"/>
      <point x="332" y="103" type="line" smooth="yes"/>
      <point x="375" y="121"/>
      <point x="385" y="169"/>
      <point x="352" y="201" type="curve" smooth="yes"/>
      <point x="331" y="223" type="line"/>
      <point x="416" y="265" type="line" smooth="yes"/>
      <point x="418" y="266"/>
      <point x="421" y="268"/>
      <point x="423" y="270" type="curve" smooth="yes"/>
      <point x="538" y="350" type="line" smooth="yes"/>
      <point x="542" y="352"/>
      <point x="547" y="357"/>
      <point x="550" y="360" type="curve" smooth="yes"/>
      <point x="617" y="440" type="line" smooth="yes"/>
      <point x="639" y="467"/>
      <point x="635" y="505"/>
      <point x="608" y="526" type="curve" smooth="yes"/>
      <point x="585" y="544" type="line"/>
      <point x="677" y="584" type="line" smooth="yes"/>
      <point x="694" y="592"/>
      <point x="710" y="613"/>
      <point x="713" y="632" type="curve" smooth="yes"/>
      <point x="721" y="697" type="line"/>
      <point x="767" y="765" type="line" smooth="yes"/>
      <point x="786" y="792"/>
      <point x="779" y="830"/>
      <point x="752" y="848" type="curve" smooth="yes"/>
      <point x="725" y="867"/>
      <point x="687" y="860"/>
      <point x="669" y="833" type="curve" smooth="yes"/>
      <point x="614" y="753" type="line" smooth="yes"/>
      <point x="609" y="746"/>
      <point x="604" y="734"/>
      <point x="603" y="726" type="curve" smooth="yes"/>
      <point x="598" y="680" type="line"/>
      <point x="453" y="618" type="line"/>
      <point x="450" y="626"/>
      <point x="445" y="634"/>
      <point x="437" y="642" type="curve" smooth="yes"/>
      <point x="343" y="734" type="line"/>
      <point x="366" y="744" type="line" smooth="yes"/>
      <point x="396" y="756"/>
      <point x="411" y="792"/>
      <point x="398" y="822" type="curve" smooth="yes"/>
      <point x="386" y="852"/>
      <point x="350" y="867"/>
      <point x="320" y="854" type="curve" smooth="yes"/>
      <point x="233" y="818" type="line" smooth="yes"/>
      <point x="220" y="813"/>
      <point x="205" y="797"/>
      <point x="200" y="784" type="curve" smooth="yes"/>
      <point x="169" y="703" type="line" smooth="yes"/>
      <point x="166" y="695"/>
      <point x="165" y="680"/>
      <point x="167" y="671" type="curve" smooth="yes"/>
      <point x="182" y="588" type="line" smooth="yes"/>
      <point x="187" y="561"/>
      <point x="213" y="539"/>
      <point x="241" y="539" type="curve" smooth="yes"/>
      <point x="395" y="539" type="line" smooth="yes"/>
      <point x="400" y="539"/>
      <point x="405" y="540"/>
      <point x="410" y="541" type="curve"/>
      <point x="414" y="530"/>
      <point x="421" y="520"/>
      <point x="432" y="512" type="curve" smooth="yes"/>
      <point x="485" y="470" type="line"/>
      <point x="463" y="444" type="line"/>
      <point x="358" y="371" type="line"/>
      <point x="203" y="293" type="line" smooth="yes"/>
      <point x="164" y="273"/>
      <point x="157" y="227"/>
      <point x="188" y="197" type="curve" smooth="yes"/>
      <point x="203" y="181" type="line"/>
      <point x="90" y="135" type="line" smooth="yes"/>
      <point x="45" y="117"/>
      <point x="36" y="66"/>
      <point x="72" y="34" type="curve" smooth="yes"/>
      <point x="163" y="-46" type="line" smooth="yes"/>
      <point x="188" y="-67"/>
      <point x="227" y="-65"/>
    </contour>
    <contour>
      <point x="579" y="-53" type="curve" smooth="yes"/>
      <point x="641" y="-16" type="line"/>
      <point x="762" y="67" type="line" smooth="yes"/>
      <point x="763" y="68"/>
      <point x="766" y="70"/>
      <point x="767" y="71" type="curve" smooth="yes"/>
      <point x="862" y="154" type="line" smooth="yes"/>
      <point x="907" y="194"/>
      <point x="882" y="259"/>
      <point x="822" y="259" type="curve" smooth="yes"/>
      <point x="581" y="259" type="line"/>
      <point x="581" y="149" type="line"/>
      <point x="536" y="183" type="line"/>
      <point x="563" y="83" type="line" smooth="yes"/>
      <point x="564" y="81"/>
      <point x="564" y="80"/>
      <point x="565" y="78" type="curve"/>
      <point x="519" y="51" type="line" smooth="yes"/>
      <point x="491" y="34"/>
      <point x="481" y="-3"/>
      <point x="497" y="-31" type="curve" smooth="yes"/>
      <point x="514" y="-59"/>
      <point x="551" y="-69"/>
    </contour>
  </outline>
</glyph>
<glyph name="ampersand" format="1">
  <advance width="951"/>
  <unicode hex="0026"/>
  <outline>
    <contour>
      <point x="751" y="-55" type="curve" smooth="yes"/>
      <point x="781" y="-44"/>
      <point x="798" y="-8"/>
      <point x="786" y="22" type="curve" smooth="yes"/>
      <point x="757" y="100" type="line"/>
      <point x="736" y="177" type="line" smooth="yes"/>
      <point x="734" y="185"/>
      <point x="728" y="194"/>
      <point x="722" y="201" type="curve"/>
      <point x="753" y="209" type="line" smooth="yes"/>
      <point x="790" y="218"/>
      <point x="808" y="256"/>
      <point x="793" y="291" type="curve" smooth="yes"/>
      <point x="786" y="305" type="line"/>
      <point x="868" y="346" type="line" smooth="yes"/>
      <point x="897" y="361"/>
      <point x="909" y="398"/>
      <point x="895" y="427" type="curve" smooth="yes"/>
      <point x="880" y="456"/>
      <point x="843" y="468"/>
      <point x="814" y="454" type="curve" smooth="yes"/>
      <point x="682" y="387" type="line" smooth="yes"/>
      <point x="654" y="373"/>
      <point x="641" y="338"/>
      <point x="654" y="310" type="curve" smooth="yes"/>
      <point x="655" y="308" type="line"/>
      <point x="567" y="285" type="line"/>
      <point x="559" y="289" type="line"/>
      <point x="502" y="355" type="line"/>
      <point x="501" y="357" type="line"/>
      <point x="687" y="403" type="line" smooth="yes"/>
      <point x="709" y="408"/>
      <point x="729" y="430"/>
      <point x="732" y="452" type="curve" smooth="yes"/>
      <point x="753" y="590" type="line"/>
      <point x="782" y="684" type="line" smooth="yes"/>
      <point x="785" y="694"/>
      <point x="785" y="710"/>
      <point x="782" y="720" type="curve" smooth="yes"/>
      <point x="751" y="819" type="line" smooth="yes"/>
      <point x="744" y="842"/>
      <point x="718" y="861"/>
      <point x="694" y="861" type="curve" smooth="yes"/>
      <point x="618" y="861" type="line" smooth="yes"/>
      <point x="616" y="861"/>
      <point x="614" y="861"/>
      <point x="613" y="861" type="curve" smooth="yes"/>
      <point x="530" y="853" type="line" smooth="yes"/>
      <point x="522" y="853"/>
      <point x="509" y="848"/>
      <point x="502" y="843" type="curve" smooth="yes"/>
      <point x="424" y="791" type="line" smooth="yes"/>
      <point x="414" y="785"/>
      <point x="404" y="771"/>
      <point x="400" y="761" type="curve" smooth="yes"/>
      <point x="351" y="619" type="line" smooth="yes"/>
      <point x="347" y="607"/>
      <point x="348" y="589"/>
      <point x="352" y="578" type="curve" smooth="yes"/>
      <point x="380" y="503" type="line"/>
      <point x="358" y="455" type="line"/>
      <point x="338" y="453" type="line" smooth="yes"/>
      <point x="327" y="452"/>
      <point x="312" y="446"/>
      <point x="304" y="439" type="curve" smooth="yes"/>
      <point x="244" y="387" type="line"/>
      <point x="73" y="245" type="line" smooth="yes"/>
      <point x="42" y="220"/>
      <point x="42" y="177"/>
      <point x="74" y="152" type="curve" smooth="yes"/>
      <point x="143" y="98" type="line"/>
      <point x="126" y="62" type="line" smooth="yes"/>
      <point x="109" y="27"/>
      <point x="127" y="-12"/>
      <point x="165" y="-22" type="curve" smooth="yes"/>
      <point x="300" y="-57" type="line" smooth="yes"/>
      <point x="310" y="-60"/>
      <point x="327" y="-59"/>
      <point x="337" y="-55" type="curve" smooth="yes"/>
      <point x="508" y="12" type="line" smooth="yes"/>
      <point x="511" y="13"/>
      <point x="516" y="15"/>
      <point x="518" y="17" type="curve" smooth="yes"/>
      <point x="623" y="83" type="line" smooth="yes"/>
      <point x="627" y="86"/>
      <point x="631" y="89"/>
      <point x="635" y="93" type="curve"/>
      <point x="642" y="65" type="line" smooth="yes"/>
      <point x="643" y="64"/>
      <point x="643" y="61"/>
      <point x="644" y="60" type="curve" smooth="yes"/>
      <point x="674" y="-20" type="line" smooth="yes"/>
      <point x="685" y="-50"/>
      <point x="721" y="-67"/>
    </contour>
    <contour>
      <point x="501" y="521" type="curve" smooth="yes"/>
      <point x="472" y="600" type="line"/>
      <point x="507" y="702" type="line"/>
      <point x="556" y="735" type="line"/>
      <point x="621" y="741" type="line"/>
      <point x="650" y="741" type="line"/>
      <point x="662" y="702" type="line"/>
      <point x="637" y="621" type="line" smooth="yes"/>
      <point x="636" y="618"/>
      <point x="635" y="614"/>
      <point x="635" y="612" type="curve" smooth="yes"/>
      <point x="619" y="509" type="line"/>
      <point x="501" y="480" type="line"/>
      <point x="505" y="493"/>
      <point x="505" y="510"/>
    </contour>
    <contour>
      <point x="272" y="90" type="line" smooth="yes"/>
      <point x="283" y="114"/>
      <point x="275" y="147"/>
      <point x="254" y="163" type="curve" smooth="yes"/>
      <point x="207" y="200" type="line"/>
      <point x="322" y="296" type="line"/>
      <point x="368" y="336" type="line"/>
      <point x="377" y="336" type="line"/>
      <point x="399" y="294" type="line" smooth="yes"/>
      <point x="400" y="290"/>
      <point x="404" y="285"/>
      <point x="407" y="282" type="curve" smooth="yes"/>
      <point x="438" y="245" type="line"/>
      <point x="408" y="220"/>
      <point x="410" y="173"/>
      <point x="449" y="149" type="curve" smooth="yes"/>
      <point x="477" y="133" type="line"/>
      <point x="459" y="121" type="line"/>
      <point x="311" y="64" type="line"/>
      <point x="265" y="76" type="line"/>
    </contour>
  </outline>
</glyph>
<glyph name="asterisk" format="1">
  <advance width="581"/>
  <unicode hex="002A"/>
  <outline>
    <contour>
      <point x="475" y="248" type="curve" smooth="yes"/>
      <point x="504" y="263"/>
      <point x="516" y="300"/>
      <point x="502" y="329" type="curve" smooth="yes"/>
      <point x="469" y="395" type="line" smooth="yes"/>
      <point x="468" y="397"/>
      <point x="466" y="400"/>
      <point x="465" y="401" type="curve" smooth="yes"/>
      <point x="439" y="442" type="line"/>
      <point x="471" y="442" type="line" smooth="yes"/>
      <point x="503" y="442"/>
      <point x="531" y="470"/>
      <point x="531" y="502" type="curve" smooth="yes"/>
      <point x="531" y="534"/>
      <point x="503" y="562"/>
      <point x="471" y="562" type="curve" smooth="yes"/>
      <point x="307" y="562" type="line"/>
      <point x="307" y="603" type="line" smooth="yes"/>
      <point x="307" y="609"/>
      <point x="305" y="618"/>
      <point x="303" y="624" type="curve" smooth="yes"/>
      <point x="264" y="724" type="line" smooth="yes"/>
      <point x="252" y="754"/>
      <point x="216" y="770"/>
      <point x="186" y="758" type="curve" smooth="yes"/>
      <point x="156" y="746"/>
      <point x="140" y="710"/>
      <point x="152" y="680" type="curve" smooth="yes"/>
      <point x="187" y="590" type="line"/>
      <point x="187" y="562" type="line"/>
      <point x="171" y="562" type="line" smooth="yes"/>
      <point x="139" y="562"/>
      <point x="111" y="534"/>
      <point x="111" y="502" type="curve" smooth="yes"/>
      <point x="111" y="500"/>
      <point x="111" y="497"/>
      <point x="111" y="495" type="curve"/>
      <point x="65" y="441" type="line" smooth="yes"/>
      <point x="43" y="417"/>
      <point x="46" y="379"/>
      <point x="70" y="358" type="curve" smooth="yes"/>
      <point x="180" y="258" type="line" smooth="yes"/>
      <point x="204" y="236"/>
      <point x="243" y="238"/>
      <point x="264" y="262" type="curve" smooth="yes"/>
      <point x="286" y="286"/>
      <point x="284" y="325"/>
      <point x="260" y="346" type="curve" smooth="yes"/>
      <point x="194" y="407" type="line"/>
      <point x="222" y="439" type="line"/>
      <point x="331" y="388" type="line"/>
      <point x="363" y="339" type="line"/>
      <point x="394" y="275" type="line" smooth="yes"/>
      <point x="409" y="246"/>
      <point x="446" y="234"/>
    </contour>
  </outline>
</glyph>
<glyph name="plus" format="1">
  <advance width="664"/>
  <unicode hex="002B"/>
  <outline>
    <contour>
      <point x="285" y="98" type="curve" smooth="yes"/>
      <point x="323" y="187" type="line"/>
      <point x="403" y="262" type="line"/>
      <point x="554" y="262" type="line" smooth="yes"/>
      <point x="586" y="262"/>
      <point x="614" y="290"/>
      <point x="614" y="322" type="curve" smooth="yes"/>
      <point x="614" y="354"/>
      <point x="586" y="382"/>
      <point x="554" y="382" type="curve" smooth="yes"/>
      <point x="401" y="382" type="line"/>
      <point x="310" y="459" type="line"/>
      <point x="273" y="545" type="line" smooth="yes"/>
      <point x="261" y="575"/>
      <point x="225" y="590"/>
      <point x="195" y="577" type="curve" smooth="yes"/>
      <point x="165" y="565"/>
      <point x="150" y="529"/>
      <point x="163" y="499" type="curve" smooth="yes"/>
      <point x="205" y="399" type="line" smooth="yes"/>
      <point x="207" y="394"/>
      <point x="211" y="387"/>
      <point x="216" y="382" type="curve"/>
      <point x="110" y="382" type="line" smooth="yes"/>
      <point x="78" y="382"/>
      <point x="50" y="354"/>
      <point x="50" y="322" type="curve" smooth="yes"/>
      <point x="50" y="290"/>
      <point x="78" y="262"/>
      <point x="110" y="262" type="curve" smooth="yes"/>
      <point x="228" y="262" type="line"/>
      <point x="224" y="257"/>
      <point x="220" y="251"/>
      <point x="218" y="246" type="curve" smooth="yes"/>
      <point x="175" y="146" type="line" smooth="yes"/>
      <point x="162" y="116"/>
      <point x="177" y="80"/>
      <point x="206" y="67" type="curve" smooth="yes"/>
      <point x="236" y="54"/>
      <point x="272" y="69"/>
    </contour>
  </outline>
</glyph>
<glyph name="comma" format="1">
  <advance width="282"/>
  <unicode hex="002C"/>
  <outline>
    <contour>
      <point x="110" y="-118" type="curve" smooth="yes"/>
      <point x="172" y="-118" type="line" smooth="yes"/>
      <point x="207" y="-118"/>
      <point x="234" y="-89"/>
      <point x="232" y="-54" type="curve" smooth="yes"/>
      <point x="225" y="42" type="line"/>
      <point x="225" y="142" type="line" smooth="yes"/>
      <point x="225" y="174"/>
      <point x="197" y="202"/>
      <point x="165" y="202" type="curve" smooth="yes"/>
      <point x="133" y="202"/>
      <point x="105" y="174"/>
      <point x="105" y="142" type="curve" smooth="yes"/>
      <point x="105" y="42" type="line"/>
      <point x="108" y="2" type="line"/>
      <point x="78" y="2"/>
      <point x="50" y="-26"/>
      <point x="50" y="-58" type="curve" smooth="yes"/>
      <point x="50" y="-90"/>
      <point x="78" y="-118"/>
    </contour>
  </outline>
</glyph>
<glyph name="hyphen" format="1">
  <advance width="507"/>
  <unicode hex="002D"/>
  <outline>
    <contour>
      <point x="110" y="236" type="curve" smooth="yes"/>
      <point x="397" y="236" type="line" smooth="yes"/>
      <point x="429" y="236"/>
      <point x="457" y="264"/>
      <point x="457" y="296" type="curve" smooth="yes"/>
      <point x="457" y="328"/>
      <point x="429" y="356"/>
      <point x="397" y="356" type="curve" smooth="yes"/>
      <point x="110" y="356" type="line" smooth="yes"/>
      <point x="78" y="356"/>
      <point x="50" y="328"/>
      <point x="50" y="296" type="curve" smooth="yes"/>
      <point x="50" y="264"/>
      <point x="78" y="236"/>
    </contour>
  </outline>
</glyph>
<glyph name="period" format="1">
  <advance width="269"/>
  <unicode hex="002E"/>
  <outline>
    <contour>
      <point x="51" y="22" type="curve" smooth="yes"/>
      <point x="45" y="-10"/>
      <point x="66" y="-42"/>
      <point x="98" y="-49" type="curve" smooth="yes"/>
      <point x="147" y="-59" type="line" smooth="yes"/>
      <point x="179" y="-65"/>
      <point x="211" y="-44"/>
      <point x="218" y="-12" type="curve" smooth="yes"/>
      <point x="224" y="20"/>
      <point x="203" y="52"/>
      <point x="171" y="59" type="curve" smooth="yes"/>
      <point x="122" y="69" type="line" smooth="yes"/>
      <point x="90" y="75"/>
      <point x="58" y="54"/>
    </contour>
  </outline>
</glyph>
<glyph name="slash" format="1">
  <advance width="813"/>
  <unicode hex="002F"/>
  <outline>
    <contour>
      <point x="192" y="-49" type="curve" smooth="yes"/>
      <point x="219" y="-32"/>
      <point x="228" y="6"/>
      <point x="211" y="34" type="curve" smooth="yes"/>
      <point x="189" y="69" type="line"/>
      <point x="239" y="111" type="line"/>
      <point x="402" y="188" type="line" smooth="yes"/>
      <point x="406" y="190"/>
      <point x="412" y="194"/>
      <point x="416" y="197" type="curve" smooth="yes"/>
      <point x="507" y="277" type="line" smooth="yes"/>
      <point x="513" y="283"/>
      <point x="521" y="294"/>
      <point x="523" y="302" type="curve" smooth="yes"/>
      <point x="549" y="372" type="line"/>
      <point x="608" y="444" type="line" smooth="yes"/>
      <point x="617" y="456"/>
      <point x="623" y="477"/>
      <point x="620" y="492" type="curve" smooth="yes"/>
      <point x="605" y="576" type="line"/>
      <point x="598" y="609" type="line"/>
      <point x="722" y="668" type="line" smooth="yes"/>
      <point x="739" y="676"/>
      <point x="754" y="698"/>
      <point x="756" y="717" type="curve" smooth="yes"/>
      <point x="763" y="797" type="line" smooth="yes"/>
      <point x="766" y="829"/>
      <point x="741" y="859"/>
      <point x="708" y="862" type="curve" smooth="yes"/>
      <point x="676" y="865"/>
      <point x="646" y="840"/>
      <point x="643" y="807" type="curve" smooth="yes"/>
      <point x="639" y="761" type="line"/>
      <point x="502" y="696" type="line" smooth="yes"/>
      <point x="478" y="685"/>
      <point x="463" y="654"/>
      <point x="470" y="628" type="curve" smooth="yes"/>
      <point x="489" y="548" type="line"/>
      <point x="497" y="499" type="line"/>
      <point x="449" y="440" type="line" smooth="yes"/>
      <point x="446" y="435"/>
      <point x="441" y="428"/>
      <point x="440" y="422" type="curve" smooth="yes"/>
      <point x="416" y="357" type="line"/>
      <point x="343" y="293" type="line"/>
      <point x="181" y="216" type="line" smooth="yes"/>
      <point x="178" y="214"/>
      <point x="172" y="211"/>
      <point x="169" y="208" type="curve" smooth="yes"/>
      <point x="72" y="128" type="line" smooth="yes"/>
      <point x="49" y="110"/>
      <point x="44" y="75"/>
      <point x="59" y="50" type="curve" smooth="yes"/>
      <point x="109" y="-30" type="line" smooth="yes"/>
      <point x="126" y="-57"/>
      <point x="164" y="-66"/>
    </contour>
  </outline>
</glyph>
<glyph name="zero" format="1">
  <advance width="976"/>
  <unicode hex="0030"/>
  <outline>
    <contour>
      <point x="321" y="-58" type="curve" smooth="yes"/>
      <point x="571" y="-58" type="line" smooth="yes"/>
      <point x="574" y="-58"/>
      <point x="579" y="-58"/>
      <point x="582" y="-57" type="curve" smooth="yes"/>
      <point x="771" y="-21" type="line" smooth="yes"/>
      <point x="822" y="-11"/>
      <point x="839" y="44"/>
      <point x="802" y="81" type="curve" smooth="yes"/>
      <point x="776" y="107" type="line"/>
      <point x="850" y="150" type="line" smooth="yes"/>
      <point x="858" y="156"/>
      <point x="869" y="167"/>
      <point x="873" y="176" type="curve" smooth="yes"/>
      <point x="921" y="276" type="line" smooth="yes"/>
      <point x="933" y="302"/>
      <point x="924" y="335"/>
      <point x="901" y="352" type="curve" smooth="yes"/>
      <point x="781" y="433" type="line"/>
      <point x="782" y="480" type="line"/>
      <point x="849" y="562" type="line"/>
      <point x="898" y="612" type="line" smooth="yes"/>
      <point x="926" y="639"/>
      <point x="922" y="681"/>
      <point x="889" y="703" type="curve" smooth="yes"/>
      <point x="749" y="800" type="line" smooth="yes"/>
      <point x="744" y="803"/>
      <point x="736" y="807"/>
      <point x="730" y="808" type="curve" smooth="yes"/>
      <point x="529" y="860" type="line" smooth="yes"/>
      <point x="525" y="861"/>
      <point x="518" y="862"/>
      <point x="514" y="862" type="curve" smooth="yes"/>
      <point x="390" y="862" type="line" smooth="yes"/>
      <point x="384" y="862"/>
      <point x="374" y="860"/>
      <point x="368" y="858" type="curve" smooth="yes"/>
      <point x="274" y="822" type="line" smooth="yes"/>
      <point x="264" y="818"/>
      <point x="252" y="808"/>
      <point x="246" y="800" type="curve" smooth="yes"/>
      <point x="191" y="719" type="line" smooth="yes"/>
      <point x="187" y="714"/>
      <point x="183" y="705"/>
      <point x="182" y="699" type="curve" smooth="yes"/>
      <point x="166" y="634" type="line"/>
      <point x="70" y="546" type="line" smooth="yes"/>
      <point x="41" y="519"/>
      <point x="44" y="476"/>
      <point x="77" y="453" type="curve" smooth="yes"/>
      <point x="197" y="370" type="line"/>
      <point x="199" y="318" type="line"/>
      <point x="145" y="234" type="line" smooth="yes"/>
      <point x="134" y="217"/>
      <point x="134" y="189"/>
      <point x="144" y="171" type="curve" smooth="yes"/>
      <point x="165" y="137" type="line"/>
      <point x="105" y="111" type="line" smooth="yes"/>
      <point x="75" y="99"/>
      <point x="60" y="62"/>
      <point x="73" y="33" type="curve" smooth="yes"/>
      <point x="79" y="19"/>
      <point x="90" y="8"/>
      <point x="103" y="2" type="curve"/>
      <point x="112" y="-9"/>
      <point x="126" y="-18"/>
      <point x="144" y="-21" type="curve" smooth="yes"/>
      <point x="284" y="-45" type="line"/>
      <point x="294" y="-53"/>
      <point x="307" y="-58"/>
    </contour>
    <contour>
      <point x="316" y="404" type="line" smooth="yes"/>
      <point x="315" y="421"/>
      <point x="304" y="442"/>
      <point x="290" y="451" type="curve" smooth="yes"/>
      <point x="207" y="509" type="line"/>
      <point x="261" y="558" type="line" smooth="yes"/>
      <point x="268" y="565"/>
      <point x="276" y="578"/>
      <point x="278" y="588" type="curve" smooth="yes"/>
      <point x="296" y="660" type="line"/>
      <point x="334" y="716" type="line"/>
      <point x="401" y="742" type="line"/>
      <point x="506" y="742" type="line"/>
      <point x="621" y="712" type="line"/>
      <point x="623" y="707"/>
      <point x="626" y="702"/>
      <point x="629" y="698" type="curve" smooth="yes"/>
      <point x="645" y="677" type="line"/>
      <point x="574" y="635" type="line"/>
      <point x="451" y="559" type="line" smooth="yes"/>
      <point x="448" y="557"/>
      <point x="443" y="553"/>
      <point x="440" y="550" type="curve" smooth="yes"/>
      <point x="366" y="475" type="line" smooth="yes"/>
      <point x="339" y="448"/>
      <point x="343" y="407"/>
      <point x="373" y="384" type="curve" smooth="yes"/>
      <point x="386" y="375" type="line"/>
      <point x="318" y="350" type="line"/>
    </contour>
    <contour>
      <point x="329" y="76" type="line" smooth="yes"/>
      <point x="339" y="80"/>
      <point x="351" y="90"/>
      <point x="356" y="98" type="curve" smooth="yes"/>
      <point x="406" y="173" type="line" smooth="yes"/>
      <point x="418" y="191"/>
      <point x="418" y="221"/>
      <point x="407" y="239" type="curve" smooth="yes"/>
      <point x="399" y="252" type="line"/>
      <point x="531" y="301" type="line" smooth="yes"/>
      <point x="580" y="319"/>
      <point x="588" y="375"/>
      <point x="546" y="406" type="curve" smooth="yes"/>
      <point x="500" y="440" type="line"/>
      <point x="520" y="461" type="line"/>
      <point x="634" y="531" type="line"/>
      <point x="700" y="570" type="line"/>
      <point x="676" y="540" type="line" smooth="yes"/>
      <point x="668" y="531"/>
      <point x="662" y="514"/>
      <point x="662" y="503" type="curve" smooth="yes"/>
      <point x="661" y="403" type="line" smooth="yes"/>
      <point x="661" y="385"/>
      <point x="673" y="362"/>
      <point x="687" y="352" type="curve" smooth="yes"/>
      <point x="791" y="282" type="line"/>
      <point x="773" y="244" type="line"/>
      <point x="648" y="170" type="line" smooth="yes"/>
      <point x="613" y="149"/>
      <point x="607" y="105"/>
      <point x="636" y="76" type="curve" smooth="yes"/>
      <point x="637" y="76" type="line"/>
      <point x="565" y="62" type="line"/>
      <point x="372" y="62" type="line"/>
      <point x="318" y="71" type="line"/>
    </contour>
    <contour>
      <point x="273" y="190" type="line"/>
      <point x="266" y="201" type="line"/>
      <point x="278" y="218" type="line"/>
      <point x="285" y="207" type="line"/>
    </contour>
  </outline>
</glyph>
<glyph name="one" format="1">
  <advance width="880"/>
  <unicode hex="0031"/>
  <outline>
    <contour>
      <point x="250" y="-59" type="curve" smooth="yes"/>
      <point x="770" y="-59" type="line" smooth="yes"/>
      <point x="802" y="-59"/>
      <point x="830" y="-31"/>
      <point x="830" y="1" type="curve" smooth="yes"/>
      <point x="830" y="33"/>
      <point x="802" y="61"/>
      <point x="770" y="61" type="curve" smooth="yes"/>
      <point x="554" y="61" type="line"/>
      <point x="574" y="192" type="line" smooth="yes"/>
      <point x="576" y="201"/>
      <point x="574" y="216"/>
      <point x="570" y="225" type="curve" smooth="yes"/>
      <point x="528" y="322" type="line"/>
      <point x="509" y="381" type="line"/>
      <point x="598" y="455" type="line" smooth="yes"/>
      <point x="625" y="477"/>
      <point x="628" y="516"/>
      <point x="604" y="542" type="curve" smooth="yes"/>
      <point x="538" y="614" type="line"/>
      <point x="539" y="618" type="line"/>
      <point x="547" y="626"/>
      <point x="553" y="636"/>
      <point x="555" y="645" type="curve" smooth="yes"/>
      <point x="565" y="687" type="line" smooth="yes"/>
      <point x="583" y="761"/>
      <point x="479" y="794"/>
      <point x="451" y="723" type="curve" smooth="yes"/>
      <point x="445" y="707" type="line"/>
      <point x="301" y="667" type="line"/>
      <point x="260" y="661" type="line"/>
      <point x="110" y="661" type="line" smooth="yes"/>
      <point x="78" y="661"/>
      <point x="50" y="633"/>
      <point x="50" y="601" type="curve" smooth="yes"/>
      <point x="50" y="569"/>
      <point x="78" y="541"/>
      <point x="110" y="541" type="curve" smooth="yes"/>
      <point x="264" y="541" type="line" smooth="yes"/>
      <point x="266" y="541"/>
      <point x="270" y="541"/>
      <point x="272" y="542" type="curve" smooth="yes"/>
      <point x="322" y="549" type="line" smooth="yes"/>
      <point x="324" y="549"/>
      <point x="327" y="550"/>
      <point x="330" y="550" type="curve" smooth="yes"/>
      <point x="415" y="574" type="line"/>
      <point x="417" y="569"/>
      <point x="420" y="564"/>
      <point x="424" y="560" type="curve" smooth="yes"/>
      <point x="473" y="507" type="line"/>
      <point x="402" y="447" type="line" smooth="yes"/>
      <point x="384" y="433"/>
      <point x="376" y="404"/>
      <point x="383" y="383" type="curve" smooth="yes"/>
      <point x="415" y="283" type="line" smooth="yes"/>
      <point x="415" y="281"/>
      <point x="416" y="279"/>
      <point x="417" y="277" type="curve" smooth="yes"/>
      <point x="453" y="193" type="line"/>
      <point x="434" y="73" type="line"/>
      <point x="432" y="66" type="line"/>
      <point x="291" y="61" type="line"/>
      <point x="250" y="61" type="line" smooth="yes"/>
      <point x="218" y="61"/>
      <point x="190" y="33"/>
      <point x="190" y="1" type="curve" smooth="yes"/>
      <point x="190" y="-31"/>
      <point x="218" y="-59"/>
    </contour>
  </outline>
</glyph>
<glyph name="two" format="1">
  <advance width="996"/>
  <unicode hex="0032"/>
  <outline>
    <contour>
      <point x="113" y="-60" type="curve" smooth="yes"/>
      <point x="735" y="-60" type="line"/>
      <point x="735" y="60" type="line"/>
      <point x="303" y="60" type="line"/>
      <point x="328" y="86"/>
      <point x="325" y="124"/>
      <point x="294" y="148" type="curve" smooth="yes"/>
      <point x="221" y="203" type="line"/>
      <point x="325" y="295" type="line"/>
      <point x="386" y="340" type="line"/>
      <point x="565" y="340" type="line"/>
      <point x="565" y="341" type="line"/>
      <point x="780" y="347" type="line" smooth="yes"/>
      <point x="802" y="348"/>
      <point x="826" y="364"/>
      <point x="834" y="385" type="curve" smooth="yes"/>
      <point x="855" y="436" type="line" smooth="yes"/>
      <point x="858" y="444"/>
      <point x="859" y="457"/>
      <point x="859" y="465" type="curve" smooth="yes"/>
      <point x="848" y="566" type="line"/>
      <point x="912" y="599" type="line" smooth="yes"/>
      <point x="952" y="620"/>
      <point x="958" y="668"/>
      <point x="923" y="697" type="curve" smooth="yes"/>
      <point x="811" y="794" type="line" smooth="yes"/>
      <point x="807" y="797"/>
      <point x="800" y="801"/>
      <point x="796" y="803" type="curve" smooth="yes"/>
      <point x="677" y="855" type="line" smooth="yes"/>
      <point x="671" y="858"/>
      <point x="660" y="860"/>
      <point x="653" y="860" type="curve" smooth="yes"/>
      <point x="447" y="860" type="line"/>
      <point x="220" y="853" type="line" smooth="yes"/>
      <point x="162" y="851"/>
      <point x="138" y="789"/>
      <point x="180" y="749" type="curve" smooth="yes"/>
      <point x="215" y="716" type="line"/>
      <point x="212" y="602" type="line" smooth="yes"/>
      <point x="211" y="569"/>
      <point x="238" y="541"/>
      <point x="270" y="540" type="curve" smooth="yes"/>
      <point x="303" y="539"/>
      <point x="331" y="566"/>
      <point x="332" y="598" type="curve" smooth="yes"/>
      <point x="336" y="737" type="line"/>
      <point x="447" y="740" type="line"/>
      <point x="640" y="740" type="line"/>
      <point x="739" y="697" type="line"/>
      <point x="777" y="664" type="line"/>
      <point x="756" y="653" type="line" smooth="yes"/>
      <point x="736" y="643"/>
      <point x="722" y="616"/>
      <point x="724" y="594" type="curve" smooth="yes"/>
      <point x="738" y="467" type="line"/>
      <point x="737" y="466" type="line"/>
      <point x="513" y="460" type="line"/>
      <point x="366" y="460" type="line" smooth="yes"/>
      <point x="355" y="460"/>
      <point x="339" y="455"/>
      <point x="330" y="448" type="curve" smooth="yes"/>
      <point x="251" y="390" type="line" smooth="yes"/>
      <point x="250" y="389"/>
      <point x="248" y="388"/>
      <point x="247" y="387" type="curve" smooth="yes"/>
      <point x="87" y="245" type="line" smooth="yes"/>
      <point x="58" y="219"/>
      <point x="59" y="176"/>
      <point x="91" y="152" type="curve" smooth="yes"/>
      <point x="156" y="102" type="line"/>
      <point x="79" y="49" type="line" smooth="yes"/>
      <point x="27" y="13"/>
      <point x="49" y="-60"/>
    </contour>
  </outline>
</glyph>
<glyph name="three" format="1">
  <advance width="969"/>
  <unicode hex="0033"/>
  <outline>
    <contour>
      <point x="346" y="-59" type="curve" smooth="yes"/>
      <point x="563" y="-59" type="line" smooth="yes"/>
      <point x="573" y="-59"/>
      <point x="588" y="-54"/>
      <point x="596" y="-49" type="curve" smooth="yes"/>
      <point x="599" y="-47" type="line"/>
      <point x="767" y="2" type="line" smooth="yes"/>
      <point x="777" y="5"/>
      <point x="791" y="14"/>
      <point x="797" y="23" type="curve" smooth="yes"/>
      <point x="907" y="164" type="line" smooth="yes"/>
      <point x="927" y="191"/>
      <point x="922" y="230"/>
      <point x="894" y="250" type="curve" smooth="yes"/>
      <point x="785" y="328" type="line"/>
      <point x="750" y="374" type="line"/>
      <point x="771" y="379" type="line" smooth="yes"/>
      <point x="794" y="384"/>
      <point x="815" y="407"/>
      <point x="817" y="431" type="curve" smooth="yes"/>
      <point x="826" y="511" type="line" smooth="yes"/>
      <point x="827" y="525"/>
      <point x="821" y="545"/>
      <point x="812" y="556" type="curve" smooth="yes"/>
      <point x="750" y="631" type="line"/>
      <point x="705" y="760" type="line"/>
      <point x="690" y="811" type="line" smooth="yes"/>
      <point x="683" y="834"/>
      <point x="659" y="853"/>
      <point x="636" y="854" type="curve" smooth="yes"/>
      <point x="508" y="861" type="line" smooth="yes"/>
      <point x="507" y="861"/>
      <point x="506" y="861"/>
      <point x="505" y="861" type="curve" smooth="yes"/>
      <point x="320" y="861" type="line" smooth="yes"/>
      <point x="313" y="861"/>
      <point x="301" y="858"/>
      <point x="294" y="855" type="curve" smooth="yes"/>
      <point x="218" y="819" type="line" smooth="yes"/>
      <point x="197" y="810"/>
      <point x="182" y="783"/>
      <point x="184" y="761" type="curve" smooth="yes"/>
      <point x="187" y="717" type="line"/>
      <point x="79" y="652" type="line" smooth="yes"/>
      <point x="51" y="636"/>
      <point x="42" y="598"/>
      <point x="59" y="570" type="curve" smooth="yes"/>
      <point x="75" y="542"/>
      <point x="113" y="533"/>
      <point x="141" y="550" type="curve" smooth="yes"/>
      <point x="280" y="633" type="line" smooth="yes"/>
      <point x="297" y="643"/>
      <point x="310" y="668"/>
      <point x="309" y="689" type="curve" smooth="yes"/>
      <point x="306" y="728" type="line"/>
      <point x="333" y="741" type="line"/>
      <point x="503" y="741" type="line"/>
      <point x="587" y="736" type="line"/>
      <point x="590" y="725" type="line"/>
      <point x="640" y="581" type="line" smooth="yes"/>
      <point x="642" y="576"/>
      <point x="647" y="567"/>
      <point x="651" y="563" type="curve" smooth="yes"/>
      <point x="704" y="499" type="line"/>
      <point x="702" y="486" type="line"/>
      <point x="594" y="461" type="line"/>
      <point x="480" y="461" type="line"/>
      <point x="480" y="341" type="line"/>
      <point x="604" y="341" type="line"/>
      <point x="640" y="319" type="line"/>
      <point x="696" y="248" type="line" smooth="yes"/>
      <point x="699" y="244"/>
      <point x="704" y="239"/>
      <point x="708" y="236" type="curve" smooth="yes"/>
      <point x="774" y="188" type="line"/>
      <point x="714" y="111" type="line"/>
      <point x="557" y="66" type="line" smooth="yes"/>
      <point x="554" y="65"/>
      <point x="549" y="63"/>
      <point x="546" y="61" type="curve"/>
      <point x="364" y="61" type="line"/>
      <point x="324" y="87" type="line" smooth="yes"/>
      <point x="322" y="89"/>
      <point x="319" y="91"/>
      <point x="316" y="92" type="curve" smooth="yes"/>
      <point x="244" y="124" type="line"/>
      <point x="287" y="149" type="line" smooth="yes"/>
      <point x="314" y="166"/>
      <point x="324" y="204"/>
      <point x="308" y="232" type="curve" smooth="yes"/>
      <point x="291" y="259"/>
      <point x="253" y="269"/>
      <point x="225" y="253" type="curve" smooth="yes"/>
      <point x="84" y="169" type="line" smooth="yes"/>
      <point x="39" y="142"/>
      <point x="42" y="85"/>
      <point x="90" y="63" type="curve" smooth="yes"/>
      <point x="262" y="-16" type="line"/>
      <point x="313" y="-49" type="line" smooth="yes"/>
      <point x="321" y="-55"/>
      <point x="336" y="-59"/>
    </contour>
  </outline>
</glyph>
<glyph name="four" format="1">
  <advance width="931"/>
  <unicode hex="0034"/>
  <outline>
    <contour>
      <point x="743" y="-6" type="curve" smooth="yes"/>
      <point x="749" y="54" type="line"/>
      <point x="751" y="55"/>
      <point x="753" y="57"/>
      <point x="755" y="59" type="curve" smooth="yes"/>
      <point x="834" y="142" type="line" smooth="yes"/>
      <point x="859" y="169"/>
      <point x="856" y="209"/>
      <point x="826" y="231" type="curve" smooth="yes"/>
      <point x="725" y="309" type="line"/>
      <point x="759" y="361" type="line"/>
      <point x="862" y="456" type="line" smooth="yes"/>
      <point x="880" y="473"/>
      <point x="886" y="506"/>
      <point x="874" y="528" type="curve" smooth="yes"/>
      <point x="821" y="628" type="line" smooth="yes"/>
      <point x="806" y="657"/>
      <point x="768" y="668"/>
      <point x="740" y="653" type="curve" smooth="yes"/>
      <point x="711" y="638"/>
      <point x="700" y="600"/>
      <point x="715" y="572" type="curve" smooth="yes"/>
      <point x="746" y="513" type="line"/>
      <point x="672" y="444" type="line" smooth="yes"/>
      <point x="669" y="442"/>
      <point x="665" y="437"/>
      <point x="663" y="433" type="curve" smooth="yes"/>
      <point x="603" y="341" type="line"/>
      <point x="508" y="359" type="line" smooth="yes"/>
      <point x="505" y="360"/>
      <point x="500" y="360"/>
      <point x="497" y="360" type="curve" smooth="yes"/>
      <point x="189" y="360" type="line"/>
      <point x="181" y="374" type="line"/>
      <point x="223" y="421" type="line"/>
      <point x="346" y="499" type="line" smooth="yes"/>
      <point x="366" y="512"/>
      <point x="378" y="541"/>
      <point x="372" y="564" type="curve" smooth="yes"/>
      <point x="362" y="608" type="line"/>
      <point x="445" y="668" type="line"/>
      <point x="557" y="752" type="line" smooth="yes"/>
      <point x="583" y="771"/>
      <point x="588" y="810"/>
      <point x="569" y="836" type="curve" smooth="yes"/>
      <point x="550" y="862"/>
      <point x="511" y="867"/>
      <point x="485" y="848" type="curve" smooth="yes"/>
      <point x="375" y="765" type="line"/>
      <point x="259" y="682" type="line" smooth="yes"/>
      <point x="241" y="669"/>
      <point x="230" y="641"/>
      <point x="236" y="619" type="curve" smooth="yes"/>
      <point x="246" y="577" type="line"/>
      <point x="152" y="517" type="line" smooth="yes"/>
      <point x="148" y="515"/>
      <point x="142" y="510"/>
      <point x="139" y="507" type="curve" smooth="yes"/>
      <point x="64" y="423" type="line" smooth="yes"/>
      <point x="49" y="406"/>
      <point x="45" y="376"/>
      <point x="56" y="356" type="curve" smooth="yes"/>
      <point x="99" y="272" type="line" smooth="yes"/>
      <point x="108" y="255"/>
      <point x="132" y="240"/>
      <point x="152" y="240" type="curve" smooth="yes"/>
      <point x="491" y="240" type="line"/>
      <point x="655" y="209" type="line"/>
      <point x="673" y="190" type="line"/>
      <point x="641" y="129" type="line" smooth="yes"/>
      <point x="638" y="123"/>
      <point x="635" y="114"/>
      <point x="634" y="107" type="curve" smooth="yes"/>
      <point x="623" y="8" type="line" smooth="yes"/>
      <point x="620" y="-25"/>
      <point x="644" y="-55"/>
      <point x="676" y="-59" type="curve" smooth="yes"/>
      <point x="709" y="-62"/>
      <point x="739" y="-38"/>
    </contour>
  </outline>
</glyph>
<glyph name="five" format="1">
  <advance width="830"/>
  <unicode hex="0035"/>
  <outline>
    <contour>
      <point x="255" y="-59" type="curve" smooth="yes"/>
      <point x="512" y="-59" type="line"/>
      <point x="719" y="-52" type="line" smooth="yes"/>
      <point x="778" y="-50"/>
      <point x="801" y="13"/>
      <point x="757" y="53" type="curve" smooth="yes"/>
      <point x="721" y="85" type="line"/>
      <point x="726" y="186" type="line"/>
      <point x="762" y="258" type="line" smooth="yes"/>
      <point x="773" y="280"/>
      <point x="767" y="311"/>
      <point x="749" y="328" type="curve" smooth="yes"/>
      <point x="664" y="409" type="line" smooth="yes"/>
      <point x="661" y="411"/>
      <point x="656" y="415"/>
      <point x="653" y="417" type="curve" smooth="yes"/>
      <point x="591" y="453" type="line" smooth="yes"/>
      <point x="584" y="457"/>
      <point x="570" y="461"/>
      <point x="561" y="461" type="curve" smooth="yes"/>
      <point x="219" y="461" type="line"/>
      <point x="183" y="521" type="line"/>
      <point x="171" y="600" type="line"/>
      <point x="180" y="646" type="line"/>
      <point x="295" y="709" type="line"/>
      <point x="396" y="741" type="line"/>
      <point x="707" y="741" type="line" smooth="yes"/>
      <point x="739" y="741"/>
      <point x="767" y="769"/>
      <point x="767" y="801" type="curve" smooth="yes"/>
      <point x="767" y="833"/>
      <point x="739" y="861"/>
      <point x="707" y="861" type="curve" smooth="yes"/>
      <point x="387" y="861" type="line" smooth="yes"/>
      <point x="382" y="861"/>
      <point x="374" y="860"/>
      <point x="369" y="858" type="curve" smooth="yes"/>
      <point x="254" y="822" type="line" smooth="yes"/>
      <point x="250" y="821"/>
      <point x="245" y="819"/>
      <point x="242" y="817" type="curve" smooth="yes"/>
      <point x="97" y="737" type="line" smooth="yes"/>
      <point x="83" y="729"/>
      <point x="70" y="711"/>
      <point x="67" y="696" type="curve" smooth="yes"/>
      <point x="51" y="612" type="line" smooth="yes"/>
      <point x="50" y="607"/>
      <point x="50" y="597"/>
      <point x="51" y="592" type="curve" smooth="yes"/>
      <point x="67" y="492" type="line" smooth="yes"/>
      <point x="68" y="485"/>
      <point x="71" y="476"/>
      <point x="74" y="471" type="curve" smooth="yes"/>
      <point x="132" y="371" type="line" smooth="yes"/>
      <point x="142" y="354"/>
      <point x="165" y="341"/>
      <point x="184" y="341" type="curve" smooth="yes"/>
      <point x="545" y="341" type="line"/>
      <point x="586" y="317" type="line"/>
      <point x="635" y="271" type="line"/>
      <point x="613" y="227" type="line" smooth="yes"/>
      <point x="610" y="221"/>
      <point x="607" y="211"/>
      <point x="607" y="204" type="curve" smooth="yes"/>
      <point x="600" y="64" type="line"/>
      <point x="512" y="61" type="line"/>
      <point x="268" y="61" type="line"/>
      <point x="284" y="81" type="line" smooth="yes"/>
      <point x="300" y="102"/>
      <point x="299" y="136"/>
      <point x="282" y="156" type="curve" smooth="yes"/>
      <point x="211" y="240" type="line" smooth="yes"/>
      <point x="190" y="265"/>
      <point x="151" y="268"/>
      <point x="126" y="247" type="curve" smooth="yes"/>
      <point x="101" y="226"/>
      <point x="98" y="187"/>
      <point x="119" y="162" type="curve" smooth="yes"/>
      <point x="159" y="116" type="line"/>
      <point x="127" y="74" type="line" smooth="yes"/>
      <point x="102" y="41"/>
      <point x="113" y="-1"/>
      <point x="150" y="-18" type="curve" smooth="yes"/>
      <point x="230" y="-54" type="line" smooth="yes"/>
      <point x="237" y="-57"/>
      <point x="248" y="-59"/>
    </contour>
  </outline>
</glyph>
<glyph name="six" format="1">
  <advance width="983"/>
  <unicode hex="0036"/>
  <outline>
    <contour>
      <point x="348" y="-59" type="curve" smooth="yes"/>
      <point x="576" y="-59" type="line"/>
      <point x="754" y="-52" type="line" smooth="yes"/>
      <point x="768" y="-51"/>
      <point x="787" y="-42"/>
      <point x="796" y="-32" type="curve" smooth="yes"/>
      <point x="842" y="20" type="line" smooth="yes"/>
      <point x="846" y="25"/>
      <point x="852" y="34"/>
      <point x="854" y="40" type="curve" smooth="yes"/>
      <point x="900" y="181" type="line"/>
      <point x="930" y="264" type="line" smooth="yes"/>
      <point x="941" y="294"/>
      <point x="926" y="328"/>
      <point x="897" y="340" type="curve" smooth="yes"/>
      <point x="727" y="411" type="line"/>
      <point x="721" y="425" type="line" smooth="yes"/>
      <point x="712" y="445"/>
      <point x="688" y="461"/>
      <point x="666" y="461" type="curve" smooth="yes"/>
      <point x="430" y="461" type="line"/>
      <point x="360" y="491" type="line"/>
      <point x="234" y="550" type="line"/>
      <point x="231" y="571" type="line"/>
      <point x="331" y="633" type="line" smooth="yes"/>
      <point x="362" y="653"/>
      <point x="369" y="693"/>
      <point x="346" y="722" type="curve" smooth="yes"/>
      <point x="337" y="733" type="line"/>
      <point x="364" y="741" type="line"/>
      <point x="622" y="741" type="line"/>
      <point x="685" y="700" type="line"/>
      <point x="755" y="572" type="line" smooth="yes"/>
      <point x="771" y="544"/>
      <point x="809" y="533"/>
      <point x="837" y="548" type="curve" smooth="yes"/>
      <point x="865" y="564"/>
      <point x="876" y="602"/>
      <point x="861" y="630" type="curve" smooth="yes"/>
      <point x="782" y="772" type="line" smooth="yes"/>
      <point x="778" y="779"/>
      <point x="770" y="788"/>
      <point x="763" y="793" type="curve" smooth="yes"/>
      <point x="689" y="840" type="line"/>
      <point x="688" y="842" type="line" smooth="yes"/>
      <point x="678" y="852"/>
      <point x="659" y="861"/>
      <point x="644" y="861" type="curve" smooth="yes"/>
      <point x="355" y="861" type="line" smooth="yes"/>
      <point x="350" y="861"/>
      <point x="342" y="860"/>
      <point x="338" y="858" type="curve" smooth="yes"/>
      <point x="218" y="822" type="line" smooth="yes"/>
      <point x="175" y="809"/>
      <point x="160" y="763"/>
      <point x="188" y="728" type="curve" smooth="yes"/>
      <point x="210" y="700" type="line"/>
      <point x="137" y="654" type="line"/>
      <point x="119" y="663"/>
      <point x="96" y="663"/>
      <point x="78" y="652" type="curve" smooth="yes"/>
      <point x="51" y="635"/>
      <point x="42" y="597"/>
      <point x="59" y="569" type="curve" smooth="yes"/>
      <point x="111" y="486" type="line" smooth="yes"/>
      <point x="112" y="485"/>
      <point x="113" y="483"/>
      <point x="114" y="482" type="curve"/>
      <point x="97" y="416" type="line" smooth="yes"/>
      <point x="93" y="401"/>
      <point x="97" y="379"/>
      <point x="106" y="366" type="curve" smooth="yes"/>
      <point x="172" y="274" type="line"/>
      <point x="202" y="182" type="line" smooth="yes"/>
      <point x="203" y="179"/>
      <point x="205" y="174"/>
      <point x="207" y="171" type="curve" smooth="yes"/>
      <point x="246" y="104" type="line"/>
      <point x="240" y="43" type="line" smooth="yes"/>
      <point x="238" y="25"/>
      <point x="248" y="0"/>
      <point x="264" y="-11" type="curve" smooth="yes"/>
      <point x="312" y="-47" type="line" smooth="yes"/>
      <point x="321" y="-54"/>
      <point x="337" y="-59"/>
    </contour>
    <contour>
      <point x="572" y="61" type="line"/>
      <point x="368" y="61" type="line"/>
      <point x="363" y="65" type="line"/>
      <point x="368" y="111" type="line" smooth="yes"/>
      <point x="369" y="122"/>
      <point x="365" y="139"/>
      <point x="360" y="148" type="curve" smooth="yes"/>
      <point x="314" y="226" type="line"/>
      <point x="283" y="320" type="line" smooth="yes"/>
      <point x="281" y="325"/>
      <point x="278" y="332"/>
      <point x="275" y="336" type="curve" smooth="yes"/>
      <point x="220" y="413" type="line"/>
      <point x="223" y="423" type="line"/>
      <point x="309" y="383" type="line"/>
      <point x="393" y="346" type="line" smooth="yes"/>
      <point x="399" y="343"/>
      <point x="410" y="341"/>
      <point x="417" y="341" type="curve" smooth="yes"/>
      <point x="627" y="341" type="line"/>
      <point x="632" y="329"/>
      <point x="646" y="315"/>
      <point x="658" y="310" type="curve" smooth="yes"/>
      <point x="798" y="251" type="line"/>
      <point x="788" y="221" type="line"/>
      <point x="744" y="90" type="line"/>
      <point x="723" y="67" type="line"/>
    </contour>
  </outline>
</glyph>
<glyph name="seven" format="1">
  <advance width="905"/>
  <unicode hex="0037"/>
  <outline>
    <contour>
      <point x="372" y="-56" type="curve" smooth="yes"/>
      <point x="540" y="29" type="line" smooth="yes"/>
      <point x="555" y="37"/>
      <point x="569" y="55"/>
      <point x="572" y="71" type="curve" smooth="yes"/>
      <point x="585" y="139" type="line"/>
      <point x="658" y="212" type="line" smooth="yes"/>
      <point x="669" y="222"/>
      <point x="677" y="243"/>
      <point x="676" y="258" type="curve" smooth="yes"/>
      <point x="671" y="334" type="line"/>
      <point x="683" y="385" type="line"/>
      <point x="823" y="458" type="line" smooth="yes"/>
      <point x="841" y="468"/>
      <point x="856" y="493"/>
      <point x="855" y="513" type="curve" smooth="yes"/>
      <point x="852" y="599" type="line" smooth="yes"/>
      <point x="852" y="609"/>
      <point x="847" y="623"/>
      <point x="842" y="631" type="curve" smooth="yes"/>
      <point x="785" y="714" type="line"/>
      <point x="733" y="794" type="line" smooth="yes"/>
      <point x="729" y="800"/>
      <point x="720" y="809"/>
      <point x="714" y="813" type="curve" smooth="yes"/>
      <point x="653" y="849" type="line" smooth="yes"/>
      <point x="645" y="853"/>
      <point x="631" y="857"/>
      <point x="622" y="857" type="curve" smooth="yes"/>
      <point x="110" y="857" type="line" smooth="yes"/>
      <point x="78" y="857"/>
      <point x="50" y="829"/>
      <point x="50" y="797" type="curve" smooth="yes"/>
      <point x="50" y="765"/>
      <point x="78" y="737"/>
      <point x="110" y="737" type="curve" smooth="yes"/>
      <point x="606" y="737" type="line"/>
      <point x="640" y="716" type="line"/>
      <point x="686" y="647" type="line"/>
      <point x="733" y="578" type="line"/>
      <point x="734" y="547" type="line"/>
      <point x="604" y="479" type="line" smooth="yes"/>
      <point x="591" y="472"/>
      <point x="578" y="455"/>
      <point x="574" y="440" type="curve" smooth="yes"/>
      <point x="552" y="355" type="line" smooth="yes"/>
      <point x="551" y="350"/>
      <point x="550" y="341"/>
      <point x="550" y="336" type="curve" smooth="yes"/>
      <point x="554" y="277" type="line"/>
      <point x="488" y="211" type="line" smooth="yes"/>
      <point x="480" y="204"/>
      <point x="473" y="190"/>
      <point x="471" y="180" type="curve" smooth="yes"/>
      <point x="460" y="123" type="line"/>
      <point x="318" y="50" type="line" smooth="yes"/>
      <point x="289" y="36"/>
      <point x="277" y="-1"/>
      <point x="292" y="-30" type="curve" smooth="yes"/>
      <point x="306" y="-59"/>
      <point x="343" y="-71"/>
    </contour>
  </outline>
</glyph>
<glyph name="eight" format="1">
  <advance width="865"/>
  <unicode hex="0038"/>
  <outline>
    <contour>
      <point x="283" y="-60" type="curve" smooth="yes"/>
      <point x="464" y="-60" type="line" smooth="yes"/>
      <point x="465" y="-60"/>
      <point x="468" y="-60"/>
      <point x="469" y="-60" type="curve" smooth="yes"/>
      <point x="548" y="-53" type="line" smooth="yes"/>
      <point x="553" y="-52"/>
      <point x="562" y="-50"/>
      <point x="567" y="-48" type="curve" smooth="yes"/>
      <point x="682" y="4" type="line" smooth="yes"/>
      <point x="698" y="10"/>
      <point x="713" y="30"/>
      <point x="717" y="46" type="curve" smooth="yes"/>
      <point x="746" y="188" type="line" smooth="yes"/>
      <point x="748" y="197"/>
      <point x="747" y="212"/>
      <point x="743" y="220" type="curve" smooth="yes"/>
      <point x="726" y="269" type="line"/>
      <point x="776" y="323" type="line" smooth="yes"/>
      <point x="810" y="358"/>
      <point x="796" y="407"/>
      <point x="752" y="421" type="curve"/>
      <point x="757" y="426"/>
      <point x="761" y="433"/>
      <point x="763" y="439" type="curve" smooth="yes"/>
      <point x="812" y="580" type="line" smooth="yes"/>
      <point x="819" y="601"/>
      <point x="812" y="629"/>
      <point x="796" y="644" type="curve" smooth="yes"/>
      <point x="720" y="714" type="line"/>
      <point x="707" y="776" type="line" smooth="yes"/>
      <point x="705" y="786"/>
      <point x="698" y="800"/>
      <point x="690" y="807" type="curve" smooth="yes"/>
      <point x="653" y="843" type="line" smooth="yes"/>
      <point x="643" y="853"/>
      <point x="624" y="860"/>
      <point x="611" y="860" type="curve" smooth="yes"/>
      <point x="260" y="860" type="line" smooth="yes"/>
      <point x="227" y="860"/>
      <point x="208" y="840"/>
      <point x="201" y="816" type="curve"/>
      <point x="141" y="800" type="line" smooth="yes"/>
      <point x="121" y="794"/>
      <point x="101" y="774"/>
      <point x="97" y="753" type="curve" smooth="yes"/>
      <point x="69" y="612" type="line"/>
      <point x="54" y="527" type="line" smooth="yes"/>
      <point x="51" y="513"/>
      <point x="57" y="491"/>
      <point x="66" y="479" type="curve" smooth="yes"/>
      <point x="121" y="409" type="line"/>
      <point x="90" y="398" type="line" smooth="yes"/>
      <point x="63" y="389"/>
      <point x="46" y="359"/>
      <point x="51" y="331" type="curve" smooth="yes"/>
      <point x="76" y="193" type="line"/>
      <point x="85" y="123" type="line"/>
      <point x="62" y="55" type="line" smooth="yes"/>
      <point x="51" y="20"/>
      <point x="71" y="-15"/>
      <point x="106" y="-23" type="curve" smooth="yes"/>
      <point x="270" y="-59" type="line" smooth="yes"/>
      <point x="274" y="-59"/>
      <point x="279" y="-60"/>
    </contour>
    <contour>
      <point x="187" y="588" type="line"/>
      <point x="208" y="693" type="line"/>
      <point x="363" y="735" type="line" smooth="yes"/>
      <point x="368" y="736"/>
      <point x="372" y="738"/>
      <point x="376" y="740" type="curve"/>
      <point x="587" y="740" type="line"/>
      <point x="594" y="734" type="line"/>
      <point x="606" y="671" type="line" smooth="yes"/>
      <point x="608" y="661"/>
      <point x="616" y="647"/>
      <point x="624" y="639" type="curve" smooth="yes"/>
      <point x="685" y="583" type="line"/>
      <point x="654" y="492" type="line"/>
      <point x="626" y="466" type="line"/>
      <point x="501" y="460" type="line"/>
      <point x="420" y="460" type="line"/>
      <point x="209" y="492" type="line"/>
      <point x="177" y="533" type="line"/>
    </contour>
    <contour>
      <point x="203" y="98" type="line" smooth="yes"/>
      <point x="205" y="105"/>
      <point x="206" y="116"/>
      <point x="206" y="124" type="curve" smooth="yes"/>
      <point x="196" y="207" type="line"/>
      <point x="178" y="302" type="line"/>
      <point x="268" y="334" type="line"/>
      <point x="334" y="340" type="line"/>
      <point x="525" y="340" type="line"/>
      <point x="613" y="324" type="line"/>
      <point x="599" y="310"/>
      <point x="594" y="282"/>
      <point x="601" y="263" type="curve" smooth="yes"/>
      <point x="625" y="196" type="line"/>
      <point x="605" y="101" type="line"/>
      <point x="527" y="66" type="line"/>
      <point x="461" y="60" type="line"/>
      <point x="290" y="60" type="line"/>
      <point x="197" y="80" type="line"/>
    </contour>
  </outline>
</glyph>
<glyph name="nine" format="1">
  <advance width="906"/>
  <unicode hex="0039"/>
  <outline>
    <contour>
      <point x="594" y="458" type="line" smooth="yes"/>
      <point x="590" y="459"/>
      <point x="584" y="460"/>
      <point x="580" y="460" type="curve" smooth="yes"/>
      <point x="374" y="460" type="line"/>
      <point x="249" y="486" type="line"/>
      <point x="245" y="516" type="line"/>
      <point x="257" y="590" type="line" smooth="yes"/>
      <point x="259" y="602"/>
      <point x="256" y="621"/>
      <point x="249" y="631" type="curve" smooth="yes"/>
      <point x="201" y="710" type="line"/>
      <point x="269" y="734" type="line"/>
      <point x="351" y="740" type="line"/>
      <point x="396" y="740" type="line"/>
      <point x="574" y="740" type="line"/>
      <point x="610" y="715" type="line"/>
      <point x="660" y="684" type="line"/>
      <point x="605" y="652" type="line" smooth="yes"/>
      <point x="564" y="627"/>
      <point x="563" y="575"/>
      <point x="604" y="549" type="curve" smooth="yes"/>
      <point x="683" y="499" type="line"/>
      <point x="614" y="454" type="line"/>
    </contour>
    <contour>
      <point x="725" y="254" type="line"/>
      <point x="713" y="271" type="line"/>
      <point x="718" y="274" type="line"/>
      <point x="725" y="270" type="line"/>
    </contour>
    <contour>
      <point x="244" y="-60" type="curve" smooth="yes"/>
      <point x="596" y="-60" type="line" smooth="yes"/>
      <point x="608" y="-60"/>
      <point x="625" y="-54"/>
      <point x="634" y="-46" type="curve" smooth="yes"/>
      <point x="678" y="-10" type="line" smooth="yes"/>
      <point x="691" y="0"/>
      <point x="700" y="22"/>
      <point x="700" y="39" type="curve" smooth="yes"/>
      <point x="698" y="83" type="line"/>
      <point x="812" y="148" type="line" smooth="yes"/>
      <point x="828" y="157"/>
      <point x="841" y="179"/>
      <point x="842" y="197" type="curve" smooth="yes"/>
      <point x="847" y="297" type="line" smooth="yes"/>
      <point x="848" y="315"/>
      <point x="836" y="339"/>
      <point x="821" y="349" type="curve" smooth="yes"/>
      <point x="797" y="366" type="line"/>
      <point x="798" y="383"/>
      <point x="789" y="401"/>
      <point x="771" y="413" type="curve"/>
      <point x="827" y="450" type="line" smooth="yes"/>
      <point x="866" y="476"/>
      <point x="866" y="526"/>
      <point x="826" y="551" type="curve" smooth="yes"/>
      <point x="751" y="598" type="line"/>
      <point x="807" y="632" type="line" smooth="yes"/>
      <point x="849" y="657"/>
      <point x="849" y="709"/>
      <point x="807" y="735" type="curve" smooth="yes"/>
      <point x="679" y="813" type="line"/>
      <point x="627" y="849" type="line" smooth="yes"/>
      <point x="619" y="855"/>
      <point x="603" y="860"/>
      <point x="593" y="860" type="curve" smooth="yes"/>
      <point x="396" y="860" type="line"/>
      <point x="341" y="860" type="line"/>
      <point x="252" y="853" type="line" smooth="yes"/>
      <point x="248" y="853"/>
      <point x="241" y="851"/>
      <point x="237" y="850" type="curve" smooth="yes"/>
      <point x="91" y="798" type="line" smooth="yes"/>
      <point x="53" y="785"/>
      <point x="39" y="744"/>
      <point x="60" y="710" type="curve" smooth="yes"/>
      <point x="135" y="588" type="line"/>
      <point x="125" y="527" type="line" smooth="yes"/>
      <point x="124" y="521"/>
      <point x="124" y="513"/>
      <point x="125" y="507" type="curve" smooth="yes"/>
      <point x="137" y="427" type="line" smooth="yes"/>
      <point x="141" y="404"/>
      <point x="162" y="382"/>
      <point x="184" y="377" type="curve" smooth="yes"/>
      <point x="356" y="341" type="line" smooth="yes"/>
      <point x="359" y="341"/>
      <point x="365" y="340"/>
      <point x="368" y="340" type="curve" smooth="yes"/>
      <point x="573" y="340" type="line"/>
      <point x="600" y="334" type="line"/>
      <point x="596" y="330" type="line" smooth="yes"/>
      <point x="572" y="312"/>
      <point x="566" y="276"/>
      <point x="583" y="250" type="curve" smooth="yes"/>
      <point x="628" y="181" type="line"/>
      <point x="606" y="169" type="line" smooth="yes"/>
      <point x="589" y="159"/>
      <point x="575" y="134"/>
      <point x="576" y="114" type="curve" smooth="yes"/>
      <point x="578" y="63" type="line"/>
      <point x="574" y="60" type="line"/>
      <point x="295" y="60" type="line"/>
      <point x="293" y="68" type="line"/>
      <point x="278" y="207" type="line" smooth="yes"/>
      <point x="274" y="239"/>
      <point x="243" y="263"/>
      <point x="211" y="260" type="curve" smooth="yes"/>
      <point x="179" y="256"/>
      <point x="155" y="225"/>
      <point x="158" y="193" type="curve" smooth="yes"/>
      <point x="175" y="48" type="line"/>
      <point x="185" y="-10" type="line" smooth="yes"/>
      <point x="190" y="-38"/>
      <point x="216" y="-60"/>
    </contour>
  </outline>
</glyph>
<glyph name="colon" format="1">
  <advance width="409"/>
  <unicode hex="003A"/>
  <outline>
    <contour>
      <point x="70" y="580" type="curve" smooth="yes"/>
      <point x="72" y="547"/>
      <point x="101" y="521"/>
      <point x="133" y="523" type="curve" smooth="yes"/>
      <point x="298" y="532" type="line" smooth="yes"/>
      <point x="331" y="534"/>
      <point x="357" y="563"/>
      <point x="355" y="595" type="curve" smooth="yes"/>
      <point x="353" y="628"/>
      <point x="324" y="654"/>
      <point x="292" y="652" type="curve" smooth="yes"/>
      <point x="127" y="643" type="line" smooth="yes"/>
      <point x="94" y="641"/>
      <point x="68" y="612"/>
    </contour>
    <contour>
      <point x="359" y="0" type="curve" smooth="yes"/>
      <point x="360" y="32"/>
      <point x="333" y="60"/>
      <point x="300" y="61" type="curve" smooth="yes"/>
      <point x="111" y="65" type="line" smooth="yes"/>
      <point x="79" y="66"/>
      <point x="51" y="39"/>
      <point x="50" y="6" type="curve" smooth="yes"/>
      <point x="49" y="-26"/>
      <point x="76" y="-54"/>
      <point x="109" y="-55" type="curve" smooth="yes"/>
      <point x="298" y="-59" type="line" smooth="yes"/>
      <point x="330" y="-60"/>
      <point x="358" y="-33"/>
    </contour>
  </outline>
</glyph>
<glyph name="semicolon" format="1">
  <advance width="389"/>
  <unicode hex="003B"/>
  <outline>
    <contour>
      <point x="298" y="577" type="curve" smooth="yes"/>
      <point x="301" y="609"/>
      <point x="276" y="640"/>
      <point x="244" y="643" type="curve" smooth="yes"/>
      <point x="151" y="652" type="line" smooth="yes"/>
      <point x="119" y="655"/>
      <point x="88" y="630"/>
      <point x="85" y="598" type="curve" smooth="yes"/>
      <point x="82" y="566"/>
      <point x="107" y="535"/>
      <point x="139" y="532" type="curve" smooth="yes"/>
      <point x="232" y="523" type="line" smooth="yes"/>
      <point x="264" y="520"/>
      <point x="295" y="545"/>
    </contour>
    <contour>
      <point x="136" y="-68" type="curve" smooth="yes"/>
      <point x="211" y="-68" type="line" smooth="yes"/>
      <point x="229" y="-68"/>
      <point x="251" y="-56"/>
      <point x="261" y="-42" type="curve" smooth="yes"/>
      <point x="329" y="58" type="line" smooth="yes"/>
      <point x="348" y="87"/>
      <point x="340" y="126"/>
      <point x="310" y="144" type="curve" smooth="yes"/>
      <point x="141" y="244" type="line" smooth="yes"/>
      <point x="113" y="260"/>
      <point x="75" y="250"/>
      <point x="58" y="223" type="curve" smooth="yes"/>
      <point x="42" y="195"/>
      <point x="52" y="157"/>
      <point x="79" y="140" type="curve" smooth="yes"/>
      <point x="193" y="73" type="line"/>
      <point x="179" y="52" type="line"/>
      <point x="136" y="52" type="line" smooth="yes"/>
      <point x="104" y="52"/>
      <point x="76" y="24"/>
      <point x="76" y="-8" type="curve" smooth="yes"/>
      <point x="76" y="-40"/>
      <point x="104" y="-68"/>
    </contour>
  </outline>
</glyph>
<glyph name="less" format="1">
  <advance width="610"/>
  <unicode hex="003C"/>
  <outline>
    <contour>
      <point x="488" y="60" type="curve" smooth="yes"/>
      <point x="540" y="110" type="line" smooth="yes"/>
      <point x="575" y="144"/>
      <point x="563" y="195"/>
      <point x="516" y="210" type="curve" smooth="yes"/>
      <point x="358" y="260" type="line"/>
      <point x="253" y="295" type="line"/>
      <point x="259" y="298" type="line"/>
      <point x="373" y="348" type="line" smooth="yes"/>
      <point x="400" y="360"/>
      <point x="415" y="391"/>
      <point x="407" y="420" type="curve"/>
      <point x="474" y="448" type="line" smooth="yes"/>
      <point x="504" y="460"/>
      <point x="519" y="496"/>
      <point x="506" y="526" type="curve" smooth="yes"/>
      <point x="494" y="556"/>
      <point x="458" y="571"/>
      <point x="428" y="558" type="curve" smooth="yes"/>
      <point x="308" y="508" type="line" smooth="yes"/>
      <point x="280" y="497"/>
      <point x="265" y="464"/>
      <point x="274" y="435" type="curve"/>
      <point x="211" y="408" type="line"/>
      <point x="90" y="359" type="line" smooth="yes"/>
      <point x="41" y="338"/>
      <point x="36" y="281"/>
      <point x="81" y="252" type="curve" smooth="yes"/>
      <point x="159" y="202" type="line" smooth="yes"/>
      <point x="162" y="200"/>
      <point x="168" y="197"/>
      <point x="172" y="196" type="curve" smooth="yes"/>
      <point x="320" y="146" type="line"/>
      <point x="390" y="124" type="line"/>
      <point x="382" y="103"/>
      <point x="387" y="78"/>
      <point x="403" y="61" type="curve" smooth="yes"/>
      <point x="425" y="38"/>
      <point x="464" y="37"/>
    </contour>
  </outline>
</glyph>
<glyph name="greater" format="1">
  <advance width="725"/>
  <unicode hex="003E"/>
  <outline>
    <contour>
      <point x="135" y="66" type="curve" smooth="yes"/>
      <point x="242" y="116" type="line" smooth="yes"/>
      <point x="245" y="117"/>
      <point x="249" y="119"/>
      <point x="252" y="121" type="curve" smooth="yes"/>
      <point x="315" y="166" type="line"/>
      <point x="455" y="212" type="line"/>
      <point x="629" y="262" type="line" smooth="yes"/>
      <point x="692" y="281"/>
      <point x="690" y="363"/>
      <point x="626" y="378" type="curve" smooth="yes"/>
      <point x="433" y="424" type="line"/>
      <point x="399" y="461" type="line" smooth="yes"/>
      <point x="395" y="465"/>
      <point x="387" y="471"/>
      <point x="382" y="474" type="curve" smooth="yes"/>
      <point x="284" y="522" type="line"/>
      <point x="214" y="570" type="line" smooth="yes"/>
      <point x="187" y="588"/>
      <point x="148" y="580"/>
      <point x="130" y="554" type="curve" smooth="yes"/>
      <point x="112" y="527"/>
      <point x="120" y="488"/>
      <point x="146" y="470" type="curve" smooth="yes"/>
      <point x="220" y="420" type="line" smooth="yes"/>
      <point x="222" y="419"/>
      <point x="225" y="417"/>
      <point x="227" y="416" type="curve" smooth="yes"/>
      <point x="319" y="371" type="line"/>
      <point x="358" y="329" type="line" smooth="yes"/>
      <point x="363" y="323"/>
      <point x="373" y="318"/>
      <point x="381" y="314" type="curve"/>
      <point x="269" y="277" type="line" smooth="yes"/>
      <point x="264" y="275"/>
      <point x="257" y="272"/>
      <point x="253" y="269" type="curve" smooth="yes"/>
      <point x="187" y="222" type="line"/>
      <point x="85" y="174" type="line" smooth="yes"/>
      <point x="55" y="161"/>
      <point x="42" y="124"/>
      <point x="56" y="95" type="curve" smooth="yes"/>
      <point x="69" y="65"/>
      <point x="106" y="52"/>
    </contour>
  </outline>
</glyph>
<glyph name="question" format="1">
  <advance width="740"/>
  <unicode hex="003F"/>
  <outline>
    <contour>
      <point x="283" y="160" type="curve" smooth="yes"/>
      <point x="374" y="259" type="line" smooth="yes"/>
      <point x="397" y="284"/>
      <point x="396" y="318"/>
      <point x="374" y="340" type="curve"/>
      <point x="493" y="346" type="line" smooth="yes"/>
      <point x="504" y="347"/>
      <point x="519" y="353"/>
      <point x="528" y="359" type="curve" smooth="yes"/>
      <point x="593" y="411" type="line" smooth="yes"/>
      <point x="599" y="415"/>
      <point x="606" y="424"/>
      <point x="609" y="430" type="curve" smooth="yes"/>
      <point x="683" y="572" type="line" smooth="yes"/>
      <point x="697" y="600"/>
      <point x="688" y="635"/>
      <point x="661" y="651" type="curve" smooth="yes"/>
      <point x="567" y="709" type="line"/>
      <point x="579" y="744" type="line" smooth="yes"/>
      <point x="591" y="780"/>
      <point x="571" y="815"/>
      <point x="534" y="823" type="curve" smooth="yes"/>
      <point x="362" y="859" type="line" smooth="yes"/>
      <point x="357" y="860"/>
      <point x="349" y="860"/>
      <point x="344" y="860" type="curve" smooth="yes"/>
      <point x="276" y="853" type="line" smooth="yes"/>
      <point x="270" y="852"/>
      <point x="262" y="850"/>
      <point x="257" y="848" type="curve" smooth="yes"/>
      <point x="141" y="796" type="line" smooth="yes"/>
      <point x="128" y="791"/>
      <point x="114" y="776"/>
      <point x="109" y="763" type="curve" smooth="yes"/>
      <point x="54" y="621" type="line" smooth="yes"/>
      <point x="42" y="591"/>
      <point x="58" y="555"/>
      <point x="88" y="543" type="curve" smooth="yes"/>
      <point x="118" y="531"/>
      <point x="154" y="547"/>
      <point x="166" y="577" type="curve" smooth="yes"/>
      <point x="212" y="697" type="line"/>
      <point x="297" y="734" type="line"/>
      <point x="347" y="739" type="line"/>
      <point x="443" y="719" type="line"/>
      <point x="438" y="703" type="line" smooth="yes"/>
      <point x="429" y="678"/>
      <point x="440" y="646"/>
      <point x="463" y="632" type="curve" smooth="yes"/>
      <point x="551" y="578" type="line"/>
      <point x="509" y="497" type="line"/>
      <point x="468" y="465" type="line"/>
      <point x="344" y="459" type="line"/>
      <point x="173" y="459" type="line" smooth="yes"/>
      <point x="108" y="459"/>
      <point x="86" y="383"/>
      <point x="141" y="348" type="curve" smooth="yes"/>
      <point x="237" y="287" type="line"/>
      <point x="195" y="240" type="line" smooth="yes"/>
      <point x="173" y="217"/>
      <point x="175" y="178"/>
      <point x="199" y="156" type="curve" smooth="yes"/>
      <point x="222" y="134"/>
      <point x="261" y="136"/>
    </contour>
    <contour>
      <point x="390" y="-14" type="curve" smooth="yes"/>
      <point x="398" y="18"/>
      <point x="377" y="51"/>
      <point x="346" y="58" type="curve" smooth="yes"/>
      <point x="300" y="69" type="line" smooth="yes"/>
      <point x="268" y="77"/>
      <point x="235" y="56"/>
      <point x="228" y="25" type="curve" smooth="yes"/>
      <point x="220" y="-7"/>
      <point x="241" y="-40"/>
      <point x="272" y="-47" type="curve" smooth="yes"/>
      <point x="318" y="-58" type="line" smooth="yes"/>
      <point x="350" y="-66"/>
      <point x="383" y="-45"/>
    </contour>
  </outline>
</glyph>
<glyph name="at" format="1">
  <advance width="958"/>
  <unicode hex="0040"/>
  <outline>
    <contour>
      <point x="325" y="-102" type="curve" smooth="yes"/>
      <point x="561" y="-102" type="line" smooth="yes"/>
      <point x="593" y="-102"/>
      <point x="621" y="-74"/>
      <point x="621" y="-42" type="curve" smooth="yes"/>
      <point x="621" y="-10"/>
      <point x="593" y="18"/>
      <point x="561" y="18" type="curve" smooth="yes"/>
      <point x="334" y="18" type="line"/>
      <point x="321" y="22" type="line"/>
      <point x="331" y="32" type="line" smooth="yes"/>
      <point x="358" y="57"/>
      <point x="356" y="98"/>
      <point x="328" y="121" type="curve" smooth="yes"/>
      <point x="231" y="200" type="line"/>
      <point x="174" y="274" type="line"/>
      <point x="186" y="338" type="line"/>
      <point x="244" y="429" type="line" smooth="yes"/>
      <point x="255" y="446"/>
      <point x="255" y="474"/>
      <point x="244" y="492" type="curve" smooth="yes"/>
      <point x="209" y="551" type="line"/>
      <point x="262" y="599" type="line" smooth="yes"/>
      <point x="280" y="615"/>
      <point x="286" y="645"/>
      <point x="277" y="667" type="curve" smooth="yes"/>
      <point x="270" y="684" type="line"/>
      <point x="317" y="698" type="line"/>
      <point x="606" y="698" type="line"/>
      <point x="727" y="676" type="line"/>
      <point x="722" y="662" type="line"/>
      <point x="688" y="582" type="line" smooth="yes"/>
      <point x="686" y="578"/>
      <point x="685" y="573"/>
      <point x="684" y="568" type="curve"/>
      <point x="679" y="597"/>
      <point x="652" y="619"/>
      <point x="622" y="618" type="curve" smooth="yes"/>
      <point x="525" y="613" type="line"/>
      <point x="509" y="620"/>
      <point x="490" y="619"/>
      <point x="475" y="611" type="curve"/>
      <point x="472" y="611" type="line" smooth="yes"/>
      <point x="415" y="608"/>
      <point x="392" y="549"/>
      <point x="432" y="509" type="curve" smooth="yes"/>
      <point x="456" y="485" type="line"/>
      <point x="425" y="406" type="line"/>
      <point x="298" y="363" type="line" smooth="yes"/>
      <point x="245" y="345"/>
      <point x="238" y="284"/>
      <point x="286" y="255" type="curve" smooth="yes"/>
      <point x="442" y="159" type="line" smooth="yes"/>
      <point x="445" y="157"/>
      <point x="449" y="155"/>
      <point x="452" y="154" type="curve" smooth="yes"/>
      <point x="588" y="102" type="line" smooth="yes"/>
      <point x="603" y="96"/>
      <point x="623" y="98"/>
      <point x="639" y="107" type="curve"/>
      <point x="662" y="93"/>
      <point x="693" y="96"/>
      <point x="713" y="116" type="curve" smooth="yes"/>
      <point x="732" y="135"/>
      <point x="735" y="165"/>
      <point x="722" y="188" type="curve"/>
      <point x="884" y="311" type="line" smooth="yes"/>
      <point x="915" y="335"/>
      <point x="916" y="377"/>
      <point x="887" y="404" type="curve" smooth="yes"/>
      <point x="798" y="484" type="line"/>
      <point x="802" y="544" type="line"/>
      <point x="835" y="621" type="line"/>
      <point x="864" y="702" type="line" smooth="yes"/>
      <point x="877" y="738"/>
      <point x="856" y="774"/>
      <point x="818" y="781" type="curve" smooth="yes"/>
      <point x="622" y="817" type="line" smooth="yes"/>
      <point x="619" y="818"/>
      <point x="614" y="818"/>
      <point x="611" y="818" type="curve" smooth="yes"/>
      <point x="308" y="818" type="line" smooth="yes"/>
      <point x="303" y="818"/>
      <point x="296" y="817"/>
      <point x="291" y="816" type="curve" smooth="yes"/>
      <point x="171" y="780" type="line" smooth="yes"/>
      <point x="136" y="770"/>
      <point x="119" y="733"/>
      <point x="133" y="699" type="curve" smooth="yes"/>
      <point x="150" y="659" type="line"/>
      <point x="92" y="606" type="line" smooth="yes"/>
      <point x="71" y="588"/>
      <point x="67" y="554"/>
      <point x="81" y="531" type="curve" smooth="yes"/>
      <point x="122" y="462" type="line"/>
      <point x="78" y="392" type="line" smooth="yes"/>
      <point x="75" y="387"/>
      <point x="71" y="377"/>
      <point x="70" y="371" type="curve" smooth="yes"/>
      <point x="51" y="270" type="line" smooth="yes"/>
      <point x="48" y="255"/>
      <point x="53" y="234"/>
      <point x="63" y="222" type="curve" smooth="yes"/>
      <point x="141" y="121" type="line" smooth="yes"/>
      <point x="143" y="118"/>
      <point x="147" y="114"/>
      <point x="150" y="112" type="curve" smooth="yes"/>
      <point x="200" y="71" type="line"/>
      <point x="165" y="37" type="line" smooth="yes"/>
      <point x="130" y="3"/>
      <point x="142" y="-49"/>
      <point x="189" y="-63" type="curve" smooth="yes"/>
      <point x="307" y="-99" type="line" smooth="yes"/>
      <point x="312" y="-101"/>
      <point x="320" y="-102"/>
    </contour>
    <contour>
      <point x="680" y="524" type="line"/>
      <point x="676" y="526" type="line"/>
      <point x="678" y="530"/>
      <point x="680" y="534"/>
      <point x="681" y="538" type="curve"/>
    </contour>
    <contour>
      <point x="568" y="441" type="line"/>
      <point x="571" y="449" type="line"/>
      <point x="574" y="447" type="line"/>
    </contour>
    <contour>
      <point x="637" y="274" type="line"/>
      <point x="627" y="284" type="line"/>
      <point x="627" y="332" type="line"/>
      <point x="705" y="405" type="line"/>
      <point x="753" y="363" type="line"/>
    </contour>
    <contour>
      <point x="490" y="301" type="line" smooth="yes"/>
      <point x="496" y="303"/>
      <point x="502" y="306"/>
      <point x="507" y="311" type="curve"/>
      <point x="508" y="261" type="line"/>
      <point x="500" y="264" type="line"/>
      <point x="457" y="290" type="line"/>
    </contour>
  </outline>
</glyph>
<glyph name="A" format="1">
  <advance width="883"/>
  <unicode hex="0041"/>
  <outline>
    <contour>
      <point x="391" y="404" type="curve" smooth="yes"/>
      <point x="274" y="376" type="line"/>
      <point x="273" y="394" type="line"/>
      <point x="292" y="488" type="line" smooth="yes"/>
      <point x="296" y="507"/>
      <point x="286" y="533"/>
      <point x="271" y="546" type="curve" smooth="yes"/>
      <point x="174" y="625" type="line"/>
      <point x="181" y="673" type="line"/>
      <point x="185" y="709" type="line"/>
      <point x="353" y="736" type="line"/>
      <point x="511" y="736" type="line"/>
      <point x="595" y="719" type="line"/>
      <point x="591" y="714" type="line" smooth="yes"/>
      <point x="570" y="686"/>
      <point x="578" y="647"/>
      <point x="608" y="628" type="curve" smooth="yes"/>
      <point x="670" y="589" type="line"/>
      <point x="618" y="545" type="line" smooth="yes"/>
      <point x="592" y="523"/>
      <point x="589" y="485"/>
      <point x="613" y="459" type="curve" smooth="yes"/>
      <point x="661" y="405" type="line"/>
      <point x="653" y="406"/>
      <point x="653" y="406"/>
      <point x="653" y="406" type="curve"/>
      <point x="405" y="406" type="line" smooth="yes"/>
      <point x="401" y="406"/>
      <point x="395" y="405"/>
    </contour>
    <contour>
      <point x="174" y="-52" type="curve" smooth="yes"/>
      <point x="280" y="25" type="line" smooth="yes"/>
      <point x="307" y="44"/>
      <point x="313" y="82"/>
      <point x="292" y="109" type="curve" smooth="yes"/>
      <point x="258" y="154" type="line"/>
      <point x="263" y="160" type="line" smooth="yes"/>
      <point x="270" y="169"/>
      <point x="276" y="185"/>
      <point x="276" y="197" type="curve" smooth="yes"/>
      <point x="277" y="253" type="line"/>
      <point x="280" y="255" type="line"/>
      <point x="412" y="286" type="line"/>
      <point x="646" y="286" type="line"/>
      <point x="637" y="271" type="line" smooth="yes"/>
      <point x="627" y="255"/>
      <point x="626" y="227"/>
      <point x="636" y="210" type="curve" smooth="yes"/>
      <point x="682" y="130" type="line"/>
      <point x="622" y="74" type="line" smooth="yes"/>
      <point x="601" y="54"/>
      <point x="597" y="18"/>
      <point x="615" y="-5" type="curve" smooth="yes"/>
      <point x="640" y="-40" type="line" smooth="yes"/>
      <point x="659" y="-66"/>
      <point x="697" y="-72"/>
      <point x="724" y="-52" type="curve" smooth="yes"/>
      <point x="747" y="-35"/>
      <point x="754" y="-3"/>
      <point x="742" y="22" type="curve"/>
      <point x="798" y="74" type="line" smooth="yes"/>
      <point x="817" y="92"/>
      <point x="822" y="125"/>
      <point x="809" y="148" type="curve" smooth="yes"/>
      <point x="758" y="238" type="line"/>
      <point x="822" y="342" type="line" smooth="yes"/>
      <point x="835" y="363"/>
      <point x="832" y="396"/>
      <point x="815" y="414" type="curve" smooth="yes"/>
      <point x="743" y="494" type="line"/>
      <point x="811" y="550" type="line" smooth="yes"/>
      <point x="844" y="578"/>
      <point x="841" y="624"/>
      <point x="804" y="647" type="curve" smooth="yes"/>
      <point x="726" y="696" type="line"/>
      <point x="747" y="724" type="line" smooth="yes"/>
      <point x="775" y="763"/>
      <point x="757" y="809"/>
      <point x="710" y="819" type="curve" smooth="yes"/>
      <point x="529" y="855" type="line" smooth="yes"/>
      <point x="526" y="855"/>
      <point x="520" y="856"/>
      <point x="517" y="856" type="curve" smooth="yes"/>
      <point x="348" y="856" type="line" smooth="yes"/>
      <point x="345" y="856"/>
      <point x="341" y="856"/>
      <point x="338" y="855" type="curve" smooth="yes"/>
      <point x="120" y="820" type="line" smooth="yes"/>
      <point x="94" y="816"/>
      <point x="72" y="792"/>
      <point x="69" y="766" type="curve" smooth="yes"/>
      <point x="62" y="690" type="line"/>
      <point x="51" y="609" type="line" smooth="yes"/>
      <point x="48" y="590"/>
      <point x="58" y="565"/>
      <point x="72" y="554" type="curve" smooth="yes"/>
      <point x="167" y="476" type="line"/>
      <point x="154" y="410" type="line" smooth="yes"/>
      <point x="153" y="407"/>
      <point x="153" y="400"/>
      <point x="153" y="396" type="curve" smooth="yes"/>
      <point x="156" y="318" type="line"/>
      <point x="100" y="282" type="line" smooth="yes"/>
      <point x="72" y="264"/>
      <point x="64" y="227"/>
      <point x="82" y="199" type="curve" smooth="yes"/>
      <point x="109" y="158" type="line"/>
      <point x="90" y="134" type="line" smooth="yes"/>
      <point x="83" y="124"/>
      <point x="77" y="107"/>
      <point x="77" y="95" type="curve" smooth="yes"/>
      <point x="79" y="-5" type="line" smooth="yes"/>
      <point x="80" y="-58"/>
      <point x="132" y="-84"/>
    </contour>
  </outline>
</glyph>
<glyph name="B" format="1">
  <advance width="983"/>
  <unicode hex="0042"/>
  <outline>
    <contour>
      <point x="395" y="-56" type="curve" smooth="yes"/>
      <point x="560" y="-56" type="line" smooth="yes"/>
      <point x="564" y="-56"/>
      <point x="571" y="-55"/>
      <point x="575" y="-54" type="curve" smooth="yes"/>
      <point x="602" y="-47" type="line"/>
      <point x="810" y="4" type="line" smooth="yes"/>
      <point x="829" y="9"/>
      <point x="848" y="27"/>
      <point x="854" y="46" type="curve" smooth="yes"/>
      <point x="894" y="188" type="line" smooth="yes"/>
      <point x="901" y="212"/>
      <point x="889" y="242"/>
      <point x="867" y="255" type="curve" smooth="yes"/>
      <point x="808" y="291" type="line"/>
      <point x="847" y="319" type="line" smooth="yes"/>
      <point x="895" y="353"/>
      <point x="880" y="418"/>
      <point x="823" y="427" type="curve"/>
      <point x="827" y="450" type="line"/>
      <point x="867" y="579" type="line"/>
      <point x="921" y="654" type="line" smooth="yes"/>
      <point x="942" y="684"/>
      <point x="933" y="723"/>
      <point x="901" y="741" type="curve" smooth="yes"/>
      <point x="758" y="821" type="line" smooth="yes"/>
      <point x="755" y="823"/>
      <point x="748" y="826"/>
      <point x="744" y="827" type="curve" smooth="yes"/>
      <point x="602" y="862" type="line" smooth="yes"/>
      <point x="598" y="863"/>
      <point x="591" y="864"/>
      <point x="587" y="864" type="curve" smooth="yes"/>
      <point x="337" y="864" type="line" smooth="yes"/>
      <point x="327" y="864"/>
      <point x="313" y="860"/>
      <point x="305" y="855" type="curve" smooth="yes"/>
      <point x="249" y="819" type="line"/>
      <point x="122" y="741" type="line" smooth="yes"/>
      <point x="114" y="736"/>
      <point x="105" y="726"/>
      <point x="100" y="718" type="curve" smooth="yes"/>
      <point x="56" y="637" type="line" smooth="yes"/>
      <point x="45" y="616"/>
      <point x="49" y="585"/>
      <point x="65" y="567" type="curve" smooth="yes"/>
      <point x="125" y="502" type="line"/>
      <point x="80" y="441" type="line" smooth="yes"/>
      <point x="65" y="421"/>
      <point x="65" y="389"/>
      <point x="80" y="369" type="curve" smooth="yes"/>
      <point x="133" y="297" type="line"/>
      <point x="101" y="228" type="line" smooth="yes"/>
      <point x="99" y="223"/>
      <point x="96" y="216"/>
      <point x="96" y="211" type="curve" smooth="yes"/>
      <point x="75" y="69" type="line" smooth="yes"/>
      <point x="71" y="39"/>
      <point x="91" y="10"/>
      <point x="120" y="2" type="curve" smooth="yes"/>
      <point x="321" y="-48" type="line" smooth="yes"/>
      <point x="323" y="-49"/>
      <point x="327" y="-49"/>
      <point x="329" y="-49" type="curve" smooth="yes"/>
      <point x="389" y="-56" type="line" smooth="yes"/>
      <point x="391" y="-56"/>
      <point x="393" y="-56"/>
    </contour>
    <contour>
      <point x="525" y="464" type="line" smooth="yes"/>
      <point x="523" y="464"/>
      <point x="520" y="464"/>
      <point x="518" y="464" type="curve" smooth="yes"/>
      <point x="246" y="464" type="line"/>
      <point x="251" y="471" type="line" smooth="yes"/>
      <point x="268" y="493"/>
      <point x="266" y="527"/>
      <point x="247" y="547" type="curve" smooth="yes"/>
      <point x="182" y="617" type="line"/>
      <point x="198" y="647" type="line"/>
      <point x="314" y="718" type="line"/>
      <point x="354" y="744" type="line"/>
      <point x="580" y="744" type="line"/>
      <point x="707" y="712" type="line"/>
      <point x="784" y="669" type="line"/>
      <point x="764" y="641" type="line" smooth="yes"/>
      <point x="761" y="636"/>
      <point x="757" y="629"/>
      <point x="756" y="624" type="curve" smooth="yes"/>
      <point x="711" y="482" type="line" smooth="yes"/>
      <point x="710" y="479"/>
      <point x="709" y="475"/>
      <point x="709" y="472" type="curve" smooth="yes"/>
      <point x="708" y="470" type="line"/>
      <point x="535" y="464" type="line" smooth="yes"/>
      <point x="533" y="464"/>
      <point x="530" y="464"/>
      <point x="528" y="463" type="curve"/>
    </contour>
    <contour>
      <point x="571" y="69" type="line"/>
      <point x="552" y="64" type="line"/>
      <point x="398" y="64" type="line"/>
      <point x="346" y="69" type="line"/>
      <point x="201" y="105" type="line"/>
      <point x="213" y="184" type="line"/>
      <point x="257" y="278" type="line" smooth="yes"/>
      <point x="266" y="296"/>
      <point x="263" y="323"/>
      <point x="251" y="339" type="curve" smooth="yes"/>
      <point x="248" y="344" type="line"/>
      <point x="514" y="344" type="line"/>
      <point x="653" y="327" type="line"/>
      <point x="626" y="299"/>
      <point x="631" y="258"/>
      <point x="667" y="236" type="curve" smooth="yes"/>
      <point x="766" y="176" type="line"/>
      <point x="748" y="112" type="line"/>
    </contour>
  </outline>
</glyph>
<glyph name="C" format="1">
  <advance width="931"/>
  <unicode hex="0043"/>
  <outline>
    <contour>
      <point x="417" y="-62" type="curve" smooth="yes"/>
      <point x="525" y="-62" type="line"/>
      <point x="755" y="-55" type="line" smooth="yes"/>
      <point x="766" y="-55"/>
      <point x="781" y="-49"/>
      <point x="789" y="-43" type="curve" smooth="yes"/>
      <point x="858" y="8" type="line" smooth="yes"/>
      <point x="879" y="24"/>
      <point x="887" y="56"/>
      <point x="877" y="79" type="curve" smooth="yes"/>
      <point x="818" y="221" type="line" smooth="yes"/>
      <point x="806" y="251"/>
      <point x="770" y="266"/>
      <point x="740" y="253" type="curve" smooth="yes"/>
      <point x="710" y="241"/>
      <point x="695" y="205"/>
      <point x="708" y="175" type="curve" smooth="yes"/>
      <point x="749" y="76" type="line"/>
      <point x="733" y="64" type="line"/>
      <point x="525" y="58" type="line"/>
      <point x="436" y="58" type="line"/>
      <point x="381" y="97" type="line"/>
      <point x="298" y="224" type="line"/>
      <point x="257" y="321" type="line" smooth="yes"/>
      <point x="255" y="326"/>
      <point x="250" y="334"/>
      <point x="246" y="338" type="curve" smooth="yes"/>
      <point x="192" y="398" type="line"/>
      <point x="250" y="459" type="line" smooth="yes"/>
      <point x="257" y="467"/>
      <point x="264" y="482"/>
      <point x="265" y="492" type="curve" smooth="yes"/>
      <point x="279" y="594" type="line" smooth="yes"/>
      <point x="281" y="604"/>
      <point x="278" y="620"/>
      <point x="274" y="629" type="curve" smooth="yes"/>
      <point x="257" y="662" type="line"/>
      <point x="329" y="707" type="line"/>
      <point x="446" y="738" type="line"/>
      <point x="662" y="738" type="line"/>
      <point x="675" y="734" type="line"/>
      <point x="664" y="721" type="line" smooth="yes"/>
      <point x="645" y="700"/>
      <point x="644" y="666"/>
      <point x="662" y="644" type="curve" smooth="yes"/>
      <point x="729" y="560" type="line" smooth="yes"/>
      <point x="750" y="535"/>
      <point x="789" y="531"/>
      <point x="814" y="551" type="curve" smooth="yes"/>
      <point x="839" y="572"/>
      <point x="843" y="611"/>
      <point x="823" y="636" type="curve" smooth="yes"/>
      <point x="787" y="680" type="line"/>
      <point x="825" y="722" type="line" smooth="yes"/>
      <point x="856" y="757"/>
      <point x="843" y="804"/>
      <point x="799" y="819" type="curve" smooth="yes"/>
      <point x="691" y="855" type="line" smooth="yes"/>
      <point x="686" y="857"/>
      <point x="677" y="858"/>
      <point x="672" y="858" type="curve" smooth="yes"/>
      <point x="438" y="858" type="line" smooth="yes"/>
      <point x="434" y="858"/>
      <point x="427" y="857"/>
      <point x="423" y="856" type="curve" smooth="yes"/>
      <point x="289" y="821" type="line" smooth="yes"/>
      <point x="284" y="819"/>
      <point x="277" y="816"/>
      <point x="272" y="814" type="curve" smooth="yes"/>
      <point x="147" y="735" type="line" smooth="yes"/>
      <point x="122" y="719"/>
      <point x="112" y="684"/>
      <point x="126" y="657" type="curve" smooth="yes"/>
      <point x="158" y="592" type="line"/>
      <point x="149" y="528" type="line"/>
      <point x="66" y="440" type="line" smooth="yes"/>
      <point x="45" y="418"/>
      <point x="45" y="381"/>
      <point x="66" y="359" type="curve" smooth="yes"/>
      <point x="151" y="265" type="line"/>
      <point x="190" y="173" type="line" smooth="yes"/>
      <point x="191" y="170"/>
      <point x="193" y="166"/>
      <point x="195" y="163" type="curve" smooth="yes"/>
      <point x="287" y="22" type="line" smooth="yes"/>
      <point x="290" y="16"/>
      <point x="297" y="9"/>
      <point x="303" y="5" type="curve" smooth="yes"/>
      <point x="382" y="-51" type="line" smooth="yes"/>
      <point x="391" y="-57"/>
      <point x="406" y="-62"/>
    </contour>
  </outline>
</glyph>
<glyph name="D" format="1">
  <advance width="981"/>
  <unicode hex="0044"/>
  <outline>
    <contour>
      <point x="222" y="-61" type="curve" smooth="yes"/>
      <point x="639" y="-61" type="line" smooth="yes"/>
      <point x="642" y="-61"/>
      <point x="647" y="-61"/>
      <point x="650" y="-60" type="curve" smooth="yes"/>
      <point x="688" y="-53" type="line" smooth="yes"/>
      <point x="698" y="-51"/>
      <point x="712" y="-44"/>
      <point x="719" y="-37" type="curve" smooth="yes"/>
      <point x="772" y="14" type="line" smooth="yes"/>
      <point x="776" y="19"/>
      <point x="782" y="27"/>
      <point x="785" y="33" type="curve" smooth="yes"/>
      <point x="845" y="168" type="line"/>
      <point x="918" y="262" type="line" smooth="yes"/>
      <point x="935" y="283"/>
      <point x="934" y="317"/>
      <point x="917" y="337" type="curve" smooth="yes"/>
      <point x="845" y="424" type="line"/>
      <point x="832" y="508" type="line" smooth="yes"/>
      <point x="828" y="540"/>
      <point x="796" y="563"/>
      <point x="764" y="558" type="curve" smooth="yes"/>
      <point x="756" y="557"/>
      <point x="749" y="554"/>
      <point x="742" y="550" type="curve"/>
      <point x="753" y="557"/>
      <point x="761" y="568"/>
      <point x="765" y="581" type="curve" smooth="yes"/>
      <point x="791" y="665" type="line" smooth="yes"/>
      <point x="792" y="668"/>
      <point x="793" y="673"/>
      <point x="793" y="676" type="curve" smooth="yes"/>
      <point x="802" y="757" type="line" smooth="yes"/>
      <point x="804" y="775"/>
      <point x="794" y="799"/>
      <point x="779" y="810" type="curve" smooth="yes"/>
      <point x="733" y="846" type="line" smooth="yes"/>
      <point x="724" y="853"/>
      <point x="707" y="859"/>
      <point x="696" y="859" type="curve" smooth="yes"/>
      <point x="261" y="859" type="line" smooth="yes"/>
      <point x="233" y="859"/>
      <point x="207" y="837"/>
      <point x="202" y="810" type="curve" smooth="yes"/>
      <point x="186" y="720" type="line"/>
      <point x="132" y="630" type="line" smooth="yes"/>
      <point x="123" y="615"/>
      <point x="121" y="590"/>
      <point x="128" y="574" type="curve" smooth="yes"/>
      <point x="163" y="498" type="line"/>
      <point x="130" y="423" type="line" smooth="yes"/>
      <point x="125" y="411"/>
      <point x="124" y="392"/>
      <point x="128" y="380" type="curve" smooth="yes"/>
      <point x="153" y="307" type="line"/>
      <point x="105" y="231" type="line" smooth="yes"/>
      <point x="104" y="229"/>
      <point x="103" y="226"/>
      <point x="102" y="225" type="curve" smooth="yes"/>
      <point x="55" y="125" type="line" smooth="yes"/>
      <point x="44" y="102"/>
      <point x="51" y="71"/>
      <point x="69" y="54" type="curve" smooth="yes"/>
      <point x="182" y="-46" type="line" smooth="yes"/>
      <point x="192" y="-54"/>
      <point x="209" y="-61"/>
    </contour>
    <contour>
      <point x="270" y="267" type="line" smooth="yes"/>
      <point x="278" y="280"/>
      <point x="281" y="303"/>
      <point x="276" y="318" type="curve" smooth="yes"/>
      <point x="249" y="396" type="line"/>
      <point x="284" y="475" type="line" smooth="yes"/>
      <point x="290" y="488"/>
      <point x="290" y="511"/>
      <point x="284" y="524" type="curve" smooth="yes"/>
      <point x="251" y="595" type="line"/>
      <point x="294" y="668" type="line" smooth="yes"/>
      <point x="298" y="673"/>
      <point x="301" y="682"/>
      <point x="302" y="688" type="curve" smooth="yes"/>
      <point x="311" y="739" type="line"/>
      <point x="675" y="739" type="line"/>
      <point x="679" y="736" type="line"/>
      <point x="674" y="694" type="line"/>
      <point x="651" y="617" type="line" smooth="yes"/>
      <point x="641" y="586"/>
      <point x="659" y="551"/>
      <point x="690" y="542" type="curve" smooth="yes"/>
      <point x="707" y="536"/>
      <point x="725" y="540"/>
      <point x="739" y="548" type="curve"/>
      <point x="721" y="536"/>
      <point x="710" y="513"/>
      <point x="714" y="490" type="curve" smooth="yes"/>
      <point x="729" y="390" type="line" smooth="yes"/>
      <point x="730" y="381"/>
      <point x="736" y="368"/>
      <point x="742" y="361" type="curve" smooth="yes"/>
      <point x="794" y="298" type="line"/>
      <point x="746" y="236" type="line" smooth="yes"/>
      <point x="743" y="233"/>
      <point x="740" y="227"/>
      <point x="738" y="223" type="curve" smooth="yes"/>
      <point x="680" y="92" type="line"/>
      <point x="649" y="62" type="line"/>
      <point x="634" y="59" type="line"/>
      <point x="245" y="59" type="line"/>
      <point x="182" y="114" type="line"/>
      <point x="209" y="170" type="line"/>
    </contour>
  </outline>
</glyph>
<glyph name="E" format="1">
  <advance width="928"/>
  <unicode hex="0045"/>
  <outline>
    <contour>
      <point x="527" y="-60" type="line" smooth="yes"/>
      <point x="531" y="-60"/>
      <point x="534" y="-60"/>
      <point x="537" y="-59" type="curve"/>
      <point x="544" y="-60"/>
      <point x="550" y="-60"/>
      <point x="557" y="-59" type="curve" smooth="yes"/>
      <point x="764" y="-24" type="line" smooth="yes"/>
      <point x="800" y="-18"/>
      <point x="822" y="17"/>
      <point x="811" y="53" type="curve" smooth="yes"/>
      <point x="787" y="131" type="line" smooth="yes"/>
      <point x="785" y="138"/>
      <point x="779" y="148"/>
      <point x="775" y="154" type="curve" smooth="yes"/>
      <point x="702" y="236" type="line" smooth="yes"/>
      <point x="680" y="260"/>
      <point x="641" y="262"/>
      <point x="617" y="241" type="curve" smooth="yes"/>
      <point x="593" y="219"/>
      <point x="591" y="180"/>
      <point x="612" y="156" type="curve" smooth="yes"/>
      <point x="676" y="84" type="line"/>
      <point x="676" y="83" type="line"/>
      <point x="537" y="59" type="line" smooth="yes"/>
      <point x="537" y="59" type="line"/>
      <point x="534" y="60"/>
      <point x="530" y="60"/>
      <point x="527" y="60" type="curve" smooth="yes"/>
      <point x="337" y="60" type="line"/>
      <point x="260" y="65" type="line"/>
      <point x="191" y="93" type="line"/>
      <point x="216" y="182" type="line" smooth="yes"/>
      <point x="219" y="192"/>
      <point x="218" y="209"/>
      <point x="214" y="220" type="curve" smooth="yes"/>
      <point x="181" y="304" type="line"/>
      <point x="206" y="323" type="line"/>
      <point x="421" y="337" type="line" smooth="yes"/>
      <point x="497" y="342"/>
      <point x="497" y="451"/>
      <point x="421" y="457" type="curve" smooth="yes"/>
      <point x="371" y="461" type="line"/>
      <point x="299" y="474" type="line"/>
      <point x="255" y="497" type="line"/>
      <point x="292" y="571" type="line" smooth="yes"/>
      <point x="294" y="575"/>
      <point x="296" y="583"/>
      <point x="297" y="588" type="curve" smooth="yes"/>
      <point x="310" y="666" type="line"/>
      <point x="333" y="728" type="line"/>
      <point x="347" y="740" type="line"/>
      <point x="497" y="740" type="line"/>
      <point x="543" y="735" type="line"/>
      <point x="639" y="693" type="line"/>
      <point x="776" y="559" type="line" smooth="yes"/>
      <point x="799" y="536"/>
      <point x="838" y="537"/>
      <point x="861" y="560" type="curve" smooth="yes"/>
      <point x="884" y="583"/>
      <point x="883" y="622"/>
      <point x="860" y="645" type="curve" smooth="yes"/>
      <point x="715" y="786" type="line" smooth="yes"/>
      <point x="711" y="791"/>
      <point x="703" y="796"/>
      <point x="697" y="799" type="curve" smooth="yes"/>
      <point x="583" y="849" type="line" smooth="yes"/>
      <point x="578" y="851"/>
      <point x="570" y="853"/>
      <point x="565" y="853" type="curve" smooth="yes"/>
      <point x="507" y="860" type="line" smooth="yes"/>
      <point x="505" y="860"/>
      <point x="502" y="860"/>
      <point x="501" y="860" type="curve" smooth="yes"/>
      <point x="325" y="860" type="line" smooth="yes"/>
      <point x="313" y="860"/>
      <point x="295" y="853"/>
      <point x="286" y="845" type="curve" smooth="yes"/>
      <point x="243" y="809" type="line" smooth="yes"/>
      <point x="237" y="803"/>
      <point x="229" y="792"/>
      <point x="226" y="784" type="curve" smooth="yes"/>
      <point x="196" y="702" type="line" smooth="yes"/>
      <point x="195" y="699"/>
      <point x="194" y="695"/>
      <point x="193" y="692" type="curve" smooth="yes"/>
      <point x="180" y="617" type="line"/>
      <point x="121" y="499" type="line" smooth="yes"/>
      <point x="108" y="472"/>
      <point x="116" y="440"/>
      <point x="139" y="423" type="curve"/>
      <point x="73" y="372" type="line" smooth="yes"/>
      <point x="53" y="357"/>
      <point x="44" y="326"/>
      <point x="53" y="303" type="curve" smooth="yes"/>
      <point x="95" y="195" type="line"/>
      <point x="60" y="73" type="line" smooth="yes"/>
      <point x="52" y="44"/>
      <point x="68" y="11"/>
      <point x="96" y="1" type="curve" smooth="yes"/>
      <point x="225" y="-50" type="line" smooth="yes"/>
      <point x="230" y="-52"/>
      <point x="238" y="-53"/>
      <point x="243" y="-54" type="curve" smooth="yes"/>
      <point x="331" y="-60" type="line" smooth="yes"/>
      <point x="332" y="-60"/>
      <point x="334" y="-60"/>
      <point x="335" y="-60" type="curve" smooth="yes"/>
    </contour>
  </outline>
</glyph>
<glyph name="F" format="1">
  <advance width="907"/>
  <unicode hex="0046"/>
  <outline>
    <contour>
      <point x="261" y="-47" type="curve" smooth="yes"/>
      <point x="286" y="-26"/>
      <point x="290" y="13"/>
      <point x="270" y="38" type="curve" smooth="yes"/>
      <point x="196" y="128" type="line"/>
      <point x="179" y="179" type="line"/>
      <point x="294" y="279" type="line" smooth="yes"/>
      <point x="310" y="292"/>
      <point x="317" y="317"/>
      <point x="313" y="338" type="curve"/>
      <point x="432" y="339" type="line"/>
      <point x="469" y="341" type="line" smooth="yes"/>
      <point x="547" y="346"/>
      <point x="544" y="460"/>
      <point x="466" y="461" type="curve" smooth="yes"/>
      <point x="352" y="462" type="line"/>
      <point x="346" y="467"/>
      <point x="339" y="471"/>
      <point x="330" y="474" type="curve" smooth="yes"/>
      <point x="224" y="510" type="line"/>
      <point x="249" y="577" type="line" smooth="yes"/>
      <point x="250" y="580"/>
      <point x="251" y="583"/>
      <point x="252" y="586" type="curve" smooth="yes"/>
      <point x="269" y="668" type="line"/>
      <point x="281" y="724" type="line"/>
      <point x="310" y="740" type="line"/>
      <point x="514" y="740" type="line"/>
      <point x="555" y="735" type="line"/>
      <point x="728" y="697" type="line"/>
      <point x="713" y="613" type="line" smooth="yes"/>
      <point x="707" y="581"/>
      <point x="730" y="549"/>
      <point x="761" y="543" type="curve" smooth="yes"/>
      <point x="793" y="537"/>
      <point x="825" y="560"/>
      <point x="831" y="591" type="curve" smooth="yes"/>
      <point x="856" y="733" type="line" smooth="yes"/>
      <point x="862" y="764"/>
      <point x="841" y="795"/>
      <point x="810" y="802" type="curve" smooth="yes"/>
      <point x="578" y="852" type="line" smooth="yes"/>
      <point x="577" y="853"/>
      <point x="575" y="853"/>
      <point x="573" y="853" type="curve" smooth="yes"/>
      <point x="525" y="860" type="line" smooth="yes"/>
      <point x="523" y="860"/>
      <point x="520" y="860"/>
      <point x="518" y="860" type="curve" smooth="yes"/>
      <point x="294" y="860" type="line" smooth="yes"/>
      <point x="285" y="860"/>
      <point x="272" y="857"/>
      <point x="265" y="852" type="curve" smooth="yes"/>
      <point x="199" y="816" type="line" smooth="yes"/>
      <point x="186" y="808"/>
      <point x="173" y="791"/>
      <point x="170" y="776" type="curve" smooth="yes"/>
      <point x="152" y="695" type="line"/>
      <point x="135" y="614" type="line"/>
      <point x="91" y="493" type="line" smooth="yes"/>
      <point x="79" y="461"/>
      <point x="96" y="427"/>
      <point x="128" y="416" type="curve" smooth="yes"/>
      <point x="164" y="403" type="line"/>
      <point x="164" y="395"/>
      <point x="165" y="385"/>
      <point x="169" y="374" type="curve" smooth="yes"/>
      <point x="183" y="341" type="line"/>
      <point x="71" y="243" type="line" smooth="yes"/>
      <point x="54" y="229"/>
      <point x="46" y="200"/>
      <point x="53" y="179" type="curve" smooth="yes"/>
      <point x="85" y="80" type="line" smooth="yes"/>
      <point x="87" y="74"/>
      <point x="92" y="66"/>
      <point x="96" y="61" type="curve" smooth="yes"/>
      <point x="176" y="-38" type="line" smooth="yes"/>
      <point x="197" y="-63"/>
      <point x="236" y="-67"/>
    </contour>
  </outline>
</glyph>
<glyph name="G" format="1">
  <advance width="979"/>
  <unicode hex="0047"/>
  <outline>
    <contour>
      <point x="413" y="-56" type="curve" smooth="yes"/>
      <point x="660" y="-56" type="line" smooth="yes"/>
      <point x="667" y="-56"/>
      <point x="677" y="-54"/>
      <point x="683" y="-51" type="curve" smooth="yes"/>
      <point x="770" y="-15" type="line" smooth="yes"/>
      <point x="793" y="-6"/>
      <point x="809" y="21"/>
      <point x="807" y="45" type="curve" smooth="yes"/>
      <point x="801" y="126" type="line" smooth="yes"/>
      <point x="800" y="128"/>
      <point x="800" y="131"/>
      <point x="799" y="133" type="curve" smooth="yes"/>
      <point x="790" y="177" type="line"/>
      <point x="903" y="254" type="line" smooth="yes"/>
      <point x="920" y="266"/>
      <point x="932" y="293"/>
      <point x="928" y="314" type="curve" smooth="yes"/>
      <point x="911" y="414" type="line" smooth="yes"/>
      <point x="906" y="442"/>
      <point x="880" y="464"/>
      <point x="852" y="464" type="curve" smooth="yes"/>
      <point x="528" y="464" type="line"/>
      <point x="410" y="493" type="line"/>
      <point x="402" y="504" type="line"/>
      <point x="482" y="553" type="line" smooth="yes"/>
      <point x="510" y="569"/>
      <point x="519" y="607"/>
      <point x="502" y="635" type="curve" smooth="yes"/>
      <point x="486" y="663"/>
      <point x="448" y="672"/>
      <point x="420" y="655" type="curve" smooth="yes"/>
      <point x="354" y="616" type="line"/>
      <point x="351" y="633"/>
      <point x="340" y="649"/>
      <point x="324" y="657" type="curve" smooth="yes"/>
      <point x="284" y="678" type="line"/>
      <point x="373" y="712" type="line" smooth="yes"/>
      <point x="390" y="718"/>
      <point x="402" y="730"/>
      <point x="408" y="744" type="curve"/>
      <point x="603" y="744" type="line"/>
      <point x="725" y="714" type="line"/>
      <point x="769" y="668" type="line"/>
      <point x="760" y="614" type="line" smooth="yes"/>
      <point x="755" y="582"/>
      <point x="777" y="550"/>
      <point x="809" y="545" type="curve" smooth="yes"/>
      <point x="841" y="540"/>
      <point x="873" y="562"/>
      <point x="878" y="594" type="curve" smooth="yes"/>
      <point x="892" y="678" type="line" smooth="yes"/>
      <point x="894" y="694"/>
      <point x="887" y="717"/>
      <point x="876" y="729" type="curve" smooth="yes"/>
      <point x="800" y="809" type="line" smooth="yes"/>
      <point x="793" y="816"/>
      <point x="780" y="824"/>
      <point x="771" y="826" type="curve" smooth="yes"/>
      <point x="624" y="862" type="line" smooth="yes"/>
      <point x="620" y="863"/>
      <point x="614" y="864"/>
      <point x="610" y="864" type="curve" smooth="yes"/>
      <point x="321" y="864" type="line" smooth="yes"/>
      <point x="279" y="864"/>
      <point x="253" y="831"/>
      <point x="260" y="797" type="curve"/>
      <point x="117" y="743" type="line" smooth="yes"/>
      <point x="64" y="723"/>
      <point x="60" y="660"/>
      <point x="110" y="634" type="curve" smooth="yes"/>
      <point x="221" y="576" type="line"/>
      <point x="209" y="543" type="line"/>
      <point x="77" y="454" type="line" smooth="yes"/>
      <point x="43" y="430"/>
      <point x="40" y="386"/>
      <point x="72" y="359" type="curve" smooth="yes"/>
      <point x="166" y="277" type="line"/>
      <point x="166" y="221" type="line"/>
      <point x="123" y="152" type="line" smooth="yes"/>
      <point x="108" y="127"/>
      <point x="114" y="92"/>
      <point x="137" y="74" type="curve" smooth="yes"/>
      <point x="237" y="-7" type="line" smooth="yes"/>
      <point x="243" y="-11"/>
      <point x="253" y="-16"/>
      <point x="260" y="-18" type="curve" smooth="yes"/>
      <point x="398" y="-54" type="line" smooth="yes"/>
      <point x="402" y="-55"/>
      <point x="409" y="-56"/>
    </contour>
    <contour>
      <point x="277" y="172" type="line" smooth="yes"/>
      <point x="282" y="180"/>
      <point x="286" y="195"/>
      <point x="286" y="204" type="curve" smooth="yes"/>
      <point x="286" y="304" type="line" smooth="yes"/>
      <point x="286" y="319"/>
      <point x="277" y="339"/>
      <point x="265" y="349" type="curve" smooth="yes"/>
      <point x="209" y="398" type="line"/>
      <point x="290" y="453" type="line"/>
      <point x="328" y="403" type="line" smooth="yes"/>
      <point x="335" y="394"/>
      <point x="350" y="385"/>
      <point x="361" y="382" type="curve" smooth="yes"/>
      <point x="507" y="346" type="line" smooth="yes"/>
      <point x="510" y="345"/>
      <point x="517" y="344"/>
      <point x="521" y="344" type="curve" smooth="yes"/>
      <point x="801" y="344" type="line"/>
      <point x="803" y="332" type="line"/>
      <point x="689" y="254" type="line" smooth="yes"/>
      <point x="671" y="241"/>
      <point x="660" y="213"/>
      <point x="664" y="191" type="curve" smooth="yes"/>
      <point x="681" y="112" type="line"/>
      <point x="684" y="79" type="line"/>
      <point x="648" y="64" type="line"/>
      <point x="421" y="64" type="line"/>
      <point x="302" y="95" type="line"/>
      <point x="253" y="134" type="line"/>
    </contour>
  </outline>
</glyph>
<glyph name="H" format="1">
  <advance width="991"/>
  <unicode hex="0048"/>
  <outline>
    <contour>
      <point x="175" y="-55" type="curve" smooth="yes"/>
      <point x="333" y="45" type="line" smooth="yes"/>
      <point x="373" y="71"/>
      <point x="373" y="122"/>
      <point x="333" y="147" type="curve" smooth="yes"/>
      <point x="251" y="197" type="line"/>
      <point x="304" y="226" type="line" smooth="yes"/>
      <point x="312" y="230"/>
      <point x="321" y="238"/>
      <point x="325" y="245" type="curve" smooth="yes"/>
      <point x="331" y="253" type="line"/>
      <point x="339" y="260"/>
      <point x="344" y="268"/>
      <point x="348" y="277" type="curve"/>
      <point x="381" y="326" type="line" smooth="yes"/>
      <point x="383" y="328"/>
      <point x="385" y="331"/>
      <point x="386" y="334" type="curve" smooth="yes"/>
      <point x="387" y="336" type="line"/>
      <point x="703" y="336" type="line" smooth="yes"/>
      <point x="714" y="336"/>
      <point x="724" y="339"/>
      <point x="733" y="344" type="curve"/>
      <point x="722" y="323" type="line" smooth="yes"/>
      <point x="711" y="301"/>
      <point x="717" y="270"/>
      <point x="734" y="253" type="curve" smooth="yes"/>
      <point x="788" y="200" type="line"/>
      <point x="717" y="143" type="line" smooth="yes"/>
      <point x="701" y="130"/>
      <point x="691" y="104"/>
      <point x="695" y="84" type="curve" smooth="yes"/>
      <point x="716" y="-16" type="line" smooth="yes"/>
      <point x="723" y="-48"/>
      <point x="756" y="-69"/>
      <point x="787" y="-63" type="curve" smooth="yes"/>
      <point x="819" y="-56"/>
      <point x="840" y="-23"/>
      <point x="834" y="8" type="curve" smooth="yes"/>
      <point x="820" y="72" type="line"/>
      <point x="916" y="149" type="line" smooth="yes"/>
      <point x="946" y="172"/>
      <point x="948" y="213"/>
      <point x="921" y="239" type="curve" smooth="yes"/>
      <point x="849" y="308" type="line"/>
      <point x="880" y="369" type="line"/>
      <point x="934" y="467" type="line" smooth="yes"/>
      <point x="946" y="489"/>
      <point x="941" y="521"/>
      <point x="923" y="539" type="curve" smooth="yes"/>
      <point x="870" y="591" type="line"/>
      <point x="905" y="673" type="line" smooth="yes"/>
      <point x="923" y="715"/>
      <point x="896" y="756"/>
      <point x="850" y="756" type="curve" smooth="yes"/>
      <point x="761" y="756" type="line" smooth="yes"/>
      <point x="722" y="756"/>
      <point x="695" y="723"/>
      <point x="702" y="685" type="curve" smooth="yes"/>
      <point x="721" y="585" type="line" smooth="yes"/>
      <point x="723" y="575"/>
      <point x="730" y="561"/>
      <point x="738" y="553" type="curve" smooth="yes"/>
      <point x="752" y="540" type="line"/>
      <point x="670" y="481" type="line" smooth="yes"/>
      <point x="662" y="475"/>
      <point x="655" y="466"/>
      <point x="651" y="456" type="curve"/>
      <point x="349" y="456" type="line" smooth="yes"/>
      <point x="328" y="456"/>
      <point x="304" y="441"/>
      <point x="295" y="422" type="curve" smooth="yes"/>
      <point x="280" y="390" type="line"/>
      <point x="271" y="378" type="line"/>
      <point x="184" y="433" type="line"/>
      <point x="178" y="465" type="line"/>
      <point x="318" y="544" type="line" smooth="yes"/>
      <point x="362" y="569"/>
      <point x="362" y="623"/>
      <point x="318" y="648" type="curve" smooth="yes"/>
      <point x="226" y="700" type="line"/>
      <point x="294" y="746" type="line" smooth="yes"/>
      <point x="320" y="764"/>
      <point x="328" y="803"/>
      <point x="310" y="830" type="curve" smooth="yes"/>
      <point x="292" y="856"/>
      <point x="253" y="864"/>
      <point x="226" y="846" type="curve" smooth="yes"/>
      <point x="78" y="746" type="line" smooth="yes"/>
      <point x="39" y="719"/>
      <point x="41" y="668"/>
      <point x="82" y="644" type="curve" smooth="yes"/>
      <point x="167" y="596" type="line"/>
      <point x="82" y="548" type="line" smooth="yes"/>
      <point x="62" y="537"/>
      <point x="49" y="509"/>
      <point x="53" y="486" type="curve" smooth="yes"/>
      <point x="70" y="386" type="line" smooth="yes"/>
      <point x="72" y="371"/>
      <point x="85" y="353"/>
      <point x="97" y="345" type="curve" smooth="yes"/>
      <point x="178" y="294" type="line"/>
      <point x="94" y="249" type="line" smooth="yes"/>
      <point x="72" y="237"/>
      <point x="58" y="208"/>
      <point x="63" y="184" type="curve" smooth="yes"/>
      <point x="83" y="90" type="line"/>
      <point x="83" y="-4" type="line" smooth="yes"/>
      <point x="83" y="-56"/>
      <point x="132" y="-82"/>
    </contour>
  </outline>
</glyph>
<glyph name="I" format="1">
  <advance width="897"/>
  <unicode hex="0049"/>
  <outline>
    <contour>
      <point x="110" y="-61" type="curve" smooth="yes"/>
      <point x="572" y="-61" type="line" smooth="yes"/>
      <point x="646" y="-61"/>
      <point x="657" y="42"/>
      <point x="585" y="58" type="curve" smooth="yes"/>
      <point x="517" y="73" type="line"/>
      <point x="402" y="107" type="line"/>
      <point x="387" y="170" type="line"/>
      <point x="509" y="248" type="line" smooth="yes"/>
      <point x="526" y="258"/>
      <point x="538" y="283"/>
      <point x="537" y="302" type="curve" smooth="yes"/>
      <point x="531" y="403" type="line" smooth="yes"/>
      <point x="530" y="415"/>
      <point x="523" y="431"/>
      <point x="515" y="440" type="curve" smooth="yes"/>
      <point x="452" y="508" type="line"/>
      <point x="489" y="569" type="line" smooth="yes"/>
      <point x="492" y="575"/>
      <point x="496" y="586"/>
      <point x="497" y="593" type="curve" smooth="yes"/>
      <point x="513" y="732" type="line" smooth="yes"/>
      <point x="514" y="734"/>
      <point x="514" y="737"/>
      <point x="514" y="739" type="curve"/>
      <point x="787" y="739" type="line" smooth="yes"/>
      <point x="819" y="739"/>
      <point x="847" y="767"/>
      <point x="847" y="799" type="curve" smooth="yes"/>
      <point x="847" y="831"/>
      <point x="819" y="859"/>
      <point x="787" y="859" type="curve" smooth="yes"/>
      <point x="180" y="859" type="line" smooth="yes"/>
      <point x="104" y="859"/>
      <point x="96" y="750"/>
      <point x="172" y="740" type="curve" smooth="yes"/>
      <point x="219" y="733" type="line"/>
      <point x="258" y="726" type="line"/>
      <point x="388" y="694" type="line"/>
      <point x="379" y="620" type="line"/>
      <point x="325" y="530" type="line" smooth="yes"/>
      <point x="313" y="509"/>
      <point x="316" y="477"/>
      <point x="333" y="459" type="curve" smooth="yes"/>
      <point x="412" y="374" type="line"/>
      <point x="415" y="330" type="line"/>
      <point x="286" y="249" type="line" smooth="yes"/>
      <point x="266" y="236"/>
      <point x="254" y="207"/>
      <point x="260" y="184" type="curve" smooth="yes"/>
      <point x="290" y="59" type="line"/>
      <point x="110" y="59" type="line" smooth="yes"/>
      <point x="78" y="59"/>
      <point x="50" y="31"/>
      <point x="50" y="-1" type="curve" smooth="yes"/>
      <point x="50" y="-33"/>
      <point x="78" y="-61"/>
    </contour>
  </outline>
</glyph>
<glyph name="J" format="1">
  <advance width="824"/>
  <unicode hex="004A"/>
  <outline>
    <contour>
      <point x="209" y="-61" type="curve" smooth="yes"/>
      <point x="245" y="-61" type="line" smooth="yes"/>
      <point x="247" y="-61"/>
      <point x="250" y="-61"/>
      <point x="252" y="-61" type="curve" smooth="yes"/>
      <point x="537" y="-25" type="line" smooth="yes"/>
      <point x="577" y="-20"/>
      <point x="600" y="18"/>
      <point x="586" y="56" type="curve" smooth="yes"/>
      <point x="568" y="103" type="line"/>
      <point x="615" y="160" type="line" smooth="yes"/>
      <point x="621" y="167"/>
      <point x="627" y="181"/>
      <point x="629" y="191" type="curve" smooth="yes"/>
      <point x="641" y="291" type="line" smooth="yes"/>
      <point x="643" y="308"/>
      <point x="634" y="331"/>
      <point x="622" y="342" type="curve" smooth="yes"/>
      <point x="558" y="403" type="line"/>
      <point x="607" y="460" type="line" smooth="yes"/>
      <point x="624" y="480"/>
      <point x="626" y="512"/>
      <point x="611" y="533" type="curve" smooth="yes"/>
      <point x="547" y="627" type="line"/>
      <point x="507" y="739" type="line"/>
      <point x="774" y="739" type="line"/>
      <point x="774" y="859" type="line"/>
      <point x="110" y="859" type="line" smooth="yes"/>
      <point x="31" y="859"/>
      <point x="29" y="741"/>
      <point x="108" y="739" type="curve" smooth="yes"/>
      <point x="327" y="733" type="line"/>
      <point x="385" y="730" type="line"/>
      <point x="385" y="726"/>
      <point x="386" y="722"/>
      <point x="387" y="719" type="curve" smooth="yes"/>
      <point x="436" y="580" type="line" smooth="yes"/>
      <point x="438" y="576"/>
      <point x="441" y="570"/>
      <point x="444" y="566" type="curve" smooth="yes"/>
      <point x="486" y="504" type="line"/>
      <point x="430" y="438" type="line" smooth="yes"/>
      <point x="409" y="414"/>
      <point x="411" y="377"/>
      <point x="434" y="355" type="curve" smooth="yes"/>
      <point x="518" y="276" type="line"/>
      <point x="512" y="223" type="line"/>
      <point x="454" y="153" type="line" smooth="yes"/>
      <point x="442" y="138"/>
      <point x="437" y="112"/>
      <point x="444" y="94" type="curve" smooth="yes"/>
      <point x="447" y="85" type="line"/>
      <point x="241" y="59" type="line"/>
      <point x="209" y="59" type="line" smooth="yes"/>
      <point x="177" y="59"/>
      <point x="149" y="31"/>
      <point x="149" y="-1" type="curve" smooth="yes"/>
      <point x="149" y="-33"/>
      <point x="177" y="-61"/>
    </contour>
  </outline>
</glyph>
<glyph name="K" format="1">
  <advance width="991"/>
  <unicode hex="004B"/>
  <outline>
    <contour>
      <point x="883" y="-23" type="curve" smooth="yes"/>
      <point x="935" y="78" type="line" smooth="yes"/>
      <point x="946" y="98"/>
      <point x="942" y="129"/>
      <point x="926" y="146" type="curve" smooth="yes"/>
      <point x="838" y="241" type="line"/>
      <point x="763" y="377" type="line" smooth="yes"/>
      <point x="762" y="379"/>
      <point x="760" y="382"/>
      <point x="757" y="385" type="curve"/>
      <point x="764" y="388"/>
      <point x="773" y="395"/>
      <point x="778" y="400" type="curve" smooth="yes"/>
      <point x="850" y="481" type="line" smooth="yes"/>
      <point x="852" y="483"/>
      <point x="855" y="486"/>
      <point x="856" y="489" type="curve" smooth="yes"/>
      <point x="909" y="572" type="line" smooth="yes"/>
      <point x="924" y="596"/>
      <point x="919" y="631"/>
      <point x="897" y="650" type="curve" smooth="yes"/>
      <point x="824" y="711" type="line"/>
      <point x="870" y="765" type="line" smooth="yes"/>
      <point x="891" y="790"/>
      <point x="887" y="829"/>
      <point x="863" y="850" type="curve" smooth="yes"/>
      <point x="838" y="871"/>
      <point x="799" y="867"/>
      <point x="778" y="843" type="curve" smooth="yes"/>
      <point x="694" y="743" type="line" smooth="yes"/>
      <point x="672" y="717"/>
      <point x="675" y="680"/>
      <point x="701" y="658" type="curve" smooth="yes"/>
      <point x="779" y="592" type="line"/>
      <point x="757" y="557" type="line"/>
      <point x="698" y="490" type="line"/>
      <point x="637" y="464" type="line"/>
      <point x="437" y="464" type="line" smooth="yes"/>
      <point x="430" y="464"/>
      <point x="419" y="462"/>
      <point x="413" y="459" type="curve" smooth="yes"/>
      <point x="331" y="423" type="line"/>
      <point x="219" y="382" type="line"/>
      <point x="219" y="392" type="line"/>
      <point x="253" y="483" type="line" smooth="yes"/>
      <point x="257" y="492"/>
      <point x="258" y="507"/>
      <point x="256" y="516" type="curve" smooth="yes"/>
      <point x="235" y="616" type="line" smooth="yes"/>
      <point x="234" y="618"/>
      <point x="234" y="620"/>
      <point x="234" y="621" type="curve" smooth="yes"/>
      <point x="205" y="721" type="line"/>
      <point x="166" y="825" type="line" smooth="yes"/>
      <point x="155" y="855"/>
      <point x="120" y="872"/>
      <point x="89" y="860" type="curve" smooth="yes"/>
      <point x="59" y="849"/>
      <point x="42" y="814"/>
      <point x="54" y="783" type="curve" smooth="yes"/>
      <point x="89" y="687" type="line"/>
      <point x="118" y="589" type="line"/>
      <point x="135" y="509" type="line"/>
      <point x="104" y="425" type="line" smooth="yes"/>
      <point x="102" y="420"/>
      <point x="100" y="412"/>
      <point x="100" y="407" type="curve" smooth="yes"/>
      <point x="96" y="334" type="line"/>
      <point x="64" y="310"/>
      <point x="63" y="265"/>
      <point x="100" y="238" type="curve" smooth="yes"/>
      <point x="146" y="205" type="line"/>
      <point x="153" y="194" type="line"/>
      <point x="104" y="147" type="line" smooth="yes"/>
      <point x="61" y="107"/>
      <point x="87" y="44"/>
      <point x="145" y="44" type="curve" smooth="yes"/>
      <point x="222" y="44" type="line" smooth="yes"/>
      <point x="257" y="44"/>
      <point x="284" y="72"/>
      <point x="282" y="107" type="curve" smooth="yes"/>
      <point x="280" y="149" type="line"/>
      <point x="291" y="161" type="line" smooth="yes"/>
      <point x="320" y="188"/>
      <point x="317" y="230"/>
      <point x="285" y="253" type="curve" smooth="yes"/>
      <point x="262" y="270" type="line"/>
      <point x="380" y="313" type="line"/>
      <point x="450" y="344" type="line"/>
      <point x="619" y="344" type="line"/>
      <point x="664" y="308" type="line"/>
      <point x="736" y="177" type="line" smooth="yes"/>
      <point x="738" y="173"/>
      <point x="742" y="168"/>
      <point x="745" y="165" type="curve" smooth="yes"/>
      <point x="809" y="95" type="line"/>
      <point x="777" y="31" type="line" smooth="yes"/>
      <point x="762" y="3"/>
      <point x="774" y="-35"/>
      <point x="803" y="-49" type="curve" smooth="yes"/>
      <point x="831" y="-64"/>
      <point x="869" y="-52"/>
    </contour>
  </outline>
</glyph>
<glyph name="L" format="1">
  <advance width="827"/>
  <unicode hex="004C"/>
  <outline>
    <contour>
      <point x="404" y="-60" type="curve" smooth="yes"/>
      <point x="717" y="-60" type="line" smooth="yes"/>
      <point x="749" y="-60"/>
      <point x="777" y="-32"/>
      <point x="777" y="0" type="curve" smooth="yes"/>
      <point x="777" y="32"/>
      <point x="749" y="60"/>
      <point x="717" y="60" type="curve" smooth="yes"/>
      <point x="405" y="60" type="line"/>
      <point x="336" y="63" type="line"/>
      <point x="335" y="67"/>
      <point x="335" y="69"/>
      <point x="335" y="72" type="curve" smooth="yes"/>
      <point x="301" y="214" type="line" smooth="yes"/>
      <point x="300" y="221"/>
      <point x="294" y="232"/>
      <point x="289" y="238" type="curve" smooth="yes"/>
      <point x="211" y="333" type="line"/>
      <point x="179" y="396" type="line"/>
      <point x="226" y="467" type="line" smooth="yes"/>
      <point x="232" y="475"/>
      <point x="236" y="491"/>
      <point x="236" y="501" type="curve" smooth="yes"/>
      <point x="234" y="601" type="line" smooth="yes"/>
      <point x="234" y="605"/>
      <point x="233" y="610"/>
      <point x="232" y="613" type="curve" smooth="yes"/>
      <point x="209" y="713" type="line" smooth="yes"/>
      <point x="209" y="716"/>
      <point x="208" y="720"/>
      <point x="207" y="722" type="curve" smooth="yes"/>
      <point x="168" y="822" type="line" smooth="yes"/>
      <point x="156" y="852"/>
      <point x="120" y="868"/>
      <point x="90" y="856" type="curve" smooth="yes"/>
      <point x="60" y="844"/>
      <point x="44" y="808"/>
      <point x="56" y="778" type="curve" smooth="yes"/>
      <point x="94" y="682" type="line"/>
      <point x="114" y="593" type="line"/>
      <point x="116" y="518" type="line"/>
      <point x="59" y="433" type="line" smooth="yes"/>
      <point x="48" y="417"/>
      <point x="47" y="390"/>
      <point x="56" y="372" type="curve" smooth="yes"/>
      <point x="108" y="272" type="line" smooth="yes"/>
      <point x="109" y="269"/>
      <point x="112" y="265"/>
      <point x="115" y="262" type="curve" smooth="yes"/>
      <point x="188" y="173" type="line"/>
      <point x="211" y="72" type="line"/>
      <point x="190" y="43" type="line" smooth="yes"/>
      <point x="158" y="1"/>
      <point x="183" y="-51"/>
      <point x="235" y="-53" type="curve" smooth="yes"/>
      <point x="401" y="-60" type="line" smooth="yes"/>
      <point x="402" y="-60"/>
      <point x="403" y="-60"/>
    </contour>
  </outline>
</glyph>
<glyph name="M" format="1">
  <advance width="950"/>
  <unicode hex="004D"/>
  <outline>
    <contour>
      <point x="719" y="-60" type="curve" smooth="yes"/>
      <point x="751" y="-56"/>
      <point x="774" y="-24"/>
      <point x="769" y="8" type="curve" smooth="yes"/>
      <point x="757" y="88" type="line"/>
      <point x="801" y="166" type="line"/>
      <point x="876" y="262" type="line" smooth="yes"/>
      <point x="886" y="275"/>
      <point x="891" y="297"/>
      <point x="887" y="313" type="curve" smooth="yes"/>
      <point x="868" y="396" type="line"/>
      <point x="897" y="479" type="line" smooth="yes"/>
      <point x="903" y="495"/>
      <point x="900" y="520"/>
      <point x="890" y="534" type="curve" smooth="yes"/>
      <point x="836" y="609" type="line"/>
      <point x="859" y="680" type="line" smooth="yes"/>
      <point x="863" y="693"/>
      <point x="862" y="714"/>
      <point x="855" y="726" type="curve" smooth="yes"/>
      <point x="804" y="826" type="line" smooth="yes"/>
      <point x="794" y="846"/>
      <point x="768" y="861"/>
      <point x="746" y="859" type="curve" smooth="yes"/>
      <point x="663" y="852" type="line" smooth="yes"/>
      <point x="658" y="851"/>
      <point x="651" y="850"/>
      <point x="646" y="848" type="curve" smooth="yes"/>
      <point x="519" y="796" type="line" smooth="yes"/>
      <point x="510" y="793"/>
      <point x="502" y="787"/>
      <point x="496" y="779" type="curve"/>
      <point x="491" y="785"/>
      <point x="486" y="790"/>
      <point x="481" y="793" type="curve" smooth="yes"/>
      <point x="416" y="829" type="line"/>
      <point x="407" y="847"/>
      <point x="387" y="859"/>
      <point x="362" y="859" type="curve" smooth="yes"/>
      <point x="175" y="859" type="line" smooth="yes"/>
      <point x="117" y="859"/>
      <point x="91" y="798"/>
      <point x="132" y="757" type="curve" smooth="yes"/>
      <point x="207" y="682" type="line"/>
      <point x="191" y="628" type="line"/>
      <point x="117" y="537" type="line" smooth="yes"/>
      <point x="96" y="512"/>
      <point x="99" y="475"/>
      <point x="123" y="454" type="curve" smooth="yes"/>
      <point x="212" y="375" type="line"/>
      <point x="208" y="329" type="line"/>
      <point x="111" y="244" type="line" smooth="yes"/>
      <point x="106" y="239"/>
      <point x="98" y="229"/>
      <point x="95" y="222" type="curve" smooth="yes"/>
      <point x="54" y="122" type="line" smooth="yes"/>
      <point x="49" y="109"/>
      <point x="49" y="88"/>
      <point x="55" y="76" type="curve" smooth="yes"/>
      <point x="97" y="-24" type="line" smooth="yes"/>
      <point x="109" y="-54"/>
      <point x="145" y="-69"/>
      <point x="175" y="-56" type="curve" smooth="yes"/>
      <point x="205" y="-44"/>
      <point x="220" y="-8"/>
      <point x="207" y="22" type="curve" smooth="yes"/>
      <point x="175" y="99" type="line"/>
      <point x="201" y="163" type="line"/>
      <point x="305" y="254" type="line" smooth="yes"/>
      <point x="314" y="263"/>
      <point x="323" y="280"/>
      <point x="325" y="293" type="curve" smooth="yes"/>
      <point x="335" y="393" type="line" smooth="yes"/>
      <point x="336" y="410"/>
      <point x="328" y="433"/>
      <point x="315" y="444" type="curve" smooth="yes"/>
      <point x="246" y="505" type="line"/>
      <point x="291" y="561" type="line" smooth="yes"/>
      <point x="296" y="566"/>
      <point x="301" y="576"/>
      <point x="303" y="582" type="curve" smooth="yes"/>
      <point x="332" y="682" type="line" smooth="yes"/>
      <point x="337" y="700"/>
      <point x="331" y="725"/>
      <point x="319" y="739" type="curve"/>
      <point x="331" y="739" type="line"/>
      <point x="398" y="702" type="line"/>
      <point x="423" y="583" type="line"/>
      <point x="429" y="563" type="line"/>
      <point x="407" y="548" type="line" smooth="yes"/>
      <point x="381" y="530"/>
      <point x="374" y="493"/>
      <point x="391" y="467" type="curve" smooth="yes"/>
      <point x="455" y="367" type="line" smooth="yes"/>
      <point x="464" y="351"/>
      <point x="487" y="339"/>
      <point x="505" y="339" type="curve" smooth="yes"/>
      <point x="523" y="339" type="line" smooth="yes"/>
      <point x="560" y="339"/>
      <point x="587" y="370"/>
      <point x="582" y="408" type="curve" smooth="yes"/>
      <point x="568" y="508" type="line" smooth="yes"/>
      <point x="567" y="509"/>
      <point x="567" y="512"/>
      <point x="567" y="513" type="curve"/>
      <point x="618" y="550" type="line" smooth="yes"/>
      <point x="638" y="564"/>
      <point x="648" y="593"/>
      <point x="641" y="616" type="curve" smooth="yes"/>
      <point x="615" y="706" type="line"/>
      <point x="683" y="733" type="line"/>
      <point x="716" y="736" type="line"/>
      <point x="737" y="694" type="line"/>
      <point x="712" y="618" type="line" smooth="yes"/>
      <point x="707" y="602"/>
      <point x="710" y="578"/>
      <point x="720" y="564" type="curve" smooth="yes"/>
      <point x="774" y="490" type="line"/>
      <point x="749" y="419" type="line" smooth="yes"/>
      <point x="745" y="410"/>
      <point x="744" y="395"/>
      <point x="747" y="385" type="curve" smooth="yes"/>
      <point x="764" y="313" type="line"/>
      <point x="704" y="236" type="line" smooth="yes"/>
      <point x="702" y="234"/>
      <point x="700" y="231"/>
      <point x="699" y="228" type="curve" smooth="yes"/>
      <point x="643" y="128" type="line" smooth="yes"/>
      <point x="637" y="118"/>
      <point x="634" y="101"/>
      <point x="636" y="90" type="curve" smooth="yes"/>
      <point x="651" y="-10" type="line" smooth="yes"/>
      <point x="655" y="-42"/>
      <point x="687" y="-65"/>
    </contour>
  </outline>
</glyph>
<glyph name="N" format="1">
  <advance width="982"/>
  <unicode hex="004E"/>
  <outline>
    <contour>
      <point x="120" y="-61" type="curve" smooth="yes"/>
      <point x="152" y="-59"/>
      <point x="178" y="-30"/>
      <point x="176" y="3" type="curve" smooth="yes"/>
      <point x="171" y="83" type="line"/>
      <point x="225" y="167" type="line" smooth="yes"/>
      <point x="236" y="185"/>
      <point x="236" y="213"/>
      <point x="225" y="231" type="curve" smooth="yes"/>
      <point x="178" y="305" type="line"/>
      <point x="207" y="376" type="line" smooth="yes"/>
      <point x="209" y="380"/>
      <point x="211" y="387"/>
      <point x="212" y="392" type="curve" smooth="yes"/>
      <point x="221" y="468" type="line"/>
      <point x="324" y="553" type="line" smooth="yes"/>
      <point x="352" y="576"/>
      <point x="354" y="616"/>
      <point x="328" y="641" type="curve" smooth="yes"/>
      <point x="261" y="709" type="line"/>
      <point x="277" y="739" type="line"/>
      <point x="320" y="739" type="line"/>
      <point x="326" y="722" type="line" smooth="yes"/>
      <point x="329" y="713"/>
      <point x="338" y="700"/>
      <point x="346" y="693" type="curve" smooth="yes"/>
      <point x="481" y="587" type="line"/>
      <point x="441" y="532" type="line"/>
      <point x="375" y="432" type="line" smooth="yes"/>
      <point x="368" y="421"/>
      <point x="364" y="401"/>
      <point x="366" y="388" type="curve" smooth="yes"/>
      <point x="385" y="288" type="line" smooth="yes"/>
      <point x="388" y="274"/>
      <point x="399" y="257"/>
      <point x="410" y="250" type="curve" smooth="yes"/>
      <point x="536" y="163" type="line"/>
      <point x="564" y="48" type="line"/>
      <point x="572" y="-4" type="line" smooth="yes"/>
      <point x="577" y="-29"/>
      <point x="601" y="-52"/>
      <point x="627" y="-54" type="curve" smooth="yes"/>
      <point x="709" y="-61" type="line" smooth="yes"/>
      <point x="725" y="-62"/>
      <point x="748" y="-53"/>
      <point x="759" y="-41" type="curve" smooth="yes"/>
      <point x="849" y="59" type="line" smooth="yes"/>
      <point x="871" y="84"/>
      <point x="869" y="122"/>
      <point x="844" y="144" type="curve" smooth="yes"/>
      <point x="793" y="189" type="line"/>
      <point x="892" y="247" type="line" smooth="yes"/>
      <point x="907" y="256"/>
      <point x="920" y="276"/>
      <point x="922" y="293" type="curve" smooth="yes"/>
      <point x="932" y="393" type="line" smooth="yes"/>
      <point x="934" y="412"/>
      <point x="922" y="437"/>
      <point x="907" y="448" type="curve" smooth="yes"/>
      <point x="829" y="503" type="line"/>
      <point x="887" y="553" type="line" smooth="yes"/>
      <point x="900" y="564"/>
      <point x="909" y="587"/>
      <point x="908" y="604" type="curve" smooth="yes"/>
      <point x="900" y="704" type="line" smooth="yes"/>
      <point x="899" y="718"/>
      <point x="889" y="736"/>
      <point x="878" y="745" type="curve" smooth="yes"/>
      <point x="758" y="845" type="line" smooth="yes"/>
      <point x="734" y="866"/>
      <point x="695" y="862"/>
      <point x="674" y="837" type="curve" smooth="yes"/>
      <point x="653" y="813"/>
      <point x="657" y="774"/>
      <point x="682" y="753" type="curve" smooth="yes"/>
      <point x="782" y="669" type="line"/>
      <point x="786" y="625" type="line"/>
      <point x="692" y="545" type="line" smooth="yes"/>
      <point x="661" y="518"/>
      <point x="663" y="474"/>
      <point x="696" y="450" type="curve" smooth="yes"/>
      <point x="809" y="370" type="line"/>
      <point x="805" y="335" type="line"/>
      <point x="662" y="251" type="line" smooth="yes"/>
      <point x="652" y="245"/>
      <point x="645" y="238"/>
      <point x="640" y="230" type="curve"/>
      <point x="635" y="238"/>
      <point x="629" y="244"/>
      <point x="623" y="248" type="curve" smooth="yes"/>
      <point x="498" y="334" type="line"/>
      <point x="488" y="386" type="line"/>
      <point x="541" y="466" type="line"/>
      <point x="612" y="564" type="line" smooth="yes"/>
      <point x="630" y="590"/>
      <point x="625" y="627"/>
      <point x="600" y="646" type="curve" smooth="yes"/>
      <point x="434" y="776" type="line"/>
      <point x="421" y="817" type="line" smooth="yes"/>
      <point x="414" y="840"/>
      <point x="388" y="859"/>
      <point x="364" y="859" type="curve" smooth="yes"/>
      <point x="242" y="859" type="line" smooth="yes"/>
      <point x="223" y="859"/>
      <point x="199" y="845"/>
      <point x="190" y="828" type="curve" smooth="yes"/>
      <point x="134" y="728" type="line" smooth="yes"/>
      <point x="121" y="706"/>
      <point x="126" y="674"/>
      <point x="144" y="657" type="curve" smooth="yes"/>
      <point x="197" y="603" type="line"/>
      <point x="126" y="545" type="line" smooth="yes"/>
      <point x="116" y="537"/>
      <point x="106" y="519"/>
      <point x="104" y="506" type="curve" smooth="yes"/>
      <point x="93" y="414" type="line"/>
      <point x="55" y="322" type="line" smooth="yes"/>
      <point x="48" y="306"/>
      <point x="50" y="281"/>
      <point x="59" y="267" type="curve" smooth="yes"/>
      <point x="103" y="199" type="line"/>
      <point x="59" y="131" type="line" smooth="yes"/>
      <point x="54" y="122"/>
      <point x="49" y="106"/>
      <point x="50" y="95" type="curve" smooth="yes"/>
      <point x="56" y="-5" type="line" smooth="yes"/>
      <point x="58" y="-37"/>
      <point x="87" y="-63"/>
    </contour>
    <contour>
      <point x="682" y="67" type="line"/>
      <point x="664" y="144" type="line"/>
      <point x="719" y="94" type="line"/>
      <point x="689" y="61" type="line"/>
      <point x="683" y="62" type="line"/>
    </contour>
  </outline>
</glyph>
<glyph name="O" format="1">
  <advance width="963"/>
  <unicode hex="004F"/>
  <outline>
    <contour>
      <point x="359" y="-61" type="curve" smooth="yes"/>
      <point x="419" y="-61" type="line" smooth="yes"/>
      <point x="451" y="-61"/>
      <point x="479" y="-33"/>
      <point x="479" y="-1" type="curve" smooth="yes"/>
      <point x="479" y="31"/>
      <point x="451" y="59"/>
      <point x="419" y="59" type="curve" smooth="yes"/>
      <point x="366" y="59" type="line"/>
      <point x="246" y="89" type="line"/>
      <point x="214" y="127" type="line"/>
      <point x="233" y="178" type="line" smooth="yes"/>
      <point x="235" y="183"/>
      <point x="237" y="192"/>
      <point x="237" y="198" type="curve" smooth="yes"/>
      <point x="239" y="298" type="line" smooth="yes"/>
      <point x="239" y="300"/>
      <point x="239" y="303"/>
      <point x="239" y="306" type="curve" smooth="yes"/>
      <point x="229" y="396" type="line"/>
      <point x="248" y="487" type="line" smooth="yes"/>
      <point x="251" y="502"/>
      <point x="246" y="524"/>
      <point x="236" y="536" type="curve" smooth="yes"/>
      <point x="204" y="578" type="line"/>
      <point x="308" y="628" type="line" smooth="yes"/>
      <point x="337" y="642"/>
      <point x="349" y="677"/>
      <point x="336" y="707" type="curve" smooth="yes"/>
      <point x="325" y="731" type="line"/>
      <point x="343" y="739" type="line"/>
      <point x="554" y="739" type="line"/>
      <point x="655" y="710" type="line"/>
      <point x="693" y="664" type="line"/>
      <point x="688" y="615" type="line"/>
      <point x="646" y="524" type="line" smooth="yes"/>
      <point x="638" y="505"/>
      <point x="641" y="477"/>
      <point x="654" y="462" type="curve" smooth="yes"/>
      <point x="718" y="382" type="line"/>
      <point x="708" y="312" type="line"/>
      <point x="679" y="217" type="line" smooth="yes"/>
      <point x="672" y="194"/>
      <point x="682" y="164"/>
      <point x="701" y="150" type="curve" smooth="yes"/>
      <point x="730" y="129" type="line"/>
      <point x="638" y="90" type="line" smooth="yes"/>
      <point x="629" y="86"/>
      <point x="617" y="76"/>
      <point x="611" y="67" type="curve" smooth="yes"/>
      <point x="588" y="31" type="line" smooth="yes"/>
      <point x="571" y="4"/>
      <point x="580" y="-34"/>
      <point x="607" y="-52" type="curve" smooth="yes"/>
      <point x="634" y="-69"/>
      <point x="672" y="-60"/>
      <point x="690" y="-33" type="curve" smooth="yes"/>
      <point x="703" y="-13" type="line"/>
      <point x="874" y="60" type="line" smooth="yes"/>
      <point x="921" y="80"/>
      <point x="927" y="134"/>
      <point x="886" y="164" type="curve" smooth="yes"/>
      <point x="806" y="222" type="line"/>
      <point x="824" y="281" type="line" smooth="yes"/>
      <point x="825" y="284"/>
      <point x="826" y="288"/>
      <point x="826" y="291" type="curve" smooth="yes"/>
      <point x="840" y="391" type="line" smooth="yes"/>
      <point x="842" y="405"/>
      <point x="837" y="425"/>
      <point x="828" y="436" type="curve" smooth="yes"/>
      <point x="771" y="508" type="line"/>
      <point x="802" y="574" type="line" smooth="yes"/>
      <point x="804" y="579"/>
      <point x="806" y="587"/>
      <point x="807" y="593" type="curve" smooth="yes"/>
      <point x="815" y="676" type="line" smooth="yes"/>
      <point x="817" y="690"/>
      <point x="811" y="710"/>
      <point x="802" y="721" type="curve" smooth="yes"/>
      <point x="735" y="801" type="line" smooth="yes"/>
      <point x="729" y="809"/>
      <point x="715" y="818"/>
      <point x="706" y="821" type="curve" smooth="yes"/>
      <point x="578" y="857" type="line" smooth="yes"/>
      <point x="574" y="858"/>
      <point x="567" y="859"/>
      <point x="562" y="859" type="curve" smooth="yes"/>
      <point x="331" y="859" type="line" smooth="yes"/>
      <point x="324" y="859"/>
      <point x="314" y="857"/>
      <point x="308" y="854" type="curve" smooth="yes"/>
      <point x="221" y="818" type="line" smooth="yes"/>
      <point x="190" y="805"/>
      <point x="176" y="769"/>
      <point x="190" y="738" type="curve" smooth="yes"/>
      <point x="202" y="710" type="line"/>
      <point x="85" y="653" type="line" smooth="yes"/>
      <point x="49" y="635"/>
      <point x="39" y="594"/>
      <point x="64" y="562" type="curve" smooth="yes"/>
      <point x="125" y="484" type="line"/>
      <point x="109" y="411" type="line" smooth="yes"/>
      <point x="108" y="406"/>
      <point x="108" y="398"/>
      <point x="108" y="392" type="curve" smooth="yes"/>
      <point x="119" y="296" type="line"/>
      <point x="117" y="211" type="line"/>
      <point x="89" y="137" type="line" smooth="yes"/>
      <point x="83" y="119"/>
      <point x="87" y="92"/>
      <point x="99" y="77" type="curve" smooth="yes"/>
      <point x="167" y="-3" type="line" smooth="yes"/>
      <point x="174" y="-12"/>
      <point x="188" y="-21"/>
      <point x="198" y="-23" type="curve" smooth="yes"/>
      <point x="345" y="-59" type="line" smooth="yes"/>
      <point x="349" y="-60"/>
      <point x="355" y="-61"/>
    </contour>
  </outline>
</glyph>
<glyph name="P" format="1">
  <advance width="962"/>
  <unicode hex="0050"/>
  <outline>
    <contour>
      <point x="332" y="-46" type="curve" smooth="yes"/>
      <point x="358" y="-27"/>
      <point x="365" y="12"/>
      <point x="346" y="38" type="curve" smooth="yes"/>
      <point x="284" y="124" type="line"/>
      <point x="279" y="207" type="line" smooth="yes"/>
      <point x="279" y="210"/>
      <point x="278" y="213"/>
      <point x="277" y="217" type="curve"/>
      <point x="413" y="247" type="line"/>
      <point x="641" y="247" type="line" smooth="yes"/>
      <point x="645" y="247"/>
      <point x="651" y="248"/>
      <point x="654" y="249" type="curve" smooth="yes"/>
      <point x="812" y="285" type="line" smooth="yes"/>
      <point x="824" y="288"/>
      <point x="841" y="299"/>
      <point x="848" y="310" type="curve" smooth="yes"/>
      <point x="902" y="390" type="line" smooth="yes"/>
      <point x="908" y="399"/>
      <point x="912" y="414"/>
      <point x="912" y="424" type="curve" smooth="yes"/>
      <point x="911" y="508" type="line" smooth="yes"/>
      <point x="911" y="526"/>
      <point x="898" y="548"/>
      <point x="883" y="558" type="curve" smooth="yes"/>
      <point x="817" y="599" type="line"/>
      <point x="880" y="634" type="line" smooth="yes"/>
      <point x="914" y="653"/>
      <point x="922" y="695"/>
      <point x="896" y="725" type="curve" smooth="yes"/>
      <point x="828" y="806" type="line" smooth="yes"/>
      <point x="820" y="815"/>
      <point x="803" y="824"/>
      <point x="791" y="826" type="curve" smooth="yes"/>
      <point x="553" y="862" type="line" smooth="yes"/>
      <point x="551" y="863"/>
      <point x="546" y="863"/>
      <point x="544" y="863" type="curve" smooth="yes"/>
      <point x="326" y="863" type="line" smooth="yes"/>
      <point x="320" y="863"/>
      <point x="311" y="861"/>
      <point x="305" y="859" type="curve" smooth="yes"/>
      <point x="207" y="823" type="line" smooth="yes"/>
      <point x="196" y="819"/>
      <point x="183" y="808"/>
      <point x="177" y="799" type="curve" smooth="yes"/>
      <point x="126" y="718" type="line" smooth="yes"/>
      <point x="116" y="703"/>
      <point x="114" y="678"/>
      <point x="121" y="662" type="curve" smooth="yes"/>
      <point x="155" y="583" type="line"/>
      <point x="175" y="516" type="line"/>
      <point x="113" y="441" type="line" smooth="yes"/>
      <point x="106" y="431"/>
      <point x="100" y="413"/>
      <point x="100" y="401" type="curve" smooth="yes"/>
      <point x="103" y="301" type="line" smooth="yes"/>
      <point x="103" y="293"/>
      <point x="107" y="281"/>
      <point x="111" y="274" type="curve" smooth="yes"/>
      <point x="117" y="262" type="line"/>
      <point x="76" y="234" type="line" smooth="yes"/>
      <point x="56" y="221"/>
      <point x="45" y="190"/>
      <point x="53" y="167" type="curve" smooth="yes"/>
      <point x="79" y="82" type="line" smooth="yes"/>
      <point x="88" y="51"/>
      <point x="122" y="32"/>
      <point x="153" y="42" type="curve" smooth="yes"/>
      <point x="165" y="45"/>
      <point x="174" y="52"/>
      <point x="182" y="61" type="curve"/>
      <point x="248" y="-32" type="line" smooth="yes"/>
      <point x="267" y="-58"/>
      <point x="306" y="-65"/>
    </contour>
    <contour>
      <point x="393" y="366" type="curve" smooth="yes"/>
      <point x="222" y="327" type="line"/>
      <point x="221" y="383" type="line"/>
      <point x="288" y="465" type="line" smooth="yes"/>
      <point x="299" y="479"/>
      <point x="303" y="503"/>
      <point x="299" y="520" type="curve" smooth="yes"/>
      <point x="270" y="620" type="line" smooth="yes"/>
      <point x="269" y="622"/>
      <point x="268" y="625"/>
      <point x="267" y="627" type="curve" smooth="yes"/>
      <point x="244" y="681" type="line"/>
      <point x="267" y="717" type="line"/>
      <point x="337" y="743" type="line"/>
      <point x="539" y="743" type="line"/>
      <point x="751" y="711" type="line"/>
      <point x="757" y="703" type="line"/>
      <point x="671" y="655" type="line" smooth="yes"/>
      <point x="628" y="632"/>
      <point x="626" y="579"/>
      <point x="668" y="552" type="curve" smooth="yes"/>
      <point x="791" y="474" type="line"/>
      <point x="792" y="441" type="line"/>
      <point x="762" y="396" type="line"/>
      <point x="634" y="367" type="line"/>
      <point x="406" y="367" type="line" smooth="yes"/>
      <point x="402" y="367"/>
      <point x="396" y="366"/>
    </contour>
  </outline>
</glyph>
<glyph name="Q" format="1">
  <advance width="997"/>
  <unicode hex="0051"/>
  <outline>
    <contour>
      <point x="338" y="-61" type="curve" smooth="yes"/>
      <point x="505" y="-61" type="line" smooth="yes"/>
      <point x="537" y="-61"/>
      <point x="565" y="-33"/>
      <point x="565" y="-1" type="curve" smooth="yes"/>
      <point x="565" y="31"/>
      <point x="537" y="59"/>
      <point x="505" y="59" type="curve" smooth="yes"/>
      <point x="360" y="59" type="line"/>
      <point x="333" y="82" type="line"/>
      <point x="347" y="192" type="line" smooth="yes"/>
      <point x="348" y="207"/>
      <point x="342" y="228"/>
      <point x="332" y="239" type="curve" smooth="yes"/>
      <point x="251" y="329" type="line"/>
      <point x="226" y="416" type="line" smooth="yes"/>
      <point x="224" y="420"/>
      <point x="222" y="426"/>
      <point x="220" y="429" type="curve" smooth="yes"/>
      <point x="190" y="481" type="line"/>
      <point x="289" y="550" type="line" smooth="yes"/>
      <point x="306" y="561"/>
      <point x="317" y="587"/>
      <point x="314" y="607" type="curve" smooth="yes"/>
      <point x="303" y="690" type="line"/>
      <point x="299" y="714" type="line"/>
      <point x="431" y="739" type="line"/>
      <point x="604" y="739" type="line"/>
      <point x="608" y="731"/>
      <point x="613" y="723"/>
      <point x="618" y="718" type="curve" smooth="yes"/>
      <point x="692" y="653" type="line"/>
      <point x="697" y="594" type="line" smooth="yes"/>
      <point x="698" y="583"/>
      <point x="704" y="569"/>
      <point x="711" y="561" type="curve" smooth="yes"/>
      <point x="763" y="497" type="line"/>
      <point x="716" y="435" type="line" smooth="yes"/>
      <point x="697" y="410"/>
      <point x="701" y="373"/>
      <point x="726" y="352" type="curve" smooth="yes"/>
      <point x="799" y="293" type="line"/>
      <point x="767" y="258" type="line"/>
      <point x="653" y="252" type="line" smooth="yes"/>
      <point x="645" y="252"/>
      <point x="634" y="249"/>
      <point x="628" y="245" type="curve" smooth="yes"/>
      <point x="529" y="194" type="line" smooth="yes"/>
      <point x="493" y="176"/>
      <point x="484" y="134"/>
      <point x="509" y="103" type="curve" smooth="yes"/>
      <point x="622" y="-38" type="line" smooth="yes"/>
      <point x="642" y="-64"/>
      <point x="681" y="-68"/>
      <point x="706" y="-48" type="curve" smooth="yes"/>
      <point x="732" y="-28"/>
      <point x="736" y="11"/>
      <point x="716" y="36" type="curve" smooth="yes"/>
      <point x="649" y="121" type="line"/>
      <point x="672" y="133" type="line"/>
      <point x="797" y="139" type="line" smooth="yes"/>
      <point x="810" y="140"/>
      <point x="829" y="148"/>
      <point x="838" y="158" type="curve" smooth="yes"/>
      <point x="931" y="258" type="line" smooth="yes"/>
      <point x="955" y="284"/>
      <point x="952" y="323"/>
      <point x="925" y="346" type="curve" smooth="yes"/>
      <point x="847" y="409" type="line"/>
      <point x="888" y="463" type="line" smooth="yes"/>
      <point x="904" y="484"/>
      <point x="903" y="517"/>
      <point x="886" y="537" type="curve" smooth="yes"/>
      <point x="815" y="623" type="line"/>
      <point x="809" y="688" type="line" smooth="yes"/>
      <point x="808" y="701"/>
      <point x="799" y="719"/>
      <point x="789" y="727" type="curve" smooth="yes"/>
      <point x="722" y="787" type="line"/>
      <point x="722" y="791" type="line" smooth="yes"/>
      <point x="727" y="828"/>
      <point x="701" y="859"/>
      <point x="663" y="859" type="curve" smooth="yes"/>
      <point x="425" y="859" type="line" smooth="yes"/>
      <point x="422" y="859"/>
      <point x="417" y="859"/>
      <point x="414" y="858" type="curve" smooth="yes"/>
      <point x="221" y="822" type="line" smooth="yes"/>
      <point x="190" y="816"/>
      <point x="169" y="786"/>
      <point x="173" y="755" type="curve" smooth="yes"/>
      <point x="184" y="674" type="line"/>
      <point x="190" y="627" type="line"/>
      <point x="76" y="548" type="line" smooth="yes"/>
      <point x="51" y="531"/>
      <point x="43" y="495"/>
      <point x="58" y="469" type="curve" smooth="yes"/>
      <point x="112" y="375" type="line"/>
      <point x="139" y="282" type="line" smooth="yes"/>
      <point x="141" y="275"/>
      <point x="147" y="265"/>
      <point x="152" y="259" type="curve" smooth="yes"/>
      <point x="224" y="179" type="line"/>
      <point x="210" y="64" type="line" smooth="yes"/>
      <point x="208" y="47"/>
      <point x="218" y="23"/>
      <point x="231" y="12" type="curve" smooth="yes"/>
      <point x="299" y="-47" type="line" smooth="yes"/>
      <point x="308" y="-55"/>
      <point x="326" y="-61"/>
    </contour>
  </outline>
</glyph>
<glyph name="R" format="1">
  <advance width="954"/>
  <unicode hex="0052"/>
  <outline>
    <contour>
      <point x="789" y="-46" type="curve" smooth="yes"/>
      <point x="887" y="56" type="line" smooth="yes"/>
      <point x="910" y="80"/>
      <point x="909" y="118"/>
      <point x="886" y="141" type="curve" smooth="yes"/>
      <point x="739" y="283" type="line" smooth="yes"/>
      <point x="737" y="285"/>
      <point x="733" y="287"/>
      <point x="731" y="289" type="curve" smooth="yes"/>
      <point x="727" y="292" type="line"/>
      <point x="848" y="360" type="line" smooth="yes"/>
      <point x="889" y="384"/>
      <point x="892" y="435"/>
      <point x="852" y="462" type="curve" smooth="yes"/>
      <point x="802" y="497" type="line"/>
      <point x="873" y="547" type="line" smooth="yes"/>
      <point x="907" y="571"/>
      <point x="908" y="616"/>
      <point x="876" y="642" type="curve" smooth="yes"/>
      <point x="775" y="726" type="line"/>
      <point x="693" y="799" type="line"/>
      <point x="673" y="829" type="line" smooth="yes"/>
      <point x="663" y="844"/>
      <point x="641" y="856"/>
      <point x="623" y="856" type="curve" smooth="yes"/>
      <point x="345" y="856" type="line" smooth="yes"/>
      <point x="341" y="856"/>
      <point x="334" y="855"/>
      <point x="331" y="854" type="curve" smooth="yes"/>
      <point x="184" y="818" type="line" smooth="yes"/>
      <point x="168" y="814"/>
      <point x="150" y="799"/>
      <point x="143" y="784" type="curve" smooth="yes"/>
      <point x="110" y="707" type="line"/>
      <point x="59" y="628" type="line" smooth="yes"/>
      <point x="42" y="601"/>
      <point x="50" y="564"/>
      <point x="77" y="546" type="curve" smooth="yes"/>
      <point x="173" y="482" type="line"/>
      <point x="133" y="434" type="line" smooth="yes"/>
      <point x="121" y="419"/>
      <point x="117" y="392"/>
      <point x="124" y="374" type="curve" smooth="yes"/>
      <point x="151" y="306" type="line"/>
      <point x="94" y="233" type="line" smooth="yes"/>
      <point x="89" y="227"/>
      <point x="84" y="217"/>
      <point x="83" y="210" type="curve" smooth="yes"/>
      <point x="59" y="110" type="line" smooth="yes"/>
      <point x="54" y="91"/>
      <point x="62" y="65"/>
      <point x="76" y="52" type="curve" smooth="yes"/>
      <point x="184" y="-48" type="line" smooth="yes"/>
      <point x="208" y="-70"/>
      <point x="247" y="-69"/>
      <point x="269" y="-45" type="curve" smooth="yes"/>
      <point x="291" y="-21"/>
      <point x="290" y="18"/>
      <point x="266" y="40" type="curve" smooth="yes"/>
      <point x="184" y="116" type="line"/>
      <point x="196" y="169" type="line"/>
      <point x="266" y="259" type="line" smooth="yes"/>
      <point x="278" y="274"/>
      <point x="282" y="300"/>
      <point x="275" y="318" type="curve" smooth="yes"/>
      <point x="249" y="385" type="line"/>
      <point x="308" y="458" type="line" smooth="yes"/>
      <point x="330" y="486"/>
      <point x="324" y="526"/>
      <point x="294" y="546" type="curve" smooth="yes"/>
      <point x="192" y="613" type="line"/>
      <point x="214" y="647" type="line" smooth="yes"/>
      <point x="215" y="649"/>
      <point x="217" y="653"/>
      <point x="218" y="655" type="curve" smooth="yes"/>
      <point x="242" y="709" type="line"/>
      <point x="352" y="736" type="line"/>
      <point x="591" y="736" type="line"/>
      <point x="597" y="727" type="line" smooth="yes"/>
      <point x="600" y="723"/>
      <point x="604" y="718"/>
      <point x="607" y="715" type="curve" smooth="yes"/>
      <point x="698" y="633" type="line"/>
      <point x="739" y="599" type="line"/>
      <point x="663" y="545" type="line" smooth="yes"/>
      <point x="627" y="519"/>
      <point x="627" y="472"/>
      <point x="664" y="447" type="curve" smooth="yes"/>
      <point x="706" y="418" type="line"/>
      <point x="655" y="389" type="line"/>
      <point x="516" y="356" type="line"/>
      <point x="280" y="356" type="line"/>
      <point x="280" y="236" type="line"/>
      <point x="597" y="236" type="line"/>
      <point x="659" y="193" type="line"/>
      <point x="759" y="96" type="line"/>
      <point x="703" y="38" type="line" smooth="yes"/>
      <point x="680" y="14"/>
      <point x="681" y="-25"/>
      <point x="704" y="-47" type="curve" smooth="yes"/>
      <point x="728" y="-70"/>
      <point x="767" y="-69"/>
    </contour>
  </outline>
</glyph>
<glyph name="S" format="1">
  <advance width="950"/>
  <unicode hex="0053"/>
  <outline>
    <contour>
      <point x="406" y="-56" type="curve" smooth="yes"/>
      <point x="519" y="-56" type="line" smooth="yes"/>
      <point x="522" y="-56"/>
      <point x="527" y="-56"/>
      <point x="530" y="-55" type="curve" smooth="yes"/>
      <point x="721" y="-18" type="line" smooth="yes"/>
      <point x="744" y="-14"/>
      <point x="765" y="8"/>
      <point x="769" y="30" type="curve" smooth="yes"/>
      <point x="784" y="112" type="line" smooth="yes"/>
      <point x="785" y="116"/>
      <point x="785" y="124"/>
      <point x="785" y="128" type="curve" smooth="yes"/>
      <point x="777" y="212" type="line" smooth="yes"/>
      <point x="776" y="217"/>
      <point x="774" y="225"/>
      <point x="772" y="230" type="curve" smooth="yes"/>
      <point x="724" y="340" type="line"/>
      <point x="740" y="363" type="line" smooth="yes"/>
      <point x="770" y="405"/>
      <point x="746" y="455"/>
      <point x="694" y="458" type="curve" smooth="yes"/>
      <point x="551" y="464" type="line" smooth="yes"/>
      <point x="550" y="464"/>
      <point x="549" y="464"/>
      <point x="548" y="464" type="curve" smooth="yes"/>
      <point x="434" y="464" type="line"/>
      <point x="342" y="467" type="line"/>
      <point x="342" y="470"/>
      <point x="341" y="474"/>
      <point x="340" y="477" type="curve" smooth="yes"/>
      <point x="305" y="618" type="line" smooth="yes"/>
      <point x="302" y="632"/>
      <point x="290" y="648"/>
      <point x="278" y="655" type="curve" smooth="yes"/>
      <point x="227" y="687" type="line"/>
      <point x="275" y="717" type="line" smooth="yes"/>
      <point x="281" y="721"/>
      <point x="290" y="729"/>
      <point x="294" y="735" type="curve" smooth="yes"/>
      <point x="300" y="744" type="line"/>
      <point x="556" y="744" type="line"/>
      <point x="696" y="713" type="line"/>
      <point x="752" y="653" type="line"/>
      <point x="787" y="579" type="line" smooth="yes"/>
      <point x="800" y="549"/>
      <point x="837" y="536"/>
      <point x="866" y="550" type="curve" smooth="yes"/>
      <point x="896" y="563"/>
      <point x="909" y="600"/>
      <point x="895" y="629" type="curve" smooth="yes"/>
      <point x="857" y="713" type="line" smooth="yes"/>
      <point x="855" y="717"/>
      <point x="850" y="725"/>
      <point x="846" y="728" type="curve" smooth="yes"/>
      <point x="771" y="809" type="line" smooth="yes"/>
      <point x="764" y="816"/>
      <point x="750" y="824"/>
      <point x="740" y="827" type="curve" smooth="yes"/>
      <point x="575" y="863" type="line" smooth="yes"/>
      <point x="571" y="863"/>
      <point x="566" y="864"/>
      <point x="562" y="864" type="curve" smooth="yes"/>
      <point x="267" y="864" type="line" smooth="yes"/>
      <point x="249" y="864"/>
      <point x="226" y="852"/>
      <point x="217" y="837" type="curve" smooth="yes"/>
      <point x="200" y="812" type="line"/>
      <point x="81" y="738" type="line" smooth="yes"/>
      <point x="40" y="713"/>
      <point x="40" y="661"/>
      <point x="81" y="636" type="curve" smooth="yes"/>
      <point x="195" y="566" type="line"/>
      <point x="214" y="489" type="line"/>
      <point x="172" y="461" type="line" smooth="yes"/>
      <point x="120" y="426"/>
      <point x="141" y="353"/>
      <point x="204" y="351" type="curve" smooth="yes"/>
      <point x="431" y="344" type="line" smooth="yes"/>
      <point x="432" y="344"/>
      <point x="432" y="344"/>
      <point x="433" y="344" type="curve" smooth="yes"/>
      <point x="547" y="344" type="line"/>
      <point x="597" y="342" type="line"/>
      <point x="597" y="335"/>
      <point x="599" y="329"/>
      <point x="601" y="324" type="curve" smooth="yes"/>
      <point x="658" y="191" type="line"/>
      <point x="665" y="125" type="line"/>
      <point x="659" y="92" type="line"/>
      <point x="513" y="64" type="line"/>
      <point x="408" y="64" type="line"/>
      <point x="347" y="70" type="line"/>
      <point x="259" y="101" type="line"/>
      <point x="282" y="189" type="line" smooth="yes"/>
      <point x="290" y="220"/>
      <point x="270" y="254"/>
      <point x="239" y="262" type="curve" smooth="yes"/>
      <point x="208" y="270"/>
      <point x="174" y="250"/>
      <point x="166" y="219" type="curve" smooth="yes"/>
      <point x="129" y="78" type="line" smooth="yes"/>
      <point x="121" y="48"/>
      <point x="138" y="16"/>
      <point x="167" y="6" type="curve" smooth="yes"/>
      <point x="314" y="-46" type="line" smooth="yes"/>
      <point x="318" y="-47"/>
      <point x="324" y="-48"/>
      <point x="328" y="-49" type="curve" smooth="yes"/>
      <point x="400" y="-56" type="line" smooth="yes"/>
      <point x="401" y="-56"/>
      <point x="404" y="-56"/>
    </contour>
  </outline>
</glyph>
<glyph name="T" format="1">
  <advance width="769"/>
  <unicode hex="0054"/>
  <outline>
    <contour>
      <point x="601" y="-59" type="curve" smooth="yes"/>
      <point x="633" y="-55"/>
      <point x="657" y="-24"/>
      <point x="652" y="8" type="curve" smooth="yes"/>
      <point x="639" y="104" type="line"/>
      <point x="638" y="201" type="line" smooth="yes"/>
      <point x="638" y="218"/>
      <point x="626" y="240"/>
      <point x="611" y="250" type="curve" smooth="yes"/>
      <point x="525" y="307" type="line"/>
      <point x="578" y="356" type="line" smooth="yes"/>
      <point x="587" y="363"/>
      <point x="595" y="378"/>
      <point x="597" y="389" type="curve" smooth="yes"/>
      <point x="616" y="489" type="line" smooth="yes"/>
      <point x="619" y="506"/>
      <point x="612" y="531"/>
      <point x="599" y="543" type="curve" smooth="yes"/>
      <point x="542" y="598" type="line"/>
      <point x="585" y="636" type="line" smooth="yes"/>
      <point x="590" y="642"/>
      <point x="597" y="652"/>
      <point x="600" y="659" type="curve" smooth="yes"/>
      <point x="622" y="713" type="line"/>
      <point x="680" y="738" type="line" smooth="yes"/>
      <point x="741" y="764"/>
      <point x="728" y="847"/>
      <point x="661" y="853" type="curve" smooth="yes"/>
      <point x="580" y="860" type="line" smooth="yes"/>
      <point x="579" y="860"/>
      <point x="576" y="860"/>
      <point x="575" y="860" type="curve" smooth="yes"/>
      <point x="110" y="860" type="line" smooth="yes"/>
      <point x="78" y="860"/>
      <point x="50" y="832"/>
      <point x="50" y="800" type="curve" smooth="yes"/>
      <point x="50" y="768"/>
      <point x="78" y="740"/>
      <point x="110" y="740" type="curve" smooth="yes"/>
      <point x="504" y="740" type="line"/>
      <point x="494" y="717" type="line"/>
      <point x="414" y="645" type="line" smooth="yes"/>
      <point x="388" y="621"/>
      <point x="387" y="582"/>
      <point x="412" y="557" type="curve" smooth="yes"/>
      <point x="492" y="479" type="line"/>
      <point x="483" y="431" type="line"/>
      <point x="388" y="344" type="line" smooth="yes"/>
      <point x="357" y="317"/>
      <point x="360" y="273"/>
      <point x="395" y="250" type="curve" smooth="yes"/>
      <point x="518" y="168" type="line"/>
      <point x="519" y="99" type="line" smooth="yes"/>
      <point x="519" y="97"/>
      <point x="519" y="94"/>
      <point x="520" y="92" type="curve" smooth="yes"/>
      <point x="534" y="-8" type="line" smooth="yes"/>
      <point x="538" y="-40"/>
      <point x="569" y="-64"/>
    </contour>
  </outline>
</glyph>
<glyph name="U" format="1">
  <advance width="880"/>
  <unicode hex="0055"/>
  <outline>
    <contour>
      <point x="269" y="-61" type="curve" smooth="yes"/>
      <point x="535" y="-61" type="line"/>
      <point x="535" y="-46" type="line"/>
      <point x="641" y="-24" type="line" smooth="yes"/>
      <point x="657" y="-20"/>
      <point x="677" y="-5"/>
      <point x="684" y="11" type="curve" smooth="yes"/>
      <point x="713" y="78" type="line"/>
      <point x="807" y="152" type="line" smooth="yes"/>
      <point x="826" y="167"/>
      <point x="835" y="197"/>
      <point x="826" y="220" type="curve" smooth="yes"/>
      <point x="789" y="320" type="line" smooth="yes"/>
      <point x="788" y="322"/>
      <point x="786" y="327"/>
      <point x="785" y="329" type="curve" smooth="yes"/>
      <point x="730" y="423" type="line"/>
      <point x="713" y="478" type="line"/>
      <point x="807" y="552" type="line" smooth="yes"/>
      <point x="826" y="567"/>
      <point x="835" y="598"/>
      <point x="826" y="621" type="curve" smooth="yes"/>
      <point x="787" y="721" type="line"/>
      <point x="747" y="821" type="line" smooth="yes"/>
      <point x="735" y="851"/>
      <point x="699" y="867"/>
      <point x="669" y="855" type="curve" smooth="yes"/>
      <point x="639" y="843"/>
      <point x="623" y="807"/>
      <point x="635" y="777" type="curve" smooth="yes"/>
      <point x="675" y="677" type="line"/>
      <point x="698" y="618" type="line"/>
      <point x="607" y="546" type="line" smooth="yes"/>
      <point x="589" y="532"/>
      <point x="580" y="503"/>
      <point x="587" y="481" type="curve" smooth="yes"/>
      <point x="618" y="381" type="line" smooth="yes"/>
      <point x="619" y="378"/>
      <point x="621" y="372"/>
      <point x="623" y="369" type="curve" smooth="yes"/>
      <point x="679" y="273" type="line"/>
      <point x="699" y="219" type="line"/>
      <point x="627" y="163" type="line" smooth="yes"/>
      <point x="620" y="158"/>
      <point x="612" y="147"/>
      <point x="609" y="140" type="curve" smooth="yes"/>
      <point x="586" y="88" type="line"/>
      <point x="448" y="59" type="line"/>
      <point x="276" y="59" type="line"/>
      <point x="241" y="68" type="line"/>
      <point x="246" y="73" type="line" smooth="yes"/>
      <point x="271" y="98"/>
      <point x="269" y="137"/>
      <point x="243" y="160" type="curve" smooth="yes"/>
      <point x="173" y="223" type="line"/>
      <point x="181" y="292" type="line" smooth="yes"/>
      <point x="181" y="295"/>
      <point x="181" y="300"/>
      <point x="181" y="303" type="curve" smooth="yes"/>
      <point x="177" y="375" type="line"/>
      <point x="259" y="456" type="line" smooth="yes"/>
      <point x="281" y="478"/>
      <point x="283" y="514"/>
      <point x="263" y="538" type="curve" smooth="yes"/>
      <point x="188" y="627" type="line"/>
      <point x="172" y="696" type="line"/>
      <point x="199" y="781" type="line" smooth="yes"/>
      <point x="209" y="812"/>
      <point x="191" y="846"/>
      <point x="160" y="856" type="curve" smooth="yes"/>
      <point x="129" y="866"/>
      <point x="95" y="848"/>
      <point x="85" y="817" type="curve" smooth="yes"/>
      <point x="53" y="717" type="line" smooth="yes"/>
      <point x="50" y="709"/>
      <point x="49" y="694"/>
      <point x="52" y="686" type="curve" smooth="yes"/>
      <point x="75" y="586" type="line" smooth="yes"/>
      <point x="76" y="578"/>
      <point x="82" y="567"/>
      <point x="87" y="560" type="curve" smooth="yes"/>
      <point x="135" y="503" type="line"/>
      <point x="73" y="442" type="line" smooth="yes"/>
      <point x="62" y="431"/>
      <point x="54" y="410"/>
      <point x="55" y="395" type="curve" smooth="yes"/>
      <point x="61" y="300" type="line"/>
      <point x="50" y="206" type="line" smooth="yes"/>
      <point x="48" y="189"/>
      <point x="57" y="166"/>
      <point x="70" y="154" type="curve" smooth="yes"/>
      <point x="116" y="113" type="line"/>
      <point x="81" y="77" type="line" smooth="yes"/>
      <point x="46" y="41"/>
      <point x="60" y="-11"/>
      <point x="109" y="-23" type="curve" smooth="yes"/>
      <point x="255" y="-59" type="line" smooth="yes"/>
      <point x="258" y="-60"/>
      <point x="265" y="-61"/>
    </contour>
  </outline>
</glyph>
<glyph name="V" format="1">
  <advance width="897"/>
  <unicode hex="0056"/>
  <outline>
    <contour>
      <point x="471" y="-60" type="curve" smooth="yes"/>
      <point x="592" y="-60" type="line" smooth="yes"/>
      <point x="596" y="-60"/>
      <point x="601" y="-59"/>
      <point x="605" y="-59" type="curve" smooth="yes"/>
      <point x="770" y="-22" type="line" smooth="yes"/>
      <point x="791" y="-18"/>
      <point x="811" y="2"/>
      <point x="816" y="22" type="curve" smooth="yes"/>
      <point x="835" y="103" type="line" smooth="yes"/>
      <point x="839" y="117"/>
      <point x="835" y="140"/>
      <point x="826" y="152" type="curve" smooth="yes"/>
      <point x="773" y="225" type="line"/>
      <point x="757" y="306" type="line"/>
      <point x="756" y="391" type="line"/>
      <point x="784" y="475" type="line"/>
      <point x="840" y="570" type="line" smooth="yes"/>
      <point x="852" y="591"/>
      <point x="849" y="623"/>
      <point x="831" y="642" type="curve" smooth="yes"/>
      <point x="752" y="724" type="line"/>
      <point x="752" y="800" type="line" smooth="yes"/>
      <point x="752" y="832"/>
      <point x="724" y="860"/>
      <point x="692" y="860" type="curve" smooth="yes"/>
      <point x="660" y="860"/>
      <point x="632" y="832"/>
      <point x="632" y="800" type="curve" smooth="yes"/>
      <point x="632" y="700" type="line" smooth="yes"/>
      <point x="632" y="687"/>
      <point x="639" y="668"/>
      <point x="649" y="658" type="curve" smooth="yes"/>
      <point x="713" y="591" type="line"/>
      <point x="677" y="530" type="line" smooth="yes"/>
      <point x="676" y="527"/>
      <point x="673" y="522"/>
      <point x="672" y="519" type="curve" smooth="yes"/>
      <point x="639" y="419" type="line" smooth="yes"/>
      <point x="637" y="414"/>
      <point x="636" y="405"/>
      <point x="636" y="399" type="curve" smooth="yes"/>
      <point x="637" y="299" type="line" smooth="yes"/>
      <point x="637" y="296"/>
      <point x="638" y="291"/>
      <point x="638" y="288" type="curve" smooth="yes"/>
      <point x="658" y="188" type="line" smooth="yes"/>
      <point x="660" y="181"/>
      <point x="664" y="171"/>
      <point x="668" y="165" type="curve" smooth="yes"/>
      <point x="712" y="104" type="line"/>
      <point x="708" y="87" type="line"/>
      <point x="585" y="60" type="line"/>
      <point x="492" y="60" type="line"/>
      <point x="340" y="182" type="line"/>
      <point x="308" y="227" type="line" smooth="yes"/>
      <point x="299" y="240"/>
      <point x="279" y="252"/>
      <point x="263" y="252" type="curve" smooth="yes"/>
      <point x="220" y="255" type="line"/>
      <point x="227" y="271" type="line"/>
      <point x="295" y="365" type="line" smooth="yes"/>
      <point x="315" y="391"/>
      <point x="309" y="429"/>
      <point x="282" y="448" type="curve" smooth="yes"/>
      <point x="185" y="520" type="line"/>
      <point x="206" y="568" type="line"/>
      <point x="285" y="661" type="line" smooth="yes"/>
      <point x="298" y="677"/>
      <point x="302" y="706"/>
      <point x="294" y="725" type="curve" smooth="yes"/>
      <point x="248" y="825" type="line" smooth="yes"/>
      <point x="234" y="855"/>
      <point x="197" y="868"/>
      <point x="168" y="855" type="curve" smooth="yes"/>
      <point x="138" y="841"/>
      <point x="125" y="804"/>
      <point x="138" y="775" type="curve" smooth="yes"/>
      <point x="169" y="709" type="line"/>
      <point x="109" y="639" type="line" smooth="yes"/>
      <point x="106" y="635"/>
      <point x="102" y="629"/>
      <point x="100" y="625" type="curve" smooth="yes"/>
      <point x="55" y="525" type="line" smooth="yes"/>
      <point x="44" y="500"/>
      <point x="53" y="467"/>
      <point x="75" y="452" type="curve" smooth="yes"/>
      <point x="163" y="387" type="line"/>
      <point x="126" y="335" type="line" smooth="yes"/>
      <point x="123" y="332"/>
      <point x="120" y="326"/>
      <point x="118" y="323" type="curve" smooth="yes"/>
      <point x="77" y="223" type="line" smooth="yes"/>
      <point x="61" y="182"/>
      <point x="86" y="143"/>
      <point x="129" y="140" type="curve" smooth="yes"/>
      <point x="227" y="134" type="line"/>
      <point x="247" y="106" type="line" smooth="yes"/>
      <point x="250" y="102"/>
      <point x="255" y="97"/>
      <point x="258" y="94" type="curve" smooth="yes"/>
      <point x="433" y="-47" type="line" smooth="yes"/>
      <point x="443" y="-54"/>
      <point x="459" y="-60"/>
    </contour>
  </outline>
</glyph>
<glyph name="W" format="1">
  <advance width="1007"/>
  <unicode hex="0057"/>
  <outline>
    <contour>
      <point x="235" y="-60" type="line"/>
      <point x="339" y="-53" type="line" smooth="yes"/>
      <point x="348" y="-52"/>
      <point x="361" y="-48"/>
      <point x="368" y="-43" type="curve" smooth="yes"/>
      <point x="444" y="9" type="line" smooth="yes"/>
      <point x="447" y="11"/>
      <point x="452" y="15"/>
      <point x="454" y="17" type="curve" smooth="yes"/>
      <point x="527" y="95" type="line"/>
      <point x="565" y="51" type="line"/>
      <point x="557" y="36" type="line" smooth="yes"/>
      <point x="534" y="-6"/>
      <point x="559" y="-51"/>
      <point x="607" y="-53" type="curve" smooth="yes"/>
      <point x="782" y="-60" type="line" smooth="yes"/>
      <point x="782" y="-60"/>
      <point x="783" y="-60"/>
      <point x="784" y="-60" type="curve" smooth="yes"/>
      <point x="811" y="-60" type="line" smooth="yes"/>
      <point x="848" y="-60"/>
      <point x="875" y="-30"/>
      <point x="871" y="7" type="curve" smooth="yes"/>
      <point x="860" y="107" type="line"/>
      <point x="843" y="209" type="line" smooth="yes"/>
      <point x="843" y="214"/>
      <point x="841" y="220"/>
      <point x="839" y="224" type="curve" smooth="yes"/>
      <point x="808" y="295" type="line"/>
      <point x="855" y="368" type="line" smooth="yes"/>
      <point x="868" y="389"/>
      <point x="866" y="421"/>
      <point x="849" y="440" type="curve" smooth="yes"/>
      <point x="786" y="511" type="line"/>
      <point x="809" y="561" type="line"/>
      <point x="931" y="652" type="line" smooth="yes"/>
      <point x="963" y="676"/>
      <point x="965" y="718"/>
      <point x="935" y="745" type="curve" smooth="yes"/>
      <point x="823" y="845" type="line" smooth="yes"/>
      <point x="799" y="866"/>
      <point x="760" y="864"/>
      <point x="738" y="840" type="curve" smooth="yes"/>
      <point x="717" y="816"/>
      <point x="719" y="777"/>
      <point x="743" y="755" type="curve" smooth="yes"/>
      <point x="800" y="704" type="line"/>
      <point x="725" y="648" type="line" smooth="yes"/>
      <point x="718" y="643"/>
      <point x="710" y="633"/>
      <point x="706" y="625" type="curve" smooth="yes"/>
      <point x="660" y="525" type="line" smooth="yes"/>
      <point x="651" y="505"/>
      <point x="656" y="476"/>
      <point x="670" y="460" type="curve" smooth="yes"/>
      <point x="729" y="394" type="line"/>
      <point x="689" y="332" type="line" smooth="yes"/>
      <point x="680" y="317"/>
      <point x="678" y="292"/>
      <point x="685" y="276" type="curve" smooth="yes"/>
      <point x="726" y="183" type="line"/>
      <point x="740" y="93" type="line"/>
      <point x="744" y="62" type="line"/>
      <point x="696" y="64" type="line"/>
      <point x="695" y="76"/>
      <point x="691" y="89"/>
      <point x="683" y="97" type="curve" smooth="yes"/>
      <point x="602" y="192" type="line"/>
      <point x="603" y="196"/>
      <point x="603" y="200"/>
      <point x="603" y="204" type="curve" smooth="yes"/>
      <point x="596" y="304" type="line" smooth="yes"/>
      <point x="595" y="312"/>
      <point x="591" y="324"/>
      <point x="587" y="331" type="curve" smooth="yes"/>
      <point x="526" y="431" type="line" smooth="yes"/>
      <point x="517" y="447"/>
      <point x="494" y="460"/>
      <point x="475" y="460" type="curve" smooth="yes"/>
      <point x="470" y="460" type="line" smooth="yes"/>
      <point x="451" y="460"/>
      <point x="427" y="446"/>
      <point x="418" y="429" type="curve" smooth="yes"/>
      <point x="363" y="329" type="line" smooth="yes"/>
      <point x="351" y="307"/>
      <point x="356" y="275"/>
      <point x="373" y="258" type="curve" smooth="yes"/>
      <point x="446" y="185" type="line"/>
      <point x="371" y="104" type="line"/>
      <point x="314" y="66" type="line"/>
      <point x="235" y="60" type="line"/>
      <point x="239" y="66" type="line" smooth="yes"/>
      <point x="253" y="86"/>
      <point x="252" y="118"/>
      <point x="237" y="138" type="curve" smooth="yes"/>
      <point x="183" y="204" type="line"/>
      <point x="222" y="265" type="line"/>
      <point x="299" y="363" type="line" smooth="yes"/>
      <point x="310" y="377"/>
      <point x="315" y="403"/>
      <point x="309" y="420" type="curve" smooth="yes"/>
      <point x="274" y="520" type="line" smooth="yes"/>
      <point x="273" y="522"/>
      <point x="271" y="526"/>
      <point x="270" y="528" type="curve" smooth="yes"/>
      <point x="222" y="620" type="line"/>
      <point x="212" y="671" type="line"/>
      <point x="336" y="749" type="line" smooth="yes"/>
      <point x="363" y="766"/>
      <point x="372" y="805"/>
      <point x="355" y="832" type="curve" smooth="yes"/>
      <point x="338" y="859"/>
      <point x="299" y="868"/>
      <point x="272" y="851" type="curve" smooth="yes"/>
      <point x="113" y="751" type="line" smooth="yes"/>
      <point x="94" y="739"/>
      <point x="82" y="711"/>
      <point x="86" y="688" type="curve" smooth="yes"/>
      <point x="106" y="588" type="line" smooth="yes"/>
      <point x="107" y="584"/>
      <point x="110" y="576"/>
      <point x="112" y="572" type="curve" smooth="yes"/>
      <point x="162" y="476" type="line"/>
      <point x="184" y="411" type="line"/>
      <point x="126" y="337" type="line" smooth="yes"/>
      <point x="125" y="336"/>
      <point x="123" y="334"/>
      <point x="122" y="332" type="curve" smooth="yes"/>
      <point x="58" y="232" type="line" smooth="yes"/>
      <point x="46" y="212"/>
      <point x="47" y="181"/>
      <point x="62" y="162" type="curve" smooth="yes"/>
      <point x="115" y="97" type="line"/>
      <point x="72" y="34" type="line" smooth="yes"/>
      <point x="42" y="-9"/>
      <point x="68" y="-60"/>
      <point x="121" y="-60" type="curve" smooth="yes"/>
    </contour>
  </outline>
</glyph>
<glyph name="X" format="1">
  <advance width="1009"/>
  <unicode hex="0058"/>
  <outline>
    <contour>
      <point x="230" y="-46" type="curve" smooth="yes"/>
      <point x="255" y="-26"/>
      <point x="259" y="13"/>
      <point x="238" y="38" type="curve" smooth="yes"/>
      <point x="175" y="116" type="line"/>
      <point x="187" y="172" type="line"/>
      <point x="249" y="244" type="line" smooth="yes"/>
      <point x="253" y="249"/>
      <point x="259" y="259"/>
      <point x="261" y="266" type="curve" smooth="yes"/>
      <point x="275" y="315" type="line"/>
      <point x="360" y="340" type="line"/>
      <point x="559" y="340" type="line"/>
      <point x="643" y="313" type="line"/>
      <point x="680" y="263" type="line"/>
      <point x="682" y="198" type="line" smooth="yes"/>
      <point x="682" y="194"/>
      <point x="683" y="188"/>
      <point x="684" y="184" type="curve" smooth="yes"/>
      <point x="711" y="84" type="line" smooth="yes"/>
      <point x="714" y="73"/>
      <point x="724" y="59"/>
      <point x="733" y="52" type="curve" smooth="yes"/>
      <point x="864" y="-48" type="line" smooth="yes"/>
      <point x="889" y="-67"/>
      <point x="928" y="-62"/>
      <point x="948" y="-36" type="curve" smooth="yes"/>
      <point x="967" y="-11"/>
      <point x="962" y="28"/>
      <point x="936" y="48" type="curve" smooth="yes"/>
      <point x="822" y="135" type="line"/>
      <point x="802" y="209" type="line"/>
      <point x="799" y="285" type="line" smooth="yes"/>
      <point x="799" y="296"/>
      <point x="794" y="311"/>
      <point x="788" y="319" type="curve" smooth="yes"/>
      <point x="752" y="368" type="line"/>
      <point x="801" y="377" type="line" smooth="yes"/>
      <point x="816" y="380"/>
      <point x="834" y="393"/>
      <point x="842" y="407" type="curve" smooth="yes"/>
      <point x="887" y="487" type="line" smooth="yes"/>
      <point x="895" y="501"/>
      <point x="896" y="525"/>
      <point x="890" y="540" type="curve" smooth="yes"/>
      <point x="862" y="608" type="line"/>
      <point x="872" y="692" type="line"/>
      <point x="886" y="792" type="line" smooth="yes"/>
      <point x="891" y="824"/>
      <point x="867" y="855"/>
      <point x="835" y="859" type="curve" smooth="yes"/>
      <point x="803" y="864"/>
      <point x="772" y="840"/>
      <point x="768" y="808" type="curve" smooth="yes"/>
      <point x="754" y="708" type="line"/>
      <point x="741" y="608" type="line" smooth="yes"/>
      <point x="739" y="599"/>
      <point x="741" y="585"/>
      <point x="745" y="577" type="curve" smooth="yes"/>
      <point x="768" y="520" type="line"/>
      <point x="751" y="490" type="line"/>
      <point x="597" y="460" type="line"/>
      <point x="358" y="460" type="line"/>
      <point x="263" y="489" type="line"/>
      <point x="220" y="529" type="line"/>
      <point x="240" y="565" type="line"/>
      <point x="329" y="659" type="line" smooth="yes"/>
      <point x="344" y="675"/>
      <point x="349" y="704"/>
      <point x="340" y="724" type="curve" smooth="yes"/>
      <point x="297" y="824" type="line" smooth="yes"/>
      <point x="284" y="853"/>
      <point x="248" y="868"/>
      <point x="218" y="855" type="curve" smooth="yes"/>
      <point x="189" y="842"/>
      <point x="174" y="806"/>
      <point x="187" y="776" type="curve" smooth="yes"/>
      <point x="214" y="712" type="line"/>
      <point x="147" y="641" type="line" smooth="yes"/>
      <point x="144" y="638"/>
      <point x="140" y="632"/>
      <point x="138" y="629" type="curve" smooth="yes"/>
      <point x="93" y="545" type="line" smooth="yes"/>
      <point x="80" y="523"/>
      <point x="86" y="490"/>
      <point x="105" y="473" type="curve" smooth="yes"/>
      <point x="181" y="402" type="line"/>
      <point x="175" y="395"/>
      <point x="171" y="388"/>
      <point x="169" y="380" type="curve" smooth="yes"/>
      <point x="149" y="312" type="line"/>
      <point x="86" y="239" type="line" smooth="yes"/>
      <point x="81" y="233"/>
      <point x="75" y="221"/>
      <point x="73" y="213" type="curve" smooth="yes"/>
      <point x="51" y="113" type="line" smooth="yes"/>
      <point x="48" y="97"/>
      <point x="53" y="74"/>
      <point x="64" y="62" type="curve" smooth="yes"/>
      <point x="146" y="-38" type="line" smooth="yes"/>
      <point x="166" y="-63"/>
      <point x="205" y="-67"/>
    </contour>
  </outline>
</glyph>
